<svg width="200" height="200" viewBox="0 0 200 200" fill="none" xmlns="http://www.w3.org/2000/svg">
<path fill-rule="evenodd" clip-rule="evenodd" d="M62 52.5C62 47.2533 66.2531 43 71.5 43H96.8333C102.08 43 106.333 47.2533 106.333 52.5V58.8333C106.333 64.0802 102.08 68.3333 96.8333 68.3333H71.5C66.2531 68.3333 62 64.0802 62 58.8333V52.5ZM71.5 49.3333C69.751 49.3333 68.3333 50.7511 68.3333 52.5V58.8333C68.3333 60.5823 69.751 62 71.5 62H96.8333C98.5823 62 100 60.5823 100 58.8333V52.5C100 50.7511 98.5823 49.3333 96.8333 49.3333H71.5Z" fill="#5C619D"/>
<path fill-rule="evenodd" clip-rule="evenodd" d="M65.1667 52.5H52.5C47.2533 52.5 43 56.7531 43 62V90.5H65.2775L75.7221 72.976L82.0539 96.2152L88.9496 87.3333H105.599C107.348 87.3333 108.765 88.7511 108.765 90.5C108.765 92.249 107.348 93.6667 105.599 93.6667H92.0504L79.2777 110.118L73.5302 89.024L68.8758 96.8333H43V147.5C43 152.747 47.2533 157 52.5 157H115.833C121.08 157 125.333 152.747 125.333 147.5V62C125.333 56.7531 121.08 52.5 115.833 52.5H103.167V58.8333C103.167 62.3312 100.331 65.1667 96.8333 65.1667H71.5C68.0021 65.1667 65.1667 62.3312 65.1667 58.8333V52.5ZM58.8333 119C58.8333 117.251 60.2511 115.833 62 115.833H106.333C108.082 115.833 109.5 117.251 109.5 119C109.5 120.749 108.082 122.167 106.333 122.167H62C60.2511 122.167 58.8333 120.749 58.8333 119ZM62 131.667C60.2511 131.667 58.8333 133.084 58.8333 134.833C58.8333 136.582 60.2511 138 62 138H106.333C108.082 138 109.5 136.582 109.5 134.833C109.5 133.084 108.082 131.667 106.333 131.667H62Z" fill="#5C619D"/>
<path fill-rule="evenodd" clip-rule="evenodd" d="M147.5 71.5C142.253 71.5 138 75.7531 138 81V90.5H157V81C157 75.7531 152.747 71.5 147.5 71.5ZM157 96.8333H138V144.333L147.5 157L157 144.333V96.8333Z" fill="#5C619D"/>
</svg>
