<svg width="200" height="200" viewBox="0 0 200 200" fill="none" xmlns="http://www.w3.org/2000/svg">
<path d="M93.4608 57.9625C92.3826 63.8646 87.214 68.3384 81.0007 68.3384C74.0052 68.3384 68.334 62.6673 68.334 55.6718C68.334 54.8367 68.4147 54.0204 68.569 53.2305C73.4016 56.1629 77.6095 57.8159 81.995 58.416C85.718 58.9258 89.4028 58.6503 93.4608 57.9625Z" fill="#5C619D"/>
<path d="M71.3281 47.4876C73.6515 44.7427 77.1225 43 81.0004 43C86.5763 43 91.3107 46.6029 93.0027 51.6078C89.0098 52.319 85.8761 52.55 82.8535 52.1362C79.4345 51.6682 75.9128 50.3371 71.3281 47.4876Z" fill="#5C619D"/>
<path d="M69.9167 71.5C61.2536 71.5 54.3935 76.7874 49.9948 83.1875C45.5657 89.632 43 97.9949 43 106.243C43 110.649 45.0417 115.762 46.4856 118.973C47.2864 120.754 48.0813 122.325 48.6744 123.449C48.9359 123.945 49.1609 124.358 49.3333 124.671V150.667C49.3333 154.165 52.1689 157 55.6667 157C59.1646 157 62 154.165 62 150.667V114.389C62.9259 106.764 65.0983 99.8543 67.5835 94.2037L69.6633 102.301C70.3828 105.1 72.9066 107.058 75.7975 107.058H92.0833C95.5812 107.058 98.4167 104.222 98.4167 100.725C98.4167 97.2266 95.5812 94.3912 92.0833 94.3912H80.7096L76.0508 76.2573C75.3313 73.4576 72.8075 71.5 69.9167 71.5Z" fill="#5C619D"/>
<path d="M141.167 81.0013C148.162 81.0013 153.833 75.3301 153.833 68.3346C153.833 61.3392 148.162 55.668 141.167 55.668C134.171 55.668 128.5 61.3392 128.5 68.3346C128.5 75.3301 134.171 81.0013 141.167 81.0013Z" fill="#5C619D"/>
<path fill-rule="evenodd" clip-rule="evenodd" d="M122.869 81.1426C125.79 80.5137 128.753 82.0112 129.978 84.7361L138.364 103.379H150.667C154.165 103.379 157 106.214 157 109.712C157 113.209 154.165 116.045 150.667 116.045H134.268C131.775 116.045 129.514 114.583 128.492 112.31L123.951 102.214C122.502 104.882 121.548 107.336 120.945 109.884C120.313 112.555 120.033 115.472 120.082 119.025C121.107 119.454 122.24 119.881 123.453 120.299C126.25 121.263 129.131 122.066 131.483 122.697C131.88 122.804 132.275 122.908 132.655 123.01L132.659 123.011C133.355 123.196 134.001 123.368 134.516 123.51C134.921 123.622 135.341 123.742 135.711 123.862L135.739 123.87C135.933 123.932 136.777 124.197 137.561 124.674C138.58 125.294 139.29 126.141 139.435 126.313L139.453 126.335C139.749 126.682 140.044 127.066 140.311 127.426C140.855 128.16 141.501 129.092 142.181 130.103C143.553 132.142 145.23 134.748 146.839 137.284C148.454 139.83 150.024 142.347 151.19 144.224C151.773 145.163 152.255 145.945 152.593 146.491L153.123 147.353L147.726 150.667C153.124 147.354 153.123 147.353 153.123 147.353C154.953 150.334 154.02 154.236 151.039 156.065C148.058 157.895 144.158 156.961 142.329 153.98L141.811 153.14C141.48 152.602 141.003 151.831 140.428 150.904C139.275 149.047 137.728 146.568 136.142 144.068C134.551 141.559 132.947 139.069 131.671 137.174C131.246 136.541 130.874 136 130.563 135.561C130.245 135.476 129.894 135.382 129.504 135.278C129.111 135.174 128.679 135.059 128.201 134.931C125.786 134.283 122.557 133.387 119.327 132.275L119 132.161V157.001H112.667V134.834H77.8333V157.001H71.5V125.334H106.439C106.157 125.048 105.884 124.748 105.624 124.433C104.367 122.91 103.167 120.711 103.167 117.945C103.167 103.054 107.182 93.8095 112.074 88.1893C114.481 85.4245 116.962 83.7028 118.955 82.6537C119.947 82.1312 120.813 81.7778 121.485 81.5435C121.821 81.4263 122.11 81.3383 122.343 81.2737C122.46 81.2414 122.563 81.2148 122.65 81.1932C122.694 81.1825 122.734 81.173 122.771 81.1644L122.823 81.1527L122.847 81.1476L122.858 81.1451C122.858 81.1451 122.869 81.1426 124.203 87.334L122.869 81.1426ZM131.949 135.96C131.949 135.96 131.907 135.948 131.841 135.922C131.919 135.948 131.949 135.96 131.949 135.96ZM129.85 134.597C129.744 134.485 129.729 134.453 129.819 134.559L129.85 134.597Z" fill="#5C619D"/>
<path d="M98.417 62.0013C101.04 62.0013 103.167 58.4569 103.167 54.0846C103.167 49.7124 101.04 46.168 98.417 46.168C95.7937 46.168 93.667 49.7124 93.667 54.0846C93.667 58.4569 95.7937 62.0013 98.417 62.0013Z" fill="#5C619D"/>
</svg>
