<?xml version="1.0" encoding="UTF-8"?>
<svg id="_Слой_1" data-name="Слой 1" xmlns="http://www.w3.org/2000/svg" xmlns:xlink="http://www.w3.org/1999/xlink" viewBox="0 0 200 200">
  <defs>
    <linearGradient id="_Безымянный_градиент_60" data-name="Безымянный градиент 60" x1="181.62" y1="26.26" x2="92.93" y2="120.17" gradientUnits="userSpaceOnUse">
      <stop offset=".16" stop-color="#606bad"/>
      <stop offset=".19" stop-color="#636dae"/>
      <stop offset=".4" stop-color="#757bb7"/>
      <stop offset=".62" stop-color="#7f84bd"/>
      <stop offset=".89" stop-color="#8387bf"/>
    </linearGradient>
    <linearGradient id="_Безымянный_градиент_44" data-name="Безымянный градиент 44" x1="153.1" y1="163.08" x2="-6.09" y2="5.73" gradientUnits="userSpaceOnUse">
      <stop offset="0" stop-color="#e6e6ff"/>
      <stop offset=".4" stop-color="#e4e4fd"/>
      <stop offset=".55" stop-color="#ddddf9"/>
      <stop offset=".67" stop-color="#d0d2f2"/>
      <stop offset=".76" stop-color="#bfc2e7"/>
      <stop offset=".84" stop-color="#a9aed9"/>
      <stop offset=".91" stop-color="#8d94c8"/>
      <stop offset=".98" stop-color="#6c76b4"/>
      <stop offset="1" stop-color="#606bad"/>
    </linearGradient>
    <linearGradient id="_Безымянный_градиент_47" data-name="Безымянный градиент 47" x1="27.92" y1="141.81" x2="110.95" y2="141.81" gradientUnits="userSpaceOnUse">
      <stop offset="0" stop-color="#8387bf"/>
      <stop offset=".55" stop-color="#7179b6"/>
      <stop offset="1" stop-color="#606bad"/>
    </linearGradient>
  </defs>
  <path d="M195.35,72.59c0,15.76-6.48,29.99-16.97,40.21-.44-3.52-2.09-6.87-4.89-9.39l-55.64-50.2-28.78,27.3c-1.43,1.32-3.02,2.31-4.72,2.86-4.89,1.81-10.6.66-14.39-3.41-2.47-2.64-3.73-5.99-3.73-9.34,0-3.57,1.43-7.14,4.23-9.78l27.41-25.92.55-.55,1.81-1.76,2.69-2.53c9.78-8.46,22.52-13.51,36.42-13.51,30.92,0,56.02,25.1,56.02,56.02Z" fill="url(#_Безымянный_градиент_60)"/>
  <path d="M174.59,124.77c-3.95,4.39-9.89,5.88-15.21,4.39,1.92,4.94,1.1,10.71-2.69,14.94-5.05,5.6-13.46,6.26-19.33,1.81,3.13,5.33,2.64,12.3-1.76,17.19-4.28,4.72-10.99,5.99-16.59,3.63.82,4.01-.22,8.4-3.19,11.7l-.49.49c-4.23,4.78-11.15,5.82-16.53,2.86-.38-.16-.71-.38-1.1-.66,2.91-.99,5.82-2.86,8.18-5.49,5.66-6.21,6.65-14.61,2.64-19.44-.33-.33-.6-.66-.99-.99-.16-.16-.22-.22-.58-.44-.09-.09-.14-.11-.14-.11-2.97-2.25-7.03-2.58-10.99-1.37.88-2.47,1.21-4.94,1.04-7.14-.33-3.02-1.54-5.6-3.68-7.47-2.09-1.87-4.83-2.75-7.91-2.75-2.86,0-5.88.82-8.79,2.36.93-3.9.66-7.74-.71-10.77-.93-2.09-2.36-3.79-4.28-5.05-.88-.55-1.76-.93-2.69-1.21-3.35-1.1-7.2-.55-10.77,1.21,1.32-3.3,1.76-6.7,1.37-9.67-.38-3.95-2.2-7.42-5.33-9.34-2.09-1.32-4.39-1.87-6.92-1.76-5.44.22-11.42,3.84-15.38,9.89-1.59,2.36-2.64,4.89-3.24,7.36l-1.21-1.1-8.73-7.85c-.88-1.04-1.76-2.03-2.53-3.08-.49-.71-1.04-1.37-1.54-2.14-.05-.05-.11-.16-.16-.22-6.15-9.01-9.72-19.88-9.72-31.64,0-31.09,25.21-56.3,56.3-56.3,15.27,0,29.11,6.04,39.22,15.93-.6.6-1.21,1.21-1.76,1.81l-.55.55-27.41,25.92c-2.8,2.64-4.23,6.21-4.23,9.78,0,3.35,1.26,6.7,3.73,9.34,3.79,4.06,9.5,5.22,14.39,3.41,1.7-.55,3.3-1.54,4.72-2.86l28.78-27.3,55.64,50.2c2.8,2.53,4.45,5.88,4.89,9.39.49,4.17-.71,8.57-3.79,11.97Z" fill="url(#_Безымянный_градиент_44)"/>
  <path d="M119.41,168.37c-.37,0-.73-.12-1.05-.35l-8.96-6.72c-.77-.58-.93-1.67-.35-2.44.59-.77,1.68-.91,2.44-.35l8.96,6.72c.77.58.93,1.67.35,2.44-.34.46-.86.69-1.39.69Z" fill="#4a5399"/>
  <path d="M139.5,149.04c-.41,0-.82-.14-1.14-.43l-41.23-35.99c-.72-.63-.8-1.73-.17-2.46.64-.73,1.74-.79,2.46-.17l41.22,35.99c.73.63.8,1.73.17,2.46-.35.39-.83.6-1.31.6Z" fill="#4a5399"/>
  <path d="M159.37,130.9c-.41,0-.82-.14-1.14-.43l-42.13-36.82c-.73-.63-.8-1.73-.17-2.46.65-.73,1.74-.79,2.46-.17l42.13,36.82c.73.63.8,1.73.17,2.46-.35.39-.83.6-1.31.6Z" fill="#4a5399"/>
  <path d="M108.5,156.18c-.32-.33-.6-.65-.97-.98-.12-.14-.08-.07-.74-.56-2.97-2.26-6.98-2.6-10.98-1.35.89-2.48,1.26-4.96,1.04-7.19-.33-2.97-1.5-5.58-3.64-7.45-2.1-1.87-4.86-2.74-7.9-2.74h-.05c-2.84,0-5.87.82-8.77,2.37.91-3.88.64-7.72-.73-10.79-.91-2.06-2.33-3.8-4.25-5.03-.87-.55-1.78-.96-2.7-1.19-3.34-1.1-7.18-.59-10.79,1.19,1.33-3.29,1.78-6.68,1.42-9.7-.41-3.93-2.24-7.36-5.35-9.33-2.06-1.33-4.39-1.87-6.91-1.74-5.44.23-11.43,3.84-15.41,9.88-2.2,3.34-3.43,6.95-3.75,10.38-.55,5.53,1.28,10.52,5.35,13.13,3.02,1.92,6.72,2.24,10.43,1.14,1.01-.27,2.01-.69,3.02-1.23-.41,1.01-.73,2.06-.96,3.06-1.6,6.59.09,12.99,4.94,16.1,3.73,2.36,8.5,2.28,13,.16,0,.05-.03.1-.03.16-.98,4.8.09,9.33,3.36,12.21,3.22,2.84,7.94,3.38,12.71,2.01.93-.26,1.85-.61,2.78-1.04-.26,1-.42,2.01-.46,2.97-.09,3.4,1.07,6.53,3.48,8.72,2.5,2.24,5.89,2.98,9.46,2.42,3.76-.61,7.7-2.75,10.81-6.15,5.61-6.2,6.63-14.59,2.6-19.44Z" fill="url(#_Безымянный_градиент_47)"/>
</svg>