<?xml version="1.0" encoding="UTF-8"?>
<svg id="_Слой_1" data-name="Слой 1" xmlns="http://www.w3.org/2000/svg" viewBox="0 0 200 200">
  <path d="M191.3,73.76c0,15.09-6.21,28.71-16.25,38.5-.42-3.37-2-6.57-4.68-8.99l-53.27-48.07-27.56,26.14c-1.37,1.26-2.89,2.21-4.52,2.73-4.68,1.74-10.15.63-13.78-3.26-2.37-2.52-3.58-5.73-3.58-8.94,0-3.42,1.37-6.84,4.05-9.36l26.24-24.82.53-.53,1.74-1.68,2.58-2.42c9.36-8.1,21.56-12.94,34.87-12.94,29.61,0,53.64,24.03,53.64,53.64Z" fill="#c1c4d7"/>
  <path d="M108.14,153.8c-.31-.31-.58-.62-.93-.94-.12-.14-.07-.06-.71-.54-2.84-2.16-6.68-2.49-10.52-1.29.85-2.38,1.2-4.74,1-6.88-.31-2.85-1.43-5.34-3.49-7.14-2.01-1.8-4.65-2.63-7.56-2.63h-.04c-2.72,0-5.62.79-8.39,2.27.87-3.72.61-7.4-.7-10.33-.88-1.97-2.23-3.63-4.07-4.82-.83-.53-1.71-.92-2.58-1.14-3.2-1.05-6.87-.57-10.33,1.14,1.27-3.15,1.71-6.39,1.36-9.28-.39-3.77-2.15-7.05-5.12-8.93-1.97-1.27-4.2-1.8-6.61-1.66-5.21.22-10.95,3.68-14.76,9.46-2.1,3.2-3.28,6.66-3.59,9.94-.53,5.3,1.23,10.07,5.12,12.57,2.89,1.84,6.44,2.15,9.98,1.09.96-.26,1.93-.66,2.89-1.18-.39.96-.7,1.97-.92,2.93-1.53,6.31.09,12.44,4.73,15.41,3.57,2.26,8.14,2.18,12.45.16,0,.05-.03.1-.03.15-.94,4.6.09,8.93,3.22,11.69,3.09,2.71,7.61,3.24,12.17,1.93.89-.25,1.78-.59,2.66-.99-.25.96-.4,1.92-.44,2.84-.09,3.26,1.02,6.25,3.33,8.35,2.4,2.14,5.64,2.86,9.06,2.32,3.6-.58,7.37-2.63,10.35-5.89,5.37-5.94,6.35-13.97,2.49-18.61Z" fill="#c1c4d7"/>
  <path d="M99.55,38.27l-2.22-2.15c.54-.6,1.14-1.2,1.73-1.79.88-.88,1.81-1.7,2.75-2.47l2.04,2.32-4.3,4.09Z" fill="#646899"/>
  <path d="M173.9,115.52l-.39-3.08c-.39-3.1-1.87-5.96-4.17-8.04l-52.22-47.11-26.52,25.15c-1.59,1.47-3.31,2.5-5.11,3.08-5.37,2-11.43.56-15.39-3.68-2.57-2.75-3.99-6.3-3.99-9.99,0-3.95,1.66-7.77,4.54-10.49l31.08-29.45c9.97-8.63,22.72-13.36,35.92-13.36,30.43,0,55.18,24.76,55.18,55.19,0,15.04-5.94,29.1-16.71,39.6l-2.22,2.16ZM117.06,53.09l54.34,49.02c2.11,1.91,3.67,4.33,4.53,7.02,8.93-9.66,13.82-22.12,13.82-35.38,0-28.73-23.37-52.1-52.1-52.1-12.47,0-24.49,4.46-33.85,12.56l-31.03,29.41c-2.27,2.13-3.57,5.14-3.57,8.24,0,2.91,1.12,5.71,3.16,7.89,3.1,3.33,7.85,4.45,12.12,2.87,1.44-.47,2.77-1.27,4.01-2.42l28.57-27.11Z" fill="#646899"/>
  <path d="M105.02,181.43c-2.37,0-4.75-.57-6.92-1.77-.36-.15-.76-.41-1.21-.73l-2.44-1.75,2.84-.96c2.65-.9,5.2-2.61,7.18-4.82,4.78-5.24,5.87-12.53,2.49-16.61l-.24-.24c-.16-.17-.32-.35-.52-.52l-.61-.47c-2.31-1.75-5.62-2.14-9.14-1.07l-2.94.89,1.03-2.89c.75-2.09,1.06-4.24.91-6.2-.28-2.54-1.29-4.61-3-6.1-3.2-2.86-8.84-3.02-14.25-.16l-3.02,1.59.79-3.32c.81-3.39.6-6.69-.59-9.31-.78-1.75-1.97-3.16-3.54-4.19-.66-.41-1.38-.74-2.17-.97-2.73-.89-5.98-.52-9.19,1.06l-3.61,1.78,1.49-3.74c1.13-2.82,1.56-5.84,1.22-8.49-.35-3.54-1.9-6.3-4.38-7.82-1.71-1.08-3.58-1.54-5.75-1.46-4.92.2-10.09,3.56-13.51,8.77-1.34,2-2.31,4.2-2.89,6.57l-.62,2.52-12.19-11.19c-.65-.77-1.29-1.52-1.87-2.3l-.61-.84c-.31-.42-.63-.84-.92-1.3-6.4-9.35-9.71-20.12-9.71-31.33,0-30.58,24.87-55.45,55.45-55.45,14.57,0,28.29,5.57,38.63,15.69l1.12,1.09-1.11,1.11c-.56.56-1.12,1.12-1.63,1.68l-.58.58-26.27,24.85c-2.27,2.13-3.57,5.14-3.57,8.24,0,2.91,1.12,5.71,3.16,7.89,3.1,3.33,7.85,4.45,12.12,2.87,1.44-.47,2.77-1.27,4.01-2.42l28.57-27.11,54.34,49.02c2.86,2.58,4.7,6.11,5.18,9.95.55,4.63-.92,9.25-4.02,12.69h0c-3.46,3.85-8.5,5.71-13.52,5.17.96,4.74-.33,9.67-3.62,13.35-4.32,4.78-10.9,6.26-16.63,4.12,1.19,4.9-.05,10.16-3.58,14.08-3.86,4.26-9.74,5.97-15.22,4.65.09,3.65-1.22,7.26-3.71,10.02l-.54.54c-2.74,3.1-6.71,4.76-10.74,4.76ZM101.41,177.74c4.32,1.43,9.1.21,12.1-3.19l.55-.55c2.34-2.61,3.34-6.29,2.62-9.79l-.59-2.87,2.7,1.14c4.93,2.07,10.6.84,14.14-3.09,3.66-4.06,4.26-9.95,1.49-14.64l-3.95-6.72,6.22,4.7c5.11,3.86,12.18,3.19,16.44-1.54,3.11-3.46,3.99-8.34,2.29-12.71l-1.11-2.87,2.97.82c4.77,1.32,9.73-.13,13-3.75h0c2.51-2.77,3.69-6.51,3.24-10.25-.39-3.09-1.87-5.95-4.17-8.03l-52.22-47.11-26.52,25.15c-1.59,1.47-3.31,2.5-5.11,3.08-5.37,2-11.43.56-15.39-3.68-2.57-2.75-3.99-6.3-3.99-9.99,0-3.95,1.66-7.77,4.54-10.49l26.73-25.31c.18-.2.37-.4.57-.61-9.62-8.87-22.11-13.74-35.34-13.74-28.87,0-52.36,23.49-52.36,52.36,0,10.59,3.13,20.76,9.04,29.42.44.64.71,1.01.97,1.36.22.3.44.59.65.89.51.68,1.1,1.38,1.71,2.09l.62.74,7.56,6.78c.66-1.82,1.52-3.54,2.6-5.13,3.94-6.01,10.05-9.91,15.95-10.15,2.76-.13,5.3.53,7.51,1.92,3.26,2,5.38,5.68,5.82,10.09.27,2.13.13,4.48-.42,6.81,2.92-.84,5.8-.86,8.36-.03,1.02.3,1.98.74,2.91,1.32,2.1,1.38,3.67,3.23,4.69,5.52,1.11,2.44,1.54,5.33,1.26,8.35,5.72-2.12,11.48-1.38,15.03,1.8,2.26,1.97,3.66,4.79,4.03,8.14.12,1.61,0,3.28-.35,4.94,3.44-.45,6.64.23,9.11,2.02l.43.34c.17.06.32.2.55.42.23.19.46.44.7.69l.27.28c4.51,5.43,3.4,14.3-2.48,20.75-1.53,1.72-3.37,3.18-5.35,4.28Z" fill="#646899"/>
  <path d="M99.55,38.27l-2.22-2.15c.54-.6,1.14-1.2,1.73-1.79l.45-.45h2.18l.05,2.25-2.2,2.14Z" fill="#646899"/>
  <path d="M118.59,165.35c-.32,0-.65-.1-.92-.31l-8.58-6.43c-.68-.51-.82-1.48-.31-2.16.51-.68,1.48-.82,2.16-.31l8.58,6.43c.68.51.82,1.48.31,2.16-.3.41-.76.62-1.23.62Z" fill="#646899"/>
  <path d="M137.82,146.84c-.36,0-.72-.13-1.02-.38l-39.47-34.46c-.64-.56-.71-1.53-.15-2.18.56-.65,1.54-.71,2.18-.15l39.48,34.46c.64.56.7,1.53.15,2.18-.31.35-.74.53-1.17.53Z" fill="#646899"/>
  <path d="M156.85,129.47c-.36,0-.72-.13-1.02-.38l-40.34-35.25c-.64-.56-.7-1.54-.14-2.18.56-.64,1.53-.7,2.18-.15l40.34,35.25c.64.56.7,1.54.14,2.18-.3.35-.73.53-1.16.53Z" fill="#646899"/>
  <path d="M93.18,180.01c-3.08,0-5.84-.99-7.96-2.88-2.59-2.35-3.95-5.74-3.85-9.54,0-.13.01-.27.02-.41-.09.03-.19.06-.29.08-5.28,1.51-10.25.7-13.6-2.25-2.89-2.55-4.31-6.33-4.05-10.62-4.11,1.24-8.16.83-11.4-1.23-5-3.2-7.12-9.86-5.42-16.99-.02,0-.03.01-.05.01-4.03,1.19-8.03.75-11.21-1.28-4.26-2.72-6.43-7.96-5.83-14.02.34-3.66,1.67-7.34,3.84-10.63,3.97-6.02,10.09-9.91,15.98-10.15,2.8-.17,5.31.49,7.51,1.91,3.24,2.05,5.37,5.73,5.82,10.07.27,2.19.12,4.52-.44,6.84,2.91-.84,5.8-.84,8.37,0,.9.22,1.92.67,2.92,1.3,2.07,1.33,3.63,3.18,4.66,5.5,1.1,2.46,1.53,5.35,1.27,8.37,5.71-2.14,11.5-1.38,15.05,1.79,2.24,1.96,3.63,4.77,3.99,8.12.15,1.56.04,3.25-.33,4.97,3.5-.51,6.76.24,9.25,2.14l.93.75c.14.1.37.35.6.59l.36.38c4.42,5.3,3.33,14.17-2.53,20.64-3.11,3.41-7.21,5.73-11.25,6.38-.8.13-1.6.19-2.37.19ZM85.66,162.04l-.81,3.13c-.22.87-.36,1.72-.39,2.53-.08,2.86.92,5.41,2.83,7.14,1.93,1.73,4.7,2.44,7.78,1.94,3.36-.54,6.8-2.51,9.45-5.41,4.73-5.22,5.81-12.48,2.47-16.54l-.26-.27c-.17-.18-.34-.36-.54-.54l-.61-.46c-2.36-1.8-5.61-2.17-9.13-1.06l-2.96.92,1.04-2.92c.78-2.19,1.1-4.34.91-6.21-.28-2.59-1.28-4.65-2.97-6.12-3.22-2.88-9.02-2.96-14.26-.16l-3.01,1.61.78-3.32c.8-3.38.58-6.7-.61-9.34-.78-1.77-1.96-3.16-3.49-4.15-.71-.45-1.43-.77-2.12-.94-2.83-.93-6.09-.55-9.28,1.02l-3.63,1.79,1.51-3.75c1.15-2.86,1.58-5.81,1.26-8.52-.36-3.48-1.93-6.24-4.41-7.82-1.66-1.07-3.59-1.53-5.71-1.43-4.94.21-10.12,3.56-13.55,8.77-1.89,2.87-3.05,6.07-3.34,9.23-.49,4.89,1.17,9.04,4.42,11.12,2.42,1.54,5.51,1.86,8.71.91.87-.23,1.73-.59,2.59-1.06l3.8-2.08-1.63,4.01c-.36.89-.64,1.81-.84,2.69-1.43,5.88.17,11.28,4.06,13.77,3,1.91,7,1.93,10.96.06l2.56-1.2-.37,2.8c-.9,4.47.09,8.19,2.68,10.48,2.55,2.25,6.46,2.82,10.72,1.6.82-.23,1.64-.54,2.45-.91l2.94-1.34Z" fill="#646899"/>
</svg>