<svg width="200" height="200" viewBox="0 0 200 200" fill="none" xmlns="http://www.w3.org/2000/svg">
<path fill-rule="evenodd" clip-rule="evenodd" d="M114.25 50.918C114.25 58.7881 107.87 65.168 100 65.168C92.13 65.168 85.7502 58.7881 85.7502 50.918C85.7502 43.0479 92.13 36.668 100 36.668C107.87 36.668 114.25 43.0479 114.25 50.918ZM119 131.668H104.004L106.359 157.575C106.666 160.947 109.571 163.482 112.954 163.328C116.337 163.175 119 160.387 119 157.001V131.668ZM95.9959 131.668H81.0002V157.001C81.0002 160.387 83.664 163.175 87.0466 163.328C90.4292 163.482 93.3343 160.947 93.6409 157.575L95.9959 131.668ZM137.859 68.3346H138.147C138.051 68.3324 137.956 68.3324 137.859 68.3346ZM61.8545 68.3346C61.9492 68.3324 62.0439 68.3324 62.1389 68.3346H61.8545Z" fill="#5C619D"/>
<path fill-rule="evenodd" clip-rule="evenodd" d="M58.8337 71.5C57.0847 71.5 55.667 72.9177 55.667 74.6667V122.167C55.667 123.916 57.0847 125.333 58.8337 125.333H141.167C142.916 125.333 144.334 123.916 144.334 122.167V74.6667C144.334 72.9177 142.916 71.5 141.167 71.5H58.8337ZM96.8337 77.8333V82.5833H95.2503C92.3025 82.5833 89.1041 83.5359 86.8454 84.3573C85.6727 84.7835 84.6632 85.2088 83.9447 85.528C83.5843 85.6882 83.2946 85.8232 83.0906 85.9197C82.9887 85.9682 82.9082 86.0071 82.8509 86.035L82.7828 86.0686L82.7623 86.0787L82.7553 86.0822L82.7518 86.0838C82.7512 86.0841 82.7509 86.0844 84.167 88.9167C85.5831 91.7489 85.5828 91.7493 85.5825 91.7493L85.5879 91.7467L85.6278 91.7271C85.6655 91.7087 85.7256 91.6796 85.8061 91.6416C85.9672 91.565 86.2092 91.4522 86.517 91.3157C87.1342 91.0412 88.005 90.6748 89.0095 90.3094C91.1048 89.5475 93.4482 88.9167 95.2503 88.9167H96.8337V95.25H94.3003C90.5089 95.25 86.5309 97.2634 83.8715 98.8752C82.4608 99.7302 81.2499 100.58 80.392 101.216C79.9613 101.535 79.6155 101.803 79.3736 101.994C79.2523 102.09 79.157 102.167 79.0896 102.222L79.0094 102.287L78.9857 102.307L78.9781 102.313L78.9752 102.315C78.9746 102.316 78.973 102.317 81.0003 104.75C83.0276 107.183 83.0273 107.183 83.0267 107.183L83.0352 107.177L83.0846 107.136C83.1315 107.098 83.2046 107.039 83.3025 106.962C83.4982 106.807 83.7908 106.58 84.1619 106.305C84.907 105.753 85.9524 105.02 87.1541 104.291C89.7197 102.737 92.3918 101.583 94.3003 101.583H96.8337V108.448C94.6126 109.073 92.4801 110.166 90.7518 111.405C89.4857 112.313 88.3109 113.387 87.4211 114.569C86.5708 115.698 85.7503 117.234 85.7503 119H92.0837C92.0837 119.014 92.0833 119.025 92.083 119.035C92.0827 119.043 92.0821 119.049 92.0821 119.054C92.0814 119.061 92.0814 119.065 92.0818 119.065C92.0821 119.065 92.0833 119.061 92.0859 119.054C92.1023 119.005 92.1777 118.781 92.4801 118.379C92.8931 117.831 93.5584 117.186 94.4425 116.552C96.2168 115.28 98.378 114.397 100.102 114.251C101.564 114.287 103.635 115.088 105.461 116.415C106.356 117.066 107.049 117.744 107.487 118.327C107.807 118.754 107.892 118.996 107.913 119.055L107.915 119.063C107.917 119.067 107.918 119.069 107.919 119.069C107.92 119.069 107.917 119.046 107.917 119H114.25C114.25 117.22 113.403 115.66 112.553 114.527C111.655 113.329 110.467 112.225 109.186 111.293C107.497 110.065 105.38 108.948 103.167 108.357V101.583H106.65C109.022 101.583 111.459 102.743 113.5 104.176C114.483 104.865 115.291 105.559 115.849 106.079C116.127 106.337 116.338 106.548 116.475 106.689C116.543 106.759 116.593 106.811 116.622 106.842L116.648 106.87C116.647 106.869 116.647 106.868 119 104.75C121.354 102.631 121.353 102.631 121.353 102.63L121.348 102.625L121.34 102.616L121.318 102.592L121.248 102.516C121.19 102.454 121.11 102.37 121.01 102.267C120.809 102.061 120.523 101.777 120.162 101.442C119.445 100.774 118.411 99.8847 117.138 98.9911C114.666 97.2567 110.929 95.25 106.65 95.25H103.167V88.9167H105.542C107.741 88.9167 109.878 89.5535 111.537 90.2517C112.351 90.5947 113.013 90.9364 113.462 91.1868C113.685 91.3119 113.854 91.4126 113.959 91.4776C114.012 91.5099 114.049 91.5333 114.069 91.5463L114.078 91.5523C114.078 91.552 114.077 91.5516 115.834 88.9167C117.59 86.2817 117.59 86.2814 117.589 86.2807L117.584 86.2776L117.576 86.2722L117.554 86.2579L117.489 86.2161C117.437 86.1826 117.366 86.1379 117.278 86.0838C117.103 85.9755 116.856 85.8288 116.548 85.6569C115.933 85.3136 115.061 84.8636 113.995 84.4149C111.893 83.5298 108.885 82.5833 105.542 82.5833H103.17L103.167 77.8333H96.8337Z" fill="#5C619D"/>
</svg>
