<svg width="200" height="200" viewBox="0 0 200 200" fill="none" xmlns="http://www.w3.org/2000/svg">
<path fill-rule="evenodd" clip-rule="evenodd" d="M99.0661 58.9734C99.6728 58.7869 100.322 58.7869 100.929 58.9734L142.095 71.64C143.424 72.0489 144.331 73.2766 144.331 74.6667V77.8334H147.497C156.242 77.8334 163.331 84.9223 163.331 93.6667V106.333C163.331 115.078 156.242 122.167 147.497 122.167H139.719C136.165 127.627 130.757 131.849 124.212 133.863L100.929 141.027C100.322 141.213 99.6728 141.213 99.0661 141.027L75.7825 133.863C69.2377 131.849 63.8303 127.627 60.276 122.167H52.4974C43.7529 122.167 36.6641 115.078 36.6641 106.333V93.6667C36.6641 84.9223 43.7529 77.8334 52.4974 77.8334H55.6641V74.6667C55.6641 73.2766 56.5707 72.0489 57.8994 71.64L99.0661 58.9734ZM55.6641 106.623C55.6641 109.821 56.1973 112.925 57.1913 115.833H52.4974C47.2507 115.833 42.9974 111.58 42.9974 106.333V93.6667C42.9974 88.4199 47.2507 84.1667 52.4974 84.1667H55.6641V106.623ZM142.803 115.833H147.497C152.744 115.833 156.997 111.58 156.997 106.333V93.6667C156.997 88.4199 152.744 84.1667 147.497 84.1667H144.331V106.623C144.331 109.821 143.797 112.925 142.803 115.833ZM103.164 74.6667V125.333H96.8307V74.6667H103.164ZM128.497 106.333C128.497 109.831 125.662 112.667 122.164 112.667C118.666 112.667 115.831 109.831 115.831 106.333C115.831 102.836 118.666 100 122.164 100C125.662 100 128.497 102.836 128.497 106.333Z" fill="#5C619D"/>
</svg>
