<svg width="200" height="200" viewBox="0 0 200 200" fill="none" xmlns="http://www.w3.org/2000/svg">
<path fill-rule="evenodd" clip-rule="evenodd" d="M115.833 43V49.3333C115.833 53.4697 118.477 56.9888 122.167 58.2928V62H119C117.251 62 115.833 63.4177 115.833 65.1667V84.1667C115.833 85.9156 117.251 87.3333 119 87.3333H131.667C133.416 87.3333 134.833 85.9156 134.833 84.1667V65.1667C134.833 63.4177 133.416 62 131.667 62H128.5V58.8333H144.333V97.0436H87.6817C87.4236 97.0436 87.1756 96.94 86.9929 96.7561L85.8327 95.5882L86.9993 94.4226C91.6647 89.7612 91.6672 82.2011 87.0049 77.5366L81.3043 71.8331C76.6427 67.1689 69.0819 67.1664 64.4168 71.8274L62.1872 74.0552C57.9464 72.85 53.2016 73.9285 49.8623 77.2903C44.9348 82.2512 44.9348 90.3024 49.8623 95.2633L52.5 97.9189V131.667H43V138H52.66C50.6071 140.012 49.3333 142.816 49.3333 145.917C49.3333 152.038 54.2955 157 60.4167 157C66.5378 157 71.5 152.038 71.5 145.917C71.5 142.816 70.2264 140.012 68.1734 138H131.827C129.774 140.012 128.5 142.816 128.5 145.917C128.5 152.038 133.462 157 139.583 157C145.705 157 150.667 152.038 150.667 145.917C150.667 142.816 149.393 140.012 147.34 138H157V131.667H144.333V122.166H144.543C151.423 122.166 157 116.542 157 109.605C157 104.912 154.448 100.82 150.667 98.6634V58.8333C150.667 55.3355 147.831 52.5 144.333 52.5H125.333C123.584 52.5 122.167 51.0822 122.167 49.3333V43H115.833ZM67.7833 77.4166L81.3695 91.0947L82.5229 89.9424C84.7136 87.7536 84.7148 84.204 82.5257 82.014L76.8251 76.3105C74.6356 74.1198 71.0842 74.1185 68.8932 76.3076L67.7833 77.4166ZM138 131.667H58.8333V104.295L75.5381 121.113C76.2079 121.787 77.1155 122.166 78.062 122.166H138V131.667Z" fill="#5C619D"/>
</svg>
