<svg width="156" height="156" viewBox="0 0 156 156" fill="none" xmlns="http://www.w3.org/2000/svg">
<g opacity="0.25">
<rect width="156" height="156" rx="78" fill="white"/>
<path d="M78.0016 28.5972C50.7822 28.5972 28.6016 50.7778 28.6016 77.9972C28.6016 105.217 50.7822 127.397 78.0016 127.397C105.221 127.397 127.402 105.217 127.402 77.9972C127.402 50.7778 105.221 28.5972 78.0016 28.5972ZM99.4906 95.633C98.799 96.8186 97.564 97.4608 96.2796 97.4608C95.6374 97.4608 94.9952 97.3126 94.4024 96.9174L79.0884 87.7784C75.2846 85.506 72.4688 80.5166 72.4688 76.12V55.866C72.4688 53.8406 74.1484 52.161 76.1738 52.161C78.1992 52.161 79.8788 53.8406 79.8788 55.866V76.12C79.8788 77.8984 81.3608 80.5166 82.8922 81.4058L98.2062 90.5448C99.9846 91.5822 100.577 93.8546 99.4906 95.633Z" fill="#5C619D"/>
</g>
</svg>
