<?xml version="1.0" encoding="utf-8"?>
<!-- Generator: Adobe Illustrator 19.2.1, SVG Export Plug-In . SVG Version: 6.00 Build 0)  -->
<svg version="1.1" id="Слой_1" xmlns="http://www.w3.org/2000/svg" xmlns:xlink="http://www.w3.org/1999/xlink" x="0px" y="0px"
	 viewBox="0 0 18 18" style="enable-background:new 0 0 18 18;" xml:space="preserve">
<style type="text/css">
	.st0{fill:#5C619D;}
</style>
<path d="M9,17.2c-4.5,0-8.2-3.7-8.2-8.2S4.5,0.8,9,0.8s8.2,3.7,8.2,8.2S13.5,17.2,9,17.2z M9,2.2C5.2,2.2,2.2,5.2,2.2,9c0,3.8,3.1,6.8,6.8,6.8c3.8,0,6.8-3.1,6.8-6.8C15.8,5.2,12.8,2.2,9,2.2z"/>
<path d="M11.2,12.7c-0.1,0-0.2,0-0.3-0.1l-3-1.5c-0.2-0.1-0.4-0.3-0.4-0.6V6c0-0.4,0.3-0.7,0.7-0.7S8.9,5.6,8.9,6v4.1l2.6,1.3c0.3,0.2,0.5,0.6,0.3,0.9C11.7,12.5,11.5,12.7,11.2,12.7z"/>
</svg>
