<svg width="20" height="20" viewBox="0 0 20 20" fill="none" xmlns="http://www.w3.org/2000/svg">
<path d="M9.9974 1.66699C5.40573 1.66699 1.66406 5.40866 1.66406 10.0003C1.66406 14.592 5.40573 18.3337 9.9974 18.3337C14.5891 18.3337 18.3307 14.592 18.3307 10.0003C18.3307 5.40866 14.5891 1.66699 9.9974 1.66699ZM12.7974 11.917C13.0391 12.1587 13.0391 12.5587 12.7974 12.8003C12.6724 12.9253 12.5141 12.9837 12.3557 12.9837C12.1974 12.9837 12.0391 12.9253 11.9141 12.8003L9.9974 10.8837L8.08073 12.8003C7.95573 12.9253 7.7974 12.9837 7.63906 12.9837C7.48073 12.9837 7.3224 12.9253 7.1974 12.8003C6.95573 12.5587 6.95573 12.1587 7.1974 11.917L9.11406 10.0003L7.1974 8.08366C6.95573 7.84199 6.95573 7.44199 7.1974 7.20033C7.43906 6.95866 7.83906 6.95866 8.08073 7.20033L9.9974 9.11699L11.9141 7.20033C12.1557 6.95866 12.5557 6.95866 12.7974 7.20033C13.0391 7.44199 13.0391 7.84199 12.7974 8.08366L10.8807 10.0003L12.7974 11.917Z"/>
</svg>
