<?xml version="1.0" encoding="utf-8"?>
<!-- Generator: Adobe Illustrator 19.2.1, SVG Export Plug-In . SVG Version: 6.00 Build 0)  -->
<svg version="1.1" id="Слой_1" xmlns="http://www.w3.org/2000/svg" xmlns:xlink="http://www.w3.org/1999/xlink" x="0px" y="0px"
	 viewBox="0 0 24 24" style="enable-background:new 0 0 24 24;" xml:space="preserve">
<style type="text/css">
	.st0{fill:#5C619D;}
</style>
<path d="M4,21c-0.3,0-0.5-0.1-0.7-0.3c-0.4-0.4-0.4-1,0-1.4l16-16c0.4-0.4,1-0.4,1.4,0s0.4,1,0,1.4l-16,16C4.5,20.9,4.3,21,4,21z"/>
<path d="M20,21c-0.3,0-0.5-0.1-0.7-0.3l-16-16c-0.4-0.4-0.4-1,0-1.4s1-0.4,1.4,0l16,16c0.4,0.4,0.4,1,0,1.4C20.5,20.9,20.3,21,20,21z"/>
</svg>
