<svg width="18" height="18" viewBox="0 0 18 18" fill="none" xmlns="http://www.w3.org/2000/svg">
<path d="M9.00008 0.666626C4.40841 0.666626 0.666748 4.40829 0.666748 8.99996C0.666748 13.5916 4.40841 17.3333 9.00008 17.3333C13.5917 17.3333 17.3334 13.5916 17.3334 8.99996C17.3334 4.40829 13.5917 0.666626 9.00008 0.666626ZM11.8001 10.9166C12.0417 11.1583 12.0417 11.5583 11.8001 11.8C11.6751 11.925 11.5167 11.9833 11.3584 11.9833C11.2001 11.9833 11.0417 11.925 10.9167 11.8L9.00008 9.88329L7.08341 11.8C6.95841 11.925 6.80008 11.9833 6.64175 11.9833C6.48341 11.9833 6.32508 11.925 6.20008 11.8C5.95842 11.5583 5.95842 11.1583 6.20008 10.9166L8.11675 8.99996L6.20008 7.08329C5.95842 6.84163 5.95842 6.44163 6.20008 6.19996C6.44175 5.95829 6.84175 5.95829 7.08341 6.19996L9.00008 8.11663L10.9167 6.19996C11.1584 5.95829 11.5584 5.95829 11.8001 6.19996C12.0417 6.44163 12.0417 6.84163 11.8001 7.08329L9.88342 8.99996L11.8001 10.9166Z"/>
</svg>
