<svg width="20" height="20" viewBox="0 0 20 20" fill="none" xmlns="http://www.w3.org/2000/svg">
<path d="M13.3327 3.54199C13.3327 4.57533 12.491 5.41699 11.4577 5.41699H8.54102C8.02435 5.41699 7.55768 5.20866 7.21602 4.86699C6.87435 4.52533 6.66602 4.05866 6.66602 3.54199C6.66602 2.50866 7.50768 1.66699 8.54102 1.66699H11.4577C11.9743 1.66699 12.441 1.87533 12.7827 2.21699C13.1243 2.55866 13.3327 3.02533 13.3327 3.54199Z"/>
<path d="M15.6923 4.19127C15.5007 4.03294 15.284 3.90794 15.0507 3.81627C14.809 3.7246 14.5673 3.91627 14.5173 4.16627C14.234 5.59127 12.9757 6.66627 11.459 6.66627H8.54232C7.70898 6.66627 6.92565 6.34127 6.33398 5.7496C5.90065 5.31627 5.60065 4.76627 5.48398 4.1746C5.43398 3.9246 5.18398 3.7246 4.94232 3.8246C3.97565 4.21627 3.33398 5.0996 3.33398 6.8746V14.9996C3.33398 17.4996 4.82565 18.3329 6.66732 18.3329H13.334C15.1757 18.3329 16.6673 17.4996 16.6673 14.9996V6.8746C16.6673 5.51627 16.2923 4.68294 15.6923 4.19127ZM6.66732 10.2079H10.0007C10.3423 10.2079 10.6257 10.4913 10.6257 10.8329C10.6257 11.1746 10.3423 11.4579 10.0007 11.4579H6.66732C6.32565 11.4579 6.04232 11.1746 6.04232 10.8329C6.04232 10.4913 6.32565 10.2079 6.66732 10.2079ZM13.334 14.7913H6.66732C6.32565 14.7913 6.04232 14.5079 6.04232 14.1663C6.04232 13.8246 6.32565 13.5413 6.66732 13.5413H13.334C13.6757 13.5413 13.959 13.8246 13.959 14.1663C13.959 14.5079 13.6757 14.7913 13.334 14.7913Z"/>
</svg>
