<?xml version="1.0" encoding="utf-8"?>
<!-- Generator: Adobe Illustrator 19.2.1, SVG Export Plug-In . SVG Version: 6.00 Build 0)  -->
<svg version="1.1" id="Слой_1" xmlns="http://www.w3.org/2000/svg" xmlns:xlink="http://www.w3.org/1999/xlink" x="0px" y="0px"
	 viewBox="0 0 28 28" style="enable-background:new 0 0 28 28;" xml:space="preserve">
<style type="text/css">
	.st0{fill:#2C3036;}
	.st1{fill:#FFFFFF;}
</style>
<path d="M16.4,16.4c-2,2-2.1,4.6-2.3,10.1c5.2,0,8.7,0,10.6-1.8c1.8-1.8,1.8-5.6,1.8-10.6C21,14.3,18.4,14.4,16.4,16.4 M1.5,14.1c0,5,0,8.7,1.8,10.6c1.8,1.8,5.4,1.8,10.6,1.8c-0.2-5.5-0.3-8.1-2.3-10.1C9.6,14.4,7,14.3,1.5,14.1 M13.9,1.5c-5.2,0-8.7,0-10.6,1.8C1.5,5.1,1.5,8.9,1.5,13.9c5.5-0.2,8.1-0.3,10.1-2.3C13.6,9.6,13.7,7,13.9,1.5 M16.4,11.6c-2-2-2.1-4.6-2.3-10.1c5.2,0,8.7,0,10.6,1.8c1.8,1.8,1.8,5.6,1.8,10.6C21,13.7,18.4,13.6,16.4,11.6"/>
<path fill="#fff" d="M26.5,14.1v-0.3c-5.5-0.2-8.1-0.3-10.1-2.3c-2-2-2.1-4.6-2.3-10.1h-0.3c-0.2,5.5-0.3,8.1-2.3,10.1c-2,2-4.6,2.1-10.1,2.3v0.3c5.5,0.2,8.1,0.3,10.1,2.3c2,2,2.1,4.6,2.3,10.1h0.3c0.2-5.5,0.3-8.1,2.3-10.1C18.4,14.4,21,14.3,26.5,14.1"/>
</svg>
