<?xml version="1.0" encoding="utf-8"?>
<!-- Generator: Adobe Illustrator 19.2.1, SVG Export Plug-In . SVG Version: 6.00 Build 0)  -->
<svg version="1.1" id="Слой_1" xmlns="http://www.w3.org/2000/svg" xmlns:xlink="http://www.w3.org/1999/xlink" x="0px" y="0px"
	 viewBox="0 0 24 24" style="enable-background:new 0 0 24 24;" xml:space="preserve">
<style type="text/css">
	.st0{fill:#5C619D;}
	.st1{fill:#FFFFFF;}
</style>
<path d="M17,20.5H7c-3,0-5-1.5-5-5v-7c0-3.5,2-5,5-5h10c3,0,5,1.5,5,5v7C22,19,20,20.5,17,20.5z"/>
<path fill="#FFFFFF" d="M12,12.9c-0.8,0-1.7-0.3-2.3-0.8L3,6.6C2.7,6.3,2.7,5.8,2.9,5.5C3.2,5.2,3.7,5.2,4,5.4l6.6,5.5c0.8,0.6,2,0.6,2.8,0L19.5,5c0.3-0.3,0.8-0.3,1.1,0c0.3,0.3,0.3,0.8,0,1.1l-6.1,6C13.7,12.6,12.8,12.9,12,12.9z"/>
</svg>
