<?xml version="1.0" encoding="utf-8"?>
<!-- Generator: Adobe Illustrator 19.2.1, SVG Export Plug-In . SVG Version: 6.00 Build 0)  -->
<svg version="1.1" id="Слой_1" xmlns="http://www.w3.org/2000/svg" xmlns:xlink="http://www.w3.org/1999/xlink" x="0px" y="0px"
	 viewBox="0 0 24 24" style="enable-background:new 0 0 24 24;" xml:space="preserve">
<style type="text/css">
	.st0{fill:#292D32;}
	.st1{fill:#FFFFFF;}
</style>
<path d="M12,20.3c3.5,0,6.8-2.1,9.1-5.7c0.9-1.4,0.9-3.8,0-5.2c-2.3-3.6-5.6-5.7-9.1-5.7c-3.5,0-6.8,2.1-9.1,5.7c-0.9,1.4-0.9,3.8,0,5.2C5.2,18.2,8.5,20.3,12,20.3z"/>
<path fill="#FFFFFF" d="M12,16.3c-2.4,0-4.3-1.9-4.3-4.3S9.6,7.7,12,7.7s4.3,1.9,4.3,4.3S14.4,16.3,12,16.3z M12,9.2c-1.6,0-2.8,1.3-2.8,2.8s1.3,2.8,2.8,2.8s2.8-1.3,2.8-2.8S13.6,9.2,12,9.2z"/>
</svg>
