<?xml version="1.0" encoding="utf-8"?>
<!-- Generator: Adobe Illustrator 19.2.1, SVG Export Plug-In . SVG Version: 6.00 Build 0)  -->
<svg version="1.1" id="Слой_1" xmlns="http://www.w3.org/2000/svg" xmlns:xlink="http://www.w3.org/1999/xlink" x="0px" y="0px"
	 viewBox="0 0 24 24" style="enable-background:new 0 0 24 24;" xml:space="preserve">
<style type="text/css">
	.st0{fill:#FFFFFF;}
</style>
<path d="M19,22.8c-0.4,0-0.8-0.3-0.8-0.8V11c0-0.4,0.3-0.8,0.8-0.8s0.8,0.3,0.8,0.8v11C19.8,22.4,19.4,22.8,19,22.8z"/>
<path d="M19,7.8c-0.4,0-0.8-0.3-0.8-0.8V2c0-0.4,0.3-0.8,0.8-0.8s0.8,0.3,0.8,0.8v5C19.8,7.4,19.4,7.8,19,7.8z"/>
<path d="M12,22.8c-0.4,0-0.8-0.3-0.8-0.8v-5c0-0.4,0.3-0.8,0.8-0.8s0.8,0.3,0.8,0.8v5C12.8,22.4,12.4,22.8,12,22.8z"/>
<path d="M12,13.8c-0.4,0-0.8-0.3-0.8-0.8V2c0-0.4,0.3-0.8,0.8-0.8s0.8,0.3,0.8,0.8v11C12.8,13.4,12.4,13.8,12,13.8z"/>
<path d="M5,22.8c-0.4,0-0.8-0.3-0.8-0.8V11c0-0.4,0.3-0.8,0.8-0.8s0.8,0.3,0.8,0.8v11C5.8,22.4,5.4,22.8,5,22.8z"/>
<path d="M5,7.8C4.6,7.8,4.3,7.4,4.3,7V2c0-0.4,0.3-0.8,0.8-0.8S5.8,1.6,5.8,2v5C5.8,7.4,5.4,7.8,5,7.8z"/>
<path d="M7,11.8H3c-0.4,0-0.8-0.3-0.8-0.8s0.3-0.8,0.8-0.8h4c0.4,0,0.8,0.3,0.8,0.8S7.4,11.8,7,11.8z"/>
<path d="M21,11.8h-4c-0.4,0-0.8-0.3-0.8-0.8s0.3-0.8,0.8-0.8h4c0.4,0,0.8,0.3,0.8,0.8S21.4,11.8,21,11.8z"/>
<path d="M14,13.8h-4c-0.4,0-0.8-0.3-0.8-0.8s0.3-0.8,0.8-0.8h4c0.4,0,0.8,0.3,0.8,0.8S14.4,13.8,14,13.8z"/>
</svg>
