<svg width="1000" height="1000" viewBox="0 0 1000 1000" fill="none" xmlns="http://www.w3.org/2000/svg">
<path fill-rule="evenodd" clip-rule="evenodd" d="M508.212 878.328C433.205 878.328 398.348 867.378 337.759 823.578C299.434 872.853 178.073 911.361 172.78 845.478C172.78 796.022 161.83 754.23 149.42 708.605C134.638 652.395 117.848 589.798 117.848 499.097C117.848 282.471 295.602 119.5 506.205 119.5C716.99 119.5 882.152 290.501 882.152 501.104C882.859 708.45 715.557 877.222 508.212 878.328ZM511.315 306.743C408.751 301.451 328.816 372.443 311.114 483.767C296.514 575.929 322.429 688.165 344.511 694.005C355.096 696.56 381.741 675.025 398.348 658.418C425.809 677.389 457.788 688.783 491.058 691.45C597.331 696.562 688.138 615.656 695.273 509.5C699.427 403.118 617.603 313.014 511.315 306.926V306.743Z" fill="#5D60A8"/>
</svg>
