<?xml version="1.0" encoding="utf-8"?>
<!-- Generator: Adobe Illustrator 19.2.1, SVG Export Plug-In . SVG Version: 6.00 Build 0)  -->
<svg version="1.1" id="Слой_1" xmlns="http://www.w3.org/2000/svg" xmlns:xlink="http://www.w3.org/1999/xlink" x="0px" y="0px"
	 viewBox="0 0 24 24" style="enable-background:new 0 0 24 24;" xml:space="preserve">
<style type="text/css">
	.st0{fill:#5C619D;}
</style>
<path d="M3.3,19.1c-0.4-0.1-0.8-0.3-1-0.6c-0.3-0.3-0.5-0.6-0.6-1c-0.7-2-1-10.2,0.5-11.8c0.5-0.5,1.1-0.9,1.8-0.9c3.8-0.4,15.5-0.3,16.9,0.1c0.4,0.1,0.7,0.3,1,0.6c0.3,0.3,0.5,0.6,0.6,1c0.8,2,0.8,9.4-0.1,11.4c-0.2,0.5-0.7,0.9-1.2,1.2C19.7,19.7,5.1,19.7,3.3,19.1z M9.3,15.2l6.8-3.5L9.3,8.3V15.2z"/>
</svg>
