<?xml version="1.0" encoding="UTF-8"?>
<svg id="_Слой_1" data-name="Слой 1" xmlns="http://www.w3.org/2000/svg" viewBox="0 0 220.82 122.97">
  <defs>
    <style>
      .cls-1 {
        fill: #5c619d;
      }
    </style>
  </defs>
  <path class="cls-1" d="M38.17,111.22c-1.09-.75-2.01-2.1-2.85-3.86-.75-1.76-.92-3.77-.59-6.12L47.98,8.3c.34-3.27-.76-4.95-3.36-4.95-1.34,0-4.95,1.01-10.82,2.94-5.96,1.93-11.32,3.94-16.02,6.04-3.19,1.34-5.28,2.26-6.29,2.93-1.01.67-1.59,1.51-1.68,2.52-.34,2.1,1.09,3.69,4.28,4.78,3.44,1.26,5.54,2.68,6.29,4.28.84,1.59.92,4.36.34,8.22l-9.39,66.18c-.5,3.02-1.59,5.37-3.52,7.13-1.85,1.76-3.61,3.27-5.28,4.53-1.68,1.34-2.52,2.77-2.52,4.44,0,2.43,2.68,3.61,7.97,3.61h27.18c5.12,0,7.63-1.18,7.63-3.61,0-1.09-.42-2.18-1.43-3.35-1.01-1.09-2.1-2.01-3.19-2.77Z"/>
  <path class="cls-1" d="M132.83,51.16c-5.37-7.63-12.92-11.49-22.65-11.49-5.2,0-10.24,1.09-15.1,3.27-4.87,2.1-8.73,4.87-11.58,8.22,1.77-11.66,5.54-20.38,11.41-26.34,5.87-5.87,12.25-8.89,19.13-8.89,6.29,0,12.33,1.51,18.2,4.53,1.68.84,3.19.59,4.53-.92,1.26-1.51,1.42-3.27.42-5.37-1.43-3.02-4.28-5.62-8.64-7.72-4.36-2.18-9.48-3.18-15.35-3.1-14.18,0-26.85,6.46-38,19.21-11.24,12.83-17.95,28.27-20.3,46.13-2.1,16.95.33,30.2,7.13,39.85,6.88,9.64,17.03,14.43,30.36,14.43,12.42,0,22.74-4.11,31.04-12.33.61-.61,1.18-1.23,1.71-1.84-.33-.46-.64-.93-.93-1.4-1.7-2.71-2.92-5.57-3.63-8.5l-.04-.17-.03-.18c-1.01-5.99,2.27-9.01,4.29-10.27,1.44-.89,3.01-1.35,4.67-1.35s4.22.54,6.59,3.09c1.11-3.42,1.93-6.99,2.47-10.84,1.59-11.07-.34-20.38-5.7-28.02ZM115.63,81.7c-.5,8.13-2.6,15.26-6.21,21.22-3.6,5.95-8.39,8.89-14.34,8.81-4.2-.17-7.63-1.6-10.4-4.45-2.69-2.77-4.53-6.29-5.46-10.32-.92-4.11-1.17-8.64-.75-13.5.59-7.8,2.77-14.77,6.63-20.72,3.94-5.96,8.8-8.89,14.59-8.81,5.87.17,10.24,2.94,13,8.39,2.77,5.45,3.78,11.91,2.94,19.38Z"/>
  <path class="cls-1" d="M220.48,5.7c-.5,2.77-1.84,6.29-3.94,10.57-1.34,2.77-2.85,4.7-4.61,5.79-1.85,1-4.78,1.59-8.98,1.67-5.62.34-11.15.51-16.61.51-6.37,0-12.66-.26-18.95-.68l-7.64,17.29c19.63,2.51,33.89,7.63,42.78,15.26,8.89,7.64,12.5,17.36,10.82,29.19-1.42,10.66-6.12,19.55-14.01,26.76-7.88,7.13-18.79,10.74-32.54,10.74-11.58,0-20.89-2.6-28.19-7.72-4.44-3.19-7.88-6.62-10.15-10.32-1.42-2.26-2.43-4.61-3.02-7.04-.41-2.43.26-4.11,2.02-5.2.67-.42,1.34-.59,2.01-.59,1.01,0,2.01.5,2.94,1.51.5.59,1,1.17,1.59,1.76,7.21,7.63,16.69,11.49,28.44,11.49,6.79,0,12.41-1.76,17.03-5.37,4.61-3.6,7.29-8.47,8.22-14.51,1.17-8.89-1.6-15.6-8.39-20.13-6.8-4.61-17.11-7.8-30.96-9.56-2.09-.34-3.35-1.01-3.85-2.02-.42-1-.17-2.51.67-4.61l17.61-41.02c.67-1.42,1.43-2.6,2.43-3.35.93-.76,2.1-1.18,3.44-1.18.26,0,.51,0,.76.09,4.19.33,8.64.5,13.34.5s9.81-.17,15.18-.5c5.53-.34,10.06-1.26,13.67-2.77,3.53-1.51,5.79-2.26,6.8-2.26,2.18,0,2.93,1.92,2.09,5.7Z"/>
</svg>