<svg xmlns="http://www.w3.org/2000/svg" viewBox="0 0 745.8 129.3">
  <defs>
    <style>
      .cls-1, .cls-2, .cls-3 {
        fill: #5d60a8;
      }

      .cls-2 {
        isolation: isolate;
        opacity: .3;
      }

      .cls-2, .cls-3 {
        fill-rule: evenodd;
      }

      .cls-4 {
        fill: #a3a6af;
      }
    </style>
  </defs>
  <path class="cls-2" d="M232.3,34.9c0,6.2-2.4,11.9-6.4,16-3.9,4.1-9.4,6.6-15.4,6.6h-12.2V12.3h12.2c12,0,21.8,10.1,21.8,22.6h0Z"/>
  <path class="cls-2" d="M226.6,34.9c0,6.2-2.5,11.9-6.5,16-4,4.1-9.5,6.6-15.6,6.6h-6.2V12.3h6.2c12.2,0,22.1,10.1,22.1,22.6Z"/>
  <path class="cls-3" d="M221,34.9c0,6.2-2.5,11.9-6.6,16-4.1,4.1-9.8,6.6-16,6.6V12.3c12.5,0,22.6,10.1,22.6,22.6h0Z"/>
  <rect class="cls-1" x="141.7" y="12.3" width="45.3" height="45.3"/>
  <path class="cls-1" d="M141.7,68.8h45.3v45.3h0c-25,0-45.3-20.3-45.3-45.3h0Z"/>
  <path class="cls-1" d="M243.7,114.1h-45.3v-45.3h0c25,0,45.3,20.3,45.3,45.3h0Z"/>
  <path class="cls-1" d="M266.3,39.4V12.3h3.8v11.9h0l12.1-11.9h5.2l-13.2,12.4,14,14.7h-5.4l-12.7-14h0v14h-3.8,0Z"/>
  <path class="cls-1" d="M291,39.6c-.9,0-1.7,0-2.3-.3l.3-3c.4.1.8.2,1.2.2,1.3,0,2.3-.7,2.9-2s1-3.6,1-6.9v-6.3h13.9v18.1h-3.6v-15.2h-6.9v4.3c0,3.7-.5,6.4-1.5,8.3s-2.7,2.8-5,2.8h0Z"/>
  <path class="cls-1" d="M314.2,39.4v-18.1h3.6v13.1h0l9.3-13.1h3.9v18.1h-3.6v-13.1h0l-9.3,13.1h-3.9Z"/>
  <path class="cls-1" d="M337.3,39.4v-18.1h3.6v7.2h9v-7.2h3.6v18.1h-3.6v-8h-9v8h-3.6Z"/>
  <path class="cls-1" d="M359.6,39.4v-18.1h3.6v13.1h0l9.3-13.1h3.9v18.1h-3.6v-13.1h0l-9.3,13.1h-3.9Z"/>
  <path class="cls-1" d="M382.8,39.4v-18.1h3.6v8.3h.1l7.6-8.3h4.8l-8.4,8.6,9.2,9.5h-4.9l-8.3-8.9h-.1v8.9s-3.6,0-3.6,0Z"/>
  <path class="cls-1" d="M408.1,39.9c-.8,0-1.5,0-2.3-.3-.7-.2-1.4-.5-2.1-.9s-1.2-1-1.6-1.7c-.4-.8-.6-1.6-.6-2.6s.2-2,.8-2.7c.5-.8,1.1-1.4,1.9-1.8s1.7-.8,2.9-1,2.3-.4,3.4-.5,2.3-.1,3.7-.1v-.5c0-1.3-.4-2.3-1.2-3-.8-.7-1.9-1-3.3-1-2,0-3.8.7-5.2,2.1l-1.9-2.3c1.9-1.8,4.4-2.7,7.4-2.7s4.4.7,5.7,2,1.9,3,1.9,5.1v7.9c0,1.6,0,2.8.3,3.6h-3.2c-.2-.9-.3-1.7-.3-2.6h-.1c-1.4,2-3.4,3.1-6.1,3.1h0ZM408.9,37c1.6,0,2.9-.5,3.8-1.5s1.4-2.3,1.4-3.8v-1h-.9c-5.4,0-8.1,1.1-8.1,3.4s.4,1.7,1.1,2.2c.7.5,1.6.7,2.6.7Z"/>
  <path class="cls-1" d="M433.1,39.4v-18.1h8.9c.6,0,1.2,0,1.7.1.5,0,1.1.2,1.6.5.5.2,1,.5,1.4.8s.7.8,1,1.4c.2.6.4,1.2.4,1.9s-.3,1.8-.9,2.5c-.6.7-1.3,1.1-2.3,1.4h0c1.2.2,2.1.7,2.9,1.5.7.8,1.1,1.8,1.1,3s-.6,2.8-1.9,3.7c-1.2.9-2.9,1.4-5,1.4h-9.1,0ZM436.7,28.7h5c.8,0,1.5-.2,2.1-.6.6-.4.8-1,.8-1.8,0-1.5-1.1-2.3-3.3-2.3h-4.6v4.7h0ZM436.7,36.5h4.9c2.5,0,3.7-.8,3.7-2.5s-1.2-2.6-3.5-2.6h-5.1v5.1h0Z"/>
  <path class="cls-1" d="M454,39.4v-18.1h3.6v6.6h4.1c2.2,0,4,.5,5.3,1.5,1.3,1,1.9,2.4,1.9,4.3s-.6,3.3-1.9,4.3c-1.3,1-3,1.5-5.3,1.5h-7.8ZM457.6,36.5h3.7c2.7,0,4-1,4-2.9s-1.3-3-4-3h-3.7v5.8ZM472.4,39.4v-18.1h3.6v18.1h-3.6Z"/>
  <path class="cls-1" d="M490.7,39.9c-2.8,0-5.2-.9-7-2.6s-2.8-4.1-2.8-6.9.9-5.1,2.7-6.9c1.8-1.8,4.1-2.7,6.9-2.7s2.6.3,3.9.8,2.2,1.3,3,2.2l-2.6,2.1c-.4-.6-1-1.1-1.7-1.5s-1.6-.6-2.4-.6c-1.8,0-3.2.6-4.3,1.9-1.1,1.3-1.6,2.8-1.6,4.6s.5,3.3,1.6,4.6,2.5,1.9,4.3,1.9,3.3-.7,4.4-2l2.4,2.2c-1.6,1.9-3.9,2.8-6.8,2.8Z"/>
  <path class="cls-1" d="M516.6,37.2c-1.9,1.8-4.2,2.7-7,2.7s-5.1-.9-7-2.7c-1.9-1.8-2.8-4.1-2.8-6.9s.9-5.1,2.8-6.9c1.9-1.8,4.2-2.7,7-2.7s5.1.9,7,2.7c1.9,1.8,2.8,4.1,2.8,6.9s-.9,5.1-2.8,6.9h0ZM505.2,34.9c1.1,1.3,2.6,1.9,4.4,1.9s3.3-.6,4.4-1.9c1.1-1.3,1.6-2.8,1.6-4.6s-.5-3.4-1.6-4.6c-1.1-1.3-2.6-1.9-4.4-1.9s-3.3.6-4.4,1.9c-1.1,1.3-1.6,2.8-1.6,4.6s.5,3.4,1.6,4.6Z"/>
  <path class="cls-1" d="M524.4,39.4v-18.1h3.6v8.3h.1l7.7-8.3h4.8l-8.4,8.6,9.2,9.5h-4.9l-8.3-8.9h-.1v8.9h-3.6Z"/>
  <path class="cls-1" d="M544.5,39.4v-18.1h3.6v13.1h0l9.3-13.1h3.9v18.1h-3.6v-13.1h0l-9.3,13.1h-3.9,0Z"/>
  <path class="cls-1" d="M564.7,39.4l7.3-9.5-6.6-8.6h4.4l4.4,6.2,4.5-6.2h4.2l-6.5,8.6,7.3,9.6h-4.5l-5-7.1-5.1,7.1h-4.3Z"/>
  <path class="cls-1" d="M266.1,75.7v-18.1h5.1l6,13.2h0l5.9-13.2h5.1v18.1h-3.6v-13.9h0l-6.4,13.9h-2.2l-6.3-13.9h0v13.9h-3.6,0Z"/>
  <path class="cls-1" d="M302.8,76.2c-2.8,0-5.1-.9-6.9-2.6s-2.7-4.1-2.7-6.9.9-5.1,2.7-6.9c1.8-1.8,4-2.7,6.7-2.7s4.8.8,6.4,2.5,2.4,4,2.4,6.9,0,.9,0,1.2h-14.4c0,1.6.6,2.9,1.8,3.9s2.5,1.6,4.1,1.6c2.3,0,4-.9,5.3-2.8l2.5,2c-1.9,2.5-4.5,3.7-7.8,3.7h0ZM296.9,65h10.8c0-1.5-.5-2.7-1.4-3.7s-2.1-1.4-3.7-1.4-2.8.5-3.9,1.5-1.7,2.2-1.8,3.6h0Z"/>
  <path class="cls-1" d="M313.9,81.2v-8.5h2c1.8-2.3,2.7-5.8,2.7-10.4v-4.7h14v15.2h2.8v8.5h-3.1v-5.6h-15.2v5.6h-3.1,0ZM319.8,72.7h9.2v-12.2h-7v2.8c0,3.6-.8,6.8-2.3,9.5Z"/>
  <path class="cls-1" d="M339.6,75.7v-18.1h3.6v13.1h0l9.3-13.1h3.9v18.1h-3.6v-13.1h0l-9.3,13.1h-3.9Z"/>
  <path class="cls-1" d="M378.4,81.2v-5.6h-15.7v-18.1h3.6v15.1h8.9v-15.1h3.6v15.1h2.8v8.6h-3.1Z"/>
  <path class="cls-1" d="M385.6,75.7v-18.1h3.6v13.1h0l9.3-13.1h3.9v18.1h-3.6v-13.1h0l-9.3,13.1h-3.9Z"/>
  <path class="cls-1" d="M408.6,75.7v-18.1h3.6v7.2h9v-7.2h3.6v18.1h-3.6v-8h-9v8s-3.6,0-3.6,0Z"/>
  <path class="cls-1" d="M439.6,76.2c-2.8,0-5.2-.9-7-2.6s-2.8-4.1-2.8-6.9.9-5.1,2.7-6.9c1.8-1.8,4.1-2.7,6.9-2.7s2.6.3,3.9.8,2.2,1.3,3,2.2l-2.6,2.1c-.4-.6-1-1.1-1.7-1.5s-1.6-.6-2.4-.6c-1.8,0-3.2.6-4.3,1.9-1.1,1.3-1.6,2.8-1.6,4.6s.5,3.3,1.6,4.6,2.5,1.9,4.3,1.9,3.3-.7,4.4-2l2.4,2.2c-1.6,1.9-3.9,2.8-6.8,2.8Z"/>
  <path class="cls-1" d="M450,75.7v-18.1h3.6v8.3h.1l7.6-8.3h4.8l-8.4,8.6,9.2,9.5h-4.9l-8.3-8.9h-.1v8.9s-3.6,0-3.6,0Z"/>
  <path class="cls-1" d="M470,75.7v-18.1h3.6v13.1h0l9.3-13.1h3.9v18.1h-3.6v-13.1h0l-9.3,13.1h-3.9Z"/>
  <path class="cls-1" d="M490.3,75.7l7.3-9.5-6.6-8.6h4.4l4.4,6.2,4.5-6.2h4.2l-6.5,8.6,7.3,9.6h-4.5l-5-7.1-5.1,7.1h-4.3Z"/>
  <path class="cls-1" d="M529,75.7v-15.2h-6.2v-3h15.9v3h-6.2v15.2h-3.6,0Z"/>
  <path class="cls-1" d="M550.5,76.2c-2.8,0-5.1-.9-6.9-2.6s-2.7-4.1-2.7-6.9.9-5.1,2.7-6.9c1.8-1.8,4-2.7,6.7-2.7s4.8.8,6.4,2.5,2.3,4,2.3,6.9,0,.9,0,1.2h-14.4c0,1.6.7,2.9,1.8,3.9s2.5,1.6,4.1,1.6c2.3,0,4-.9,5.3-2.8l2.5,2c-1.9,2.5-4.5,3.7-7.8,3.7h0ZM544.6,65h10.8c0-1.5-.5-2.7-1.4-3.7s-2.1-1.4-3.7-1.4-2.8.5-3.9,1.5-1.7,2.2-1.8,3.6h0Z"/>
  <path class="cls-1" d="M560.8,75.7l7.3-9.5-6.6-8.6h4.4l4.4,6.2,4.5-6.2h4.2l-6.5,8.6,7.3,9.6h-4.5l-5-7.1-5.1,7.1h-4.3Z"/>
  <path class="cls-1" d="M583.2,75.7v-18.1h3.6v7.2h9v-7.2h3.6v18.1h-3.6v-8h-9v8s-3.6,0-3.6,0Z"/>
  <path class="cls-1" d="M621.1,73.5c-1.9,1.8-4.2,2.7-7,2.7s-5.1-.9-7-2.7c-1.9-1.8-2.8-4.1-2.8-6.9s.9-5.1,2.8-6.8c1.8-1.8,4.2-2.7,7-2.7s5.1.9,7,2.7,2.8,4.1,2.8,6.8-.9,5.1-2.8,6.9ZM609.7,71.2c1.1,1.3,2.6,1.9,4.4,1.9s3.3-.6,4.4-1.9c1.1-1.3,1.6-2.8,1.6-4.7s-.5-3.3-1.6-4.6c-1.1-1.3-2.6-1.9-4.4-1.9s-3.3.6-4.4,1.9c-1.1,1.3-1.6,2.8-1.6,4.6s.5,3.4,1.6,4.7Z"/>
  <path class="cls-1" d="M628.1,75.9c-.9,0-1.7,0-2.3-.3l.3-3c.4.1.8.2,1.2.2,1.3,0,2.3-.7,2.9-2,.6-1.3,1-3.7,1-6.9v-6.3h13.9v18.1h-3.6v-15.2h-6.8v4.3c0,3.7-.5,6.4-1.5,8.3-1,1.9-2.7,2.8-5,2.8Z"/>
  <path class="cls-1" d="M666.9,73.5c-1.9,1.8-4.2,2.7-7,2.7s-5.1-.9-7-2.7c-1.9-1.8-2.8-4.1-2.8-6.9s.9-5.1,2.8-6.8c1.8-1.8,4.2-2.7,7-2.7s5.1.9,7,2.7,2.8,4.1,2.8,6.8-.9,5.1-2.8,6.9ZM655.5,71.2c1.1,1.3,2.6,1.9,4.4,1.9s3.3-.6,4.4-1.9c1.1-1.3,1.6-2.8,1.6-4.7s-.5-3.3-1.6-4.6c-1.1-1.3-2.6-1.9-4.4-1.9s-3.3.6-4.4,1.9c-1.1,1.3-1.6,2.8-1.6,4.6s.5,3.4,1.6,4.7Z"/>
  <path class="cls-1" d="M674.6,75.7v-18.1h12.3v3h-8.8v15.2h-3.6,0Z"/>
  <path class="cls-1" d="M690.9,75.7v-18.1h3.6v13.1h0l9.3-13.1h3.9v18.1h-3.6v-13.1h0l-9.3,13.1h-3.9,0Z"/>
  <path class="cls-1" d="M713.9,75.7v-18.1h3.6v13.1h0l9.3-13.1h3.9v18.1h-3.6v-13.1h0l-9.3,13.1h-3.9,0ZM726.1,52.5c-1,.9-2.3,1.3-4,1.3s-3-.5-4-1.4c-1-.9-1.6-2.2-1.8-3.8l2.1-.3c.2.9.6,1.6,1.2,2.1s1.5.8,2.5.8,1.8-.2,2.5-.8c.7-.5,1.1-1.2,1.2-2.1l2.1.4c-.2,1.6-.8,2.8-1.8,3.7h0Z"/>
  <path class="cls-1" d="M266.1,113.9v-18.1h3.6v13.1h0l9.3-13.1h3.9v18.1h-3.6v-13.1h0l-9.3,13.1h-3.9Z"/>
  <path class="cls-1" d="M289.2,113.9v-18.1h5.1l6,13.2h0l5.9-13.2h5.1v18.1h-3.6v-13.9h0l-6.4,13.9h-2.2l-6.3-13.9h0v13.9h-3.6,0Z"/>
  <path class="cls-1" d="M320.2,109.9c.5.5.8,1.1.8,1.8s-.2,1.3-.8,1.8-1.1.8-1.8.8-1.3-.2-1.8-.8-.8-1.1-.8-1.7.2-1.3.8-1.8,1.1-.8,1.8-.8,1.3.2,1.8.7Z"/>
  <path class="cls-1" d="M333.2,113.9v-27.1h3.8v11.3h13.7v-11.3h3.8v27.1h-3.8v-12.4h-13.7v12.4h-3.8Z"/>
  <path class="cls-1" d="M363.6,109.9c.5.5.8,1.1.8,1.8s-.2,1.3-.8,1.8-1.1.8-1.8.8-1.3-.2-1.8-.8-.8-1.1-.8-1.7.2-1.3.8-1.8,1.1-.8,1.8-.8,1.3.2,1.8.7Z"/>
  <path class="cls-1" d="M376.5,113.9v-27.1h3.8v21.5h0l13.6-21.5h4.2v27.1h-3.8v-21.5h0l-13.6,21.5h-4.2Z"/>
  <path class="cls-1" d="M407.4,109.9c.5.5.8,1.1.8,1.8s-.2,1.3-.8,1.8-1.1.8-1.8.8-1.3-.2-1.8-.8-.8-1.1-.8-1.7.2-1.3.8-1.8,1.1-.8,1.8-.8,1.3.2,1.8.7Z"/>
  <path class="cls-1" d="M421.3,113.9v-27.1h21.1v27.1h-3.8v-23.8h-13.6v23.8h-3.8,0Z"/>
  <path class="cls-1" d="M448.8,113.9v-18.1h3.6v13.1h0l9.3-13.1h3.9v18.1h-3.6v-13.1h0l-9.3,13.1h-3.9Z"/>
  <path class="cls-1" d="M471.9,123.1v-27.3h3.5v2.8h.1c.6-1,1.5-1.8,2.6-2.4,1.1-.6,2.5-.9,3.9-.9,2.6,0,4.8.9,6.5,2.7,1.7,1.8,2.5,4.1,2.5,6.8s-.8,5-2.5,6.8-3.9,2.8-6.6,2.8-2.5-.3-3.7-.9-2-1.4-2.7-2.3h-.1v11.9h-3.6,0ZM481.4,111.4c1.9,0,3.4-.6,4.4-1.9s1.6-2.8,1.6-4.7-.5-3.3-1.6-4.6c-1.1-1.3-2.5-1.9-4.4-1.9s-3.2.7-4.4,1.9c-1.1,1.3-1.7,2.8-1.7,4.6s.6,3.3,1.7,4.6,2.6,1.9,4.4,1.9Z"/>
  <path class="cls-1" d="M511.7,111.7c-1.9,1.8-4.2,2.7-7,2.7s-5.1-.9-7-2.7c-1.9-1.8-2.8-4.1-2.8-6.9s.9-5.1,2.8-6.8c1.9-1.8,4.2-2.7,7-2.7s5.1.9,7,2.7,2.8,4.1,2.8,6.8-.9,5.1-2.8,6.9h0ZM500.3,109.5c1.1,1.3,2.6,1.9,4.4,1.9s3.3-.6,4.4-1.9c1.1-1.3,1.6-2.8,1.6-4.7s-.5-3.3-1.6-4.6c-1.1-1.3-2.6-1.9-4.4-1.9s-3.3.6-4.4,1.9c-1.1,1.3-1.6,2.8-1.6,4.6s.5,3.4,1.6,4.7Z"/>
  <path class="cls-1" d="M519.4,113.9v-18.1h12.3v2.9h-8.8v15.2h-3.6,0Z"/>
  <path class="cls-1" d="M550.8,111.7c-1.9,1.8-4.2,2.7-7,2.7s-5.1-.9-7-2.7c-1.9-1.8-2.8-4.1-2.8-6.9s.9-5.1,2.8-6.8c1.8-1.8,4.2-2.7,7-2.7s5.1.9,7,2.7,2.8,4.1,2.8,6.8-.9,5.1-2.8,6.9ZM539.3,109.5c1.1,1.3,2.6,1.9,4.4,1.9s3.3-.6,4.4-1.9c1.1-1.3,1.6-2.8,1.6-4.7s-.5-3.3-1.6-4.6c-1.1-1.3-2.6-1.9-4.4-1.9s-3.3.6-4.4,1.9c-1.1,1.3-1.6,2.8-1.6,4.6s.5,3.4,1.6,4.7Z"/>
  <path class="cls-1" d="M558.5,113.9v-18.1h8.9c.6,0,1.2,0,1.7.1s1.1.2,1.6.5c.5.2,1,.5,1.4.8s.7.8,1,1.4c.2.6.4,1.2.4,1.9s-.3,1.8-.9,2.5c-.6.7-1.3,1.2-2.3,1.4h0c1.2.2,2.1.7,2.9,1.5s1.1,1.8,1.1,3-.6,2.8-1.8,3.7c-1.2.9-2.9,1.4-5,1.4h-9.1,0ZM562.1,103.3h5c.8,0,1.5-.2,2.1-.6.6-.4.8-1,.8-1.8,0-1.6-1.1-2.3-3.3-2.3h-4.6v4.7h0ZM562.1,111.1h4.9c2.5,0,3.7-.8,3.7-2.5s-1.2-2.6-3.5-2.6h-5.1v5.1h0Z"/>
  <path class="cls-1" d="M584.7,114.4c-.8,0-1.5,0-2.3-.3-.7-.2-1.4-.5-2.1-.9-.7-.4-1.2-1-1.6-1.7s-.6-1.6-.6-2.6.2-2,.8-2.7c.5-.8,1.1-1.4,1.9-1.8.8-.4,1.7-.8,2.9-1s2.3-.4,3.4-.5,2.3-.1,3.7-.1v-.5c0-1.3-.4-2.3-1.2-3-.8-.7-1.9-1-3.3-1-2,0-3.8.7-5.2,2.1l-1.9-2.3c1.9-1.8,4.4-2.7,7.4-2.7s4.4.7,5.7,2c1.3,1.3,1.9,3,1.9,5.1v7.9c0,1.6,0,2.8.3,3.6h-3.2c-.2-.9-.3-1.7-.3-2.6h-.1c-1.3,2-3.4,3.1-6.1,3.1h0ZM585.5,111.6c1.6,0,2.9-.5,3.8-1.5.9-1,1.4-2.3,1.4-3.8v-1h-.9c-5.4,0-8.1,1.2-8.1,3.4s.4,1.7,1.1,2.2c.7.4,1.6.7,2.6.7h0Z"/>
  <path class="cls-1" d="M622.8,114.6c-4.2,0-7.6-1.3-10.2-4s-4-6.1-4-10.2,1.4-7.6,4.1-10.2,6.2-4,10.3-4,3.8.4,5.6,1.1,3.2,1.8,4.1,3.1l-3,2.3c-.7-.9-1.6-1.7-2.8-2.3-1.2-.6-2.5-.9-3.9-.9-3.1,0-5.5,1.1-7.4,3.1s-2.8,4.7-2.8,7.7.9,5.7,2.8,7.8c1.9,2.1,4.3,3.1,7.4,3.1s5.6-1.2,7.3-3.6l3,2.1c-2.4,3.3-5.8,4.9-10.3,4.9h0Z"/>
  <path class="cls-1" d="M637,113.9v-27.1h21.2v27.1h-3.8v-23.8h-13.6v23.8h-3.8,0Z"/>
  <path class="cls-1" d="M673.5,114.4c-3.4,0-5.9-1.2-7.7-3.4-1.4-1.8-2.1-4.7-2.1-8.8s0-3.5.2-4.8.3-2.7.7-4c.3-1.3.8-2.4,1.4-3.2.6-.8,1.4-1.5,2.5-2.1,1-.6,2.3-1,3.7-1.2l5.1-.6c1-.1,1.8-.3,2.3-.6s.8-.7,1-1.2l2.6.8c-.3,1.2-.8,2.2-1.5,2.8-.7.6-1.8,1-3.2,1.2l-5,.7c-1.7.2-2.9.6-3.9,1.2-.9.6-1.7,1.5-2.2,2.9s-.8,3.3-.9,5.8h.1c1.5-2.9,4.1-4.4,7.8-4.4s4.7.9,6.4,2.7c1.7,1.8,2.5,4.1,2.5,6.8s-.9,5.1-2.8,6.9c-1.8,1.8-4.2,2.7-7,2.7h0ZM669,109.5c1.1,1.3,2.6,1.9,4.4,1.9s3.3-.6,4.4-1.9,1.7-2.8,1.7-4.7-.5-3.4-1.7-4.7c-1.1-1.3-2.6-1.9-4.5-1.9s-3.3.6-4.4,1.9-1.6,2.8-1.6,4.7.5,3.4,1.6,4.7Z"/>
  <path class="cls-1" d="M688.4,113.9v-27.1h15.8v3.3h-12v23.8h-3.8Z"/>
  <path class="cls-1" d="M711.6,114.3c-1.1,0-2,0-3-.3l.5-3.4c.6.2,1.3.3,2.1.3s1.7-.2,2.3-.7c.6-.5,1.2-1.3,1.8-2.4l1.3-2.4-10.5-18.5h4.4l8.2,14.8,7.9-14.8h4.2l-11.9,21.8c-1,1.9-2.1,3.3-3.1,4.2s-2.5,1.4-4.2,1.4h0Z"/>
  <path class="cls-4" d="M118.9,114.3c-.5,0-1-.4-1-1V13c0-.5.4-1,1-1s1,.4,1,1v100.3c0,.5-.4,1-1,1h0Z"/>
  <path class="cls-4" d="M46.5,23.1s0,.2,0,.2c.6,1.2,1.6,2.3,1.6,2.3h0s.1-.1.5-.3c0,0,.2-.1.4-.2.3-.2.7-.3,1.3-.5,1.2-.4,2.8-.6,2.8-.6,0,0-1.5-2.1-1.8-5.1-.2-1.7,0-2.6,0-2.7h-.3c-1.2,0-2.2.4-3,1.1,0,0,0,0,0,0-1.1.9-1.8,2.2-1.8,3.7s0,.8.2,1.2c0,.2.2.6.3.8h0c0,0,0,0,0,0Z"/>
  <path class="cls-4" d="M75.6,37.8c.5.8.5,1.8.5,1.8,0,0,1,.2,1.5.7,0,0,0,0,0,0,.7-.8,1.9-2.2,2.3-4.2.3-1.6.1-3.8-.2-4.6,0,0,0,0,0,0,.3-.4.8-1.2,2.3-1.2s1,.2,1.4.3c.7.3,1,.7,1,.7,0,0-1.3,2.2-1.9,3.3-.3.5-.6,1-1.3,2.5-.6,1.3-.7,2.1-.6,3,0,.8.5,2.2.7,3.6.3,2.8-.2,4.1-.2,4.1h0s3.3-2.2,5.4-7h0c-.4,0-.7-.2-1-.3s-.5-.3-.8-.5c-1.8-1.4-1.4-2.9-.8-3.6.2-.2.3-.4.5-.6.5-.5,1-1,1.5-1.6.7-.8.9-1.5,1-2.2,0-.2,0-.5,0-.7,0-2-1-3.4-2.2-4.1-.4-.2-.9-.4-1.3-.5-1.4-.2-3.1.3-4.4,1.1-.5.3-1.3,1.1-1.5,1.6-.3,1.4.1,1.7.6,3.1,0,0,0,0,0,0,.8,3.2.4,4.7-2.4,5.3h0c0,0,0,0,0,0Z"/>
  <path class="cls-4" d="M61.6,35c.4.8,1.1,1.5,1.1,1.5h0c0,.1.4-.2,1.4-.6.8-.3,1.8-.4,1.8-.4,0,0-1-1.4-1.2-3.4-.1-1.2,0-1.8,0-1.8h0c-.5,0-1.1,0-1.5.2-.3.2-.6.4-.9.6-.4.4-.7.8-.8,1.3-.2.5-.2,1.1-.1,1.6,0,0,.2.6.3,1h0c0,0,0,0,0,0Z"/>
  <path class="cls-4" d="M66.1,32.9c.4,1.2,1.2,2.2,1.7,2.5,0,0,.2,0,.2,0h0c.6,0,1.3-1.2,1.7-2.7.3-1.4.1-2.5-.5-2.9-.1,0-.3-.2-.4-.2,0,0,0,0,0,0,.3-.3.5-.6.5-1.1,0-.6-.4-1.2-1-1.4v-.6h1v-.8h-1v-1.2h-.8v1.2h-1v.8h1v.6c-.6.2-1,.7-1,1.4s.2.8.5,1c-.2.1-.4.2-.6.4-.5.5-.7,1.7-.2,3h0s0,0,0,0Z"/>
  <path class="cls-4" d="M70,35.4s1.7,0,3.5.7c0,0,0,0,0,0,.2-.3.6-.8.8-1.2.2-.3.3-.9.3-1,.1-.6,0-1.1-.1-1.6-.1-.5-.4-.9-.8-1.3-.2-.2-.5-.4-.9-.6h0c-.5-.2-1-.3-1.6-.2,0,0,0,.6,0,1.8-.2,2-1.2,3.4-1.2,3.4h0s0,0,0,0Z"/>
  <path class="cls-4" d="M58.8,24s1.6.1,2.8.6c.5.2.9.4,1.3.5.1,0,.2.1.4.2.3.2.5.3.5.3h0s1-1.1,1.6-2.3c0,0,0-.1,0-.2.1-.3.2-.6.3-.8,0-.4.2-.8.2-1.2,0-1.5-.7-2.8-1.8-3.7,0,0,0,0,0,0-.8-.7-1.9-1.1-3-1.1h-.3s0,1,0,2.7c-.3,3-1.8,5.1-1.8,5.1h0c0,0,0,0,0,0Z"/>
  <path class="cls-4" d="M59.8,28.7s.2.9.3,1.4h.1c.7-.3,2.1-.7,2.1-1.2v-1.5c0-.3-.3-.5-.8-.8-1-.5-2.9-.8-5-.8h-1.2c-2.2,0-4.2.4-5.2.8-.5.2-.8.5-.8.8v1.5c0,.5,1.4.9,2.2,1.2h.1c.1-.4.3-1.4.3-1.4,0,0-.2,0-.2-.1,0-.2,0-.3.3-.5.3-.1.7-.2,1.1-.2.2.8.3,2.1.2,3.3,0,2.2-.5,5.1-1.9,7,.5.5,1.1,1.1,1.6,2,1.4-2.7,1.6-5.5,1.7-8.5,0-1.3,0-2.9,0-3.9.1,0,.6,0,1,0s.8,0,1,0c0,1.1,0,2.6,0,3.9.1,3,.3,6,1.8,8.7.5-.8,1-1.4,1.5-1.9s0,0,0-.1c-1.4-1.9-1.8-4.8-1.9-7,0-1.1,0-2.4.2-3.3.4,0,.8.1,1.1.2.3.2.4.3.3.5,0,0-.2.1-.2.1h0s0,0,0,0Z"/>
  <path class="cls-4" d="M78.4,49.9h-.1s-.2,0-.2,0c-.8,0-1.6,0-2.2-.2-.4-.1-.7-.3-1-.5,0,0-.9-.8-1-.9-.6-.5-1.7-1.3-2.8-1.5-1.3-.1-2.1.3-3,.7,0,0-.2.1-.2.2s0,.2.2.2c0,0,0,0,.1,0,.9,0,1.8.2,2.6.5.6.2,1.2.4,1.7.7.6.5,1.2,1,1.5,1.2.5.3.9.6,1.4.7.6,0,1.2,0,1.7,0h0c.2,0,.3,0,.4-.1.2,0,.4-.2.6-.3h0c.1,0,.2-.1.3-.2h0c0,0,.1-.1,0-.2,0-.1,0-.2-.2-.2h0s0,0,0,0Z"/>
  <path class="cls-4" d="M74.9,41.4c0,.2.2.4.5.5.7.4.9,1,0,1.1-.7,0-1.5-.4-4.3.4-1.6.5-3.5,2.1-4.2,2.8-.2.2-.4.5-.6.8-.6.9-.6,2.2,0,3,.4.5.9.9,1,1,2.4,1.6,4.7.3,4.9,0,.2-.2.2-.3.2-.3h0s-.8.4-1.8.4-1.2-.1-1.8-.3c-.4-.2-1.3-.7-1.8-1.5-.3-.5-.3-1.2.1-1.7.4-.5.9-.9,1.4-1.3,1-.8,2.2-1.2,3.6-1.3h0c.7,0,1.4.1,2,.3.3.1.6.2.9.4.9.5,1.7,1.1,2.2,1.9h0c.2-.4.5-1,.7-1.8,0-.1,0-.3.1-.5.3-1.3.2-4.5-2.8-4.5s-.1,0-.2,0c-.3,0-.4.2-.3.5h0s0,0,0,0Z"/>
  <path class="cls-4" d="M25.7,34.1c.5.6,1,1.1,1.5,1.6.2.2.4.4.5.6.6.7,1,2.2-.8,3.6-.2.2-.5.4-.8.5s-.6.2-1,.3h0c2.1,4.8,5.4,7,5.4,7h0s0,0,0,0c0,0-.5-1.3-.2-4.1.2-1.4.6-2.9.6-3.6,0-.9,0-1.7-.6-3-.7-1.5-.9-1.9-1.3-2.5-.6-1.1-1.9-3.3-1.9-3.3,0,0,.4-.4,1-.7.4-.2.9-.3,1.4-.3,1.5,0,2,.9,2.3,1.2,0,0,0,0,0,0-.3.7-.5,3-.2,4.6.4,2,1.6,3.3,2.3,4.2h0c.5-.4,1.5-.6,1.5-.6,0,0,0-1,.5-1.8-2.8-.6-3.3-2.1-2.4-5.3,0,0,0,0,0,0,.4-1.4.8-1.8.6-3.1-.2-.5-1-1.3-1.5-1.6-1.3-.9-3-1.4-4.4-1.1-.5,0-.9.2-1.3.5-1.3.7-2.2,2.1-2.2,4.1s0,.5,0,.7c0,.7.3,1.5,1,2.2h0c0,0,0,0,0,0Z"/>
  <path class="cls-4" d="M45.7,35.5s1,.1,1.8.4c1,.4,1.3.7,1.3.7,0,0,0,0,0-.1h0s.7-.8,1.1-1.5c.2-.3.3-.9.3-1,.1-.6,0-1.1-.1-1.6-.1-.5-.4-.9-.8-1.3-.2-.2-.5-.4-.9-.6-.5-.2-1-.3-1.5-.2h0s0,.6,0,1.8c-.2,2-1.2,3.4-1.2,3.4h0c0,0,0,0,0,0Z"/>
  <path class="cls-4" d="M43.5,35.4h0s.2,0,.2,0c.6-.2,1.3-1.2,1.7-2.5.5-1.3.3-2.5-.2-3-.2-.2-.4-.3-.7-.4.3-.3.5-.6.5-1.1,0-.6-.4-1.2-1-1.4v-.6h1v-.8h-1v-1.2h-.8v1.2h-1v.8h1v.6c-.6.2-1,.7-1,1.4s.2.8.5,1.1c0,0,0,0,0,0-.2,0-.3.2-.4.2-.6.5-.8,1.6-.5,2.9.4,1.4,1.2,2.6,1.7,2.7,0,0,0,0,0,0Z"/>
  <path class="cls-4" d="M37.2,34.9c.2.5.6.9.8,1.2,0,0,0,0,0,0,1.7-.7,3.5-.7,3.5-.7h0s-1-1.4-1.2-3.4c-.1-1.2,0-1.8,0-1.8-.5,0-1.1,0-1.5.2h0c-.3.2-.6.4-.9.6-.4.4-.7.8-.8,1.3-.2.5-.2,1.1-.1,1.6,0,0,.2.6.3,1h0s0,0,0,0Z"/>
  <path class="cls-4" d="M43.4,48s0,0,.1,0c0,0,.2-.1.2-.2s0-.2-.2-.2c-.9-.4-1.7-.8-3-.7-1.2.1-2.2.9-2.8,1.5-.1.1-.9.8-1,.9-.3.2-.6.4-1,.5-.6.2-1.4.3-2.2.2,0,0-.2,0-.2,0h-.1c-.1,0-.2.1-.2.2s0,.2,0,.2h0c.1,0,.2.1.3.2h0c.2.1.4.2.6.3.1,0,.3.1.4.1h0c.6.1,1.2.2,1.7,0,.5-.1.9-.4,1.4-.7.4-.2.9-.8,1.5-1.2.5-.3,1.1-.5,1.7-.7.8-.2,1.7-.4,2.6-.5h0s0,0,0,0Z"/>
  <path class="cls-4" d="M33.4,45.5c0,.2,0,.3.1.5.2.8.5,1.4.7,1.8h0c.6-.8,1.3-1.5,2.2-1.9.3-.2.6-.3.9-.4.6-.2,1.3-.3,2-.3h0c1.4,0,2.6.5,3.6,1.3.5.3.9.8,1.4,1.3.4.5.5,1.2.1,1.7-.5.8-1.4,1.3-1.8,1.5-.5.2-1.2.3-1.8.3-1.1,0-1.8-.4-1.8-.4h0s0,.1.2.3c.2.2,2.5,1.6,4.9,0,.1,0,.6-.4,1-1,.7-.9.7-2.1,0-3-.2-.3-.4-.6-.6-.8-.7-.7-2.6-2.4-4.2-2.8-2.8-.8-3.5-.3-4.3-.4-1-.1-.8-.7,0-1.1.2-.1.4-.3.5-.5s0-.4-.3-.5c0,0-.1,0-.2,0-3,0-3.1,3.1-2.8,4.5h0s0,0,0,0Z"/>
  <path class="cls-4" d="M57.5,61.2c.1.2.5.5.6,1.1,0,0,1.5-1.6,1.5-1.6v-1.6l-1.6.7s-.5,1.4-.5,1.4Z"/>
  <path class="cls-4" d="M47.7,102.9c.7-.2,1.4-.4,2.1-.7.3-.1.7-.3,1-.5.4-.2.7-.4,1-.6.3-.2.6-.5.9-.8.1-.2.2-.3.3-.5,0-.1,0-.2.1-.3v-.3h0c0-.2,0-.4-.2-.4h-.2c0,0-.1,0-.2.1-.2.2-.5.4-.7.6-.2.1-.5.2-.8.3-.6.2-1.2.3-1.9.3-.7,0-1.3.2-2,.2-.7,0-1.3,0-2,.1h-2.1c-.7.1-1.5.1-2.3.3-.3,0-.7.2-1,.3-.1,0-.2.1-.4.2-.5.3-.9.8-1.2,1.3-.2.6-.3,1.1-.2,1.6.1.5.3.9.6,1.2.1.1.3.2.5,0,0,0,.2-.2.2-.2.6-1,1.9-1.5,2.1-1.6,1-.2,2.5-.3,3.9-.5.7-.1,1.5-.2,2.2-.4h0c0,0,0,.1,0,.1Z"/>
  <path class="cls-4" d="M41.2,99c0,.2.1.4.3.4s.2,0,.2,0h.1c.2-.2.3-.3.5-.3.5-.2,1-.3,1.5-.3.7,0,1.4,0,2.2.2.9.2,1.9.2,2.8.2.5,0,1-.1,1.5-.3.2,0,.5-.2.8-.3h0c.2-.1.6-.3.7-.7,0-.1,0-.3-.1-.4h0s-1-.2-1.4-.3l-1.2-.3c-.8-.2-1.7-.4-2.6-.5-1-.2-2.1-.2-3.2.2-.1,0-.3.1-.4.2-.9.5-1.7,1.3-1.8,2.4h0Z"/>
  <path class="cls-4" d="M42.6,95.5s.6-.2.9-.3h0s-3.3-1.2-1.4-3.4h0c-.3-.1-.7,0-.9,0s-.6.3-.8.6c-.9,1.1.3,2.4.4,2.4-.2,0-.6,0-.8-.1-.8-.6-2.2-1.9-.2-4.8h-.2c-.3,0-.6,0-.8.2-.2,0-.3.1-.4.2-.9.5-1.6,1.4-1.6,2.4s.1.8.3,1.2c.1.3.3.5.5.7-.1,0-.8,0-.9,0-.9-1-1.9-2.9,0-5.1h-.2c-.3,0-.6,0-.8.2-.2,0-.3.1-.5.2-1.1.6-1.5,1.7-1.5,2.7s.2,1.1.3,1.5c1.2,3,7.1,2.1,8.7,1.7h0,0Z"/>
  <path class="cls-4" d="M72.4,101.4c-.1,0-.2-.1-.4-.2-.4-.2-.7-.3-1-.3-.8-.2-1.6-.2-2.3-.3h-2.1c-.7,0-1.3-.1-2-.2-.7,0-1.3-.1-2-.2-.7,0-1.3-.2-1.9-.3-.3,0-.6-.2-.8-.3s-.5-.3-.7-.6c0,0,0,0-.2-.1,0,0-.1,0-.2,0-.2,0-.3.2-.2.4h0v.3c0,0,.2.2.2.3,0,.2.2.4.3.5.3.3.6.6.9.8.3.2.7.4,1,.6.3.2.7.3,1,.5.7.3,1.4.5,2.1.7s1.5.3,2.2.4c1.4.2,2.9.3,3.9.5.2,0,1.5.6,2.1,1.6,0,0,.2.1.2.2.2,0,.4,0,.5,0,.3-.4.5-.8.6-1.2,0-.5,0-1-.2-1.6-.2-.6-.7-1-1.2-1.3h0s0,0,0,0Z"/>
  <path class="cls-4" d="M60.6,98.4h0c.3.1.5.2.8.3.5.1,1,.2,1.5.3,1,0,1.9,0,2.8-.2.8-.1,1.5-.2,2.2-.2.5,0,1,0,1.5.3.2,0,.3.2.5.3h.1c0,0,.1.1.2.1.2,0,.3-.2.3-.4,0-1.1-.8-1.9-1.8-2.4-.1,0-.3-.1-.4-.2-1.1-.4-2.2-.4-3.2-.2-.9.2-1.7.3-2.6.5l-1.2.3c-.4.1-1.4.3-1.4.3h0c-.1,0-.2.2-.1.4.2.4.5.5.7.7h0Z"/>
  <path class="cls-4" d="M76.7,89.6c-.2,0-.3-.2-.5-.2-.2-.1-.5-.2-.8-.2h-.2c1.9,2.2.9,4.1,0,5.1-.2,0-.8,0-.9,0,.2-.2.4-.4.5-.7.2-.4.3-.8.3-1.2,0-1-.7-1.9-1.6-2.4-.1,0-.3-.1-.4-.2-.2-.1-.5-.2-.8-.2h-.2c1.9,2.9.6,4.3-.2,4.8-.2,0-.6,0-.8.1,0,0,1.3-1.3.4-2.4-.2-.3-.5-.5-.8-.6-.3-.1-.6-.2-.9-.1h0c1.9,2.2-1.4,3.5-1.4,3.5h0c.3,0,.8.3.9.3,1.6.4,7.4,1.3,8.7-1.7.2-.4.3-1.1.3-1.5,0-.9-.5-2.1-1.6-2.7h0,0Z"/>
  <path class="cls-4" d="M61.4,80.7h-.1c0,0-.1,0-.1,0-.3.2-.5.4-.6.6-.1.2-.3.4-.3.6,0,.2-.1.4,0,.6,0,.2.2.4.5.7,0,0,.3.2.5,0,.4-.1.6-.3.7-.5.1-.2.1-.4.2-.6,0-.2,0-.4,0-.7s-.2-.5-.4-.7c0,0,0,0,0,0Z"/>
  <path class="cls-4" d="M66,70.6c-.6-1.1-1.4-1.9-2.5-2-.6,0-1.1,0-1.7.2h0s0,0,0,0h0c-.4.2-.8.5-1.2.9-1.6,1.4-3,4-3.6,7-.6,3-.3,5.7.6,7.5.6,1.2,1.5,2,2.5,2.2,1.1.2,2.2-.3,3.2-1.2,1.5-1.4,2.9-3.9,3.5-6.9.6-3,.3-5.9-.7-7.7ZM62.1,70.5c-.2,1.5,1.8,1.8,2.3.3h0s0,0,0,0h0c.1.1.2.2.3.4,0,0,0,.1.1.2,0,0,0,.2.1.2.2.5.4,1,.5,1.5-.1,0-.2,0-.3,0-1.3,0-2.1.7-2.3,2,0,0,.4-.3.8-.4.3,0,.8,0,.8,0-.5.6-1.1,1.2-1.6,1.8-.1-.3-.3-.4-.5-.5-.2,0-.5,0-.7.3-.2-.5-.8-1.8-.9-2.1,0,0,.4,0,.7.1.4.2.7.6.7.6,0-.3,0-.9-.1-1.2-.2-.6-.7-1.1-1.5-1.2h-.5c.6-.9,1.3-1.6,2-2ZM58.1,81.3c-.3-1.7,0-3.3.3-4.5,0-.2.2-.8.2-1,0,0,.1.3.5.5.4.2.6.3.8.3,0,0-.3-.4-.3-.9,0-.6.2-1.1.2-1.1.2.2.9,2.1,1.2,2.7,0,.2,0,.3-.1.5,0,0,0,.2,0,.3,0,0,0,.1,0,.2,0,0-2.1,2.5-2.6,3h0s0,0,0,0ZM60.4,84.9c-.7,0-1.1-.5-1.3-.8-.6-.7-.7-1.5-.7-1.5l2.5-3c.1.4.4.5.5.5s0,0,0,0c.2,0,.4-.1.6-.3,0,.2,1.5,2.8,1.5,2.8-.9,1.5-2.3,2.3-3.2,2.2ZM65.2,78.4c-.1.6-.2,1-.4,1.5-.1.4-.4,1-.5,1.4-.3-.5-1-1.5-1.7-2.8,0-.1,0-.2,0-.3,0-.2,0-.5,0-.7.7-.7,1.3-1.5,2-2.3,0,0,.3.3.2.9-.1.5-.6.9-.6.9.5,0,.6,0,1-.1,0,.4-.2,1.1-.3,1.5h0Z"/>
  <path class="cls-4" d="M100,62.1h-.2s0,0,0,0c0-.3-.3-.5-.5-.6-.2-.1-.5-.2-.8,0h0c-1.2.4-2.4.7-3.6,1-.6.2-1.2.3-1.8.4-.6.1-1.2.2-1.8.3-1.3.2-2.5.3-3.8.4-.8,0-1.6.1-2.4.2.1,0,.2,0,.3,0,.4,0,.7-.2,1-.3.7-.2,1.3-.5,2-.7,1.3-.5,2.6-1,3.9-1.6,1.3-.5,2.6-1.2,3.8-1.9,1.2-.8,2.3-1.6,3.4-2.6s.4-.8.2-1.2c-.1-.2-.3-.3-.5-.4-.3-.2-.7-.2-.9,0h0c-1.1.6-2.3,1.3-3.4,1.9-1.2.6-2.3,1.1-3.6,1.5-1.2.4-2.5.9-3.8,1.2-.6.2-1.3.3-1.9.5h-.4c.3,0,.6-.2.9-.3.7-.3,1.3-.7,2-1.1,1.3-.7,2.5-1.5,3.7-2.4,1.2-.8,2.5-1.7,3.5-2.8,1.1-1.1,2-2.1,2.9-3.4.2-.4.2-.9,0-1.2,0-.1-.2-.2-.3-.2-.4-.2-.8-.1-1.1.2h0c-1,.9-2,1.9-3.1,2.7-1.1.8-2.2,1.6-3.3,2.3-.2.1-.5.2-.7.4-1,.6-2,1.1-3,1.6-.2,0-.4.2-.6.3-.4.2-.7.3-1.1.5,0,0,.1,0,.2-.1.4-.3.8-.6,1.2-.9.2-.2.5-.4.7-.5,1.2-1,2.3-2.1,3.3-3.1h0c1.1-1.2,2.2-2.3,3-3.6.9-1.3,1.7-2.6,2.3-4.1.2-.4,0-.9-.4-1.2-.2-.1-.4-.2-.6-.2-.3,0-.6.1-.8.4h0c-.8,1.2-1.7,2.4-2.7,3.5-.3.3-.6.6-.9,1-.6.8-1.3,1.5-2.1,2.1-.4.3-.7.7-1.1,1-.7.6-1.4,1.1-2.1,1.6.1-.1.2-.3.3-.4.6-.8,1.1-1.6,1.6-2.4.4-.6.7-1.1,1-1.7.6-1,1.1-2,1.6-3,.2-.5.4-.9.6-1.4.6-1.5,1-3.1,1.2-4.8,0-.5-.2-.9-.7-1.1-.1,0-.2,0-.3,0-.4,0-.8.3-1,.7h0c-.5,1.2-.9,2.5-1.5,3.7,0,.2-.2.4-.2.6-.6,1.3-1.3,2.5-2,3.7,0,0,0,.1-.1.2-.6.8-1.2,1.6-1.8,2.5-1.9,2.1-5,4.2-6.8,5-.8.4-1.7,1-2.5,1.4h0c-.6.3-1.1.7-1.4,1.3,0,.1-.1.3-.2.5,0,.3-.2.6-.2.9,0,1.1.6,2.2,1.5,2.6.3.2.6.2,1,.3h.2c.3,0,.5-.2.5-.2,0,0-.2-.6.1-.9,0,0,.1,0,.2-.1.2,0,.4-.1.6-.1s.4,0,.5.1c.5.2.8.7.8,1.2s-.5,1.2-1.2,1.3c-.3.1-.9.1-1.2.1-.8,0-1.5,0-2.2-.2-1-.2-1.9-.5-2.8-.9-1.1-.5-3-1.9-3-2-2-1.9-3.3-4.5-3.4-7.3v-.4c0-.4,0-.8,0-1.3,0-.7.2-1.4.5-2.1.4-1.2,1-2.3,1.8-3.3,0,0,.4-.5.9-.9h0c.5-.6,1.1-1.1,1.6-1.5,0,0,0,0-.2-.1s-.1-.1-.2-.2c-.9,0-1.3-.5-1.4-.9h0s0-.1,0-.1c0-.1,0-.6,0-.6,0-.3.3-.7.5-.9s.2-.2.3-.2c.3-.2.6-.3.9-.4,0,0,.2,0,.2,0h0c.9,0,1.7.3,2.1,1.2h-.5c-.2-.2-.4-.4-.8-.4h0c-.1,0-.2,0-.4,0,0,0-.2,0-.2.1-.6.5,0,1.7.7,1.8.1,0,.2,0,.4,0,.2,0,.8-.2,1.5-.4.7-.2,1.6-.4,2.2-.5.2,0,.5,0,.6,0,0,0,0-.3,0-.6,0-.9-.4-2.3-1.7-2.9-1.5-.6-2.8-.7-3.9-.7s-2,.1-3,.3c-3.8.8-6.1,3-8.3,7.8-.7,1.4-1.2,2.8-1.5,3.9-.3,1.1-.5,2-.6,2.4h-.2c-.2-.8-.7-3.5-2.2-6.3-1.1-2.4-2.2-4.1-3.5-5.4-1.3-1.2-2.9-2-4.8-2.4-1-.2-2-.3-3-.3s-2.5,0-3.9.7c-1.9.8-1.9,3.2-1.6,3.5.2,0,.4,0,.6,0,1.3.2,3.4.7,3.8.8,0,0,.2,0,.3,0s0,0,0,0c.9,0,1.4-1.5.5-1.9-.1,0-.2,0-.4,0-.3,0-.6.1-.8.5,0,0-.5,0-.6-.1.3-.8,1-1.2,1.8-1.2s.2,0,.3,0h0c0,0,.2,0,.2,0,.5,0,.9.3,1.2.6.2.2.4.5.5.9,0,0,0,.5,0,.6,0,0,0,0,0,0h0c-.2.4-.5.9-1.4.9,0,0-.1.1-.2.2,0,0-.1.1-.2.1.5.4,1.2.9,1.7,1.5.5.5.8.8.9.9.8,1,1.4,2.1,1.8,3.3.2.7.4,1.4.5,2.1,0,.4,0,.8,0,1.3v.4c0,.2,0,.5,0,.7-.2,1.2-.8,3.1-1.8,4.8,0,0-.1.2-.2.2-.4.6-.8,1.2-1.3,1.6,0,.1-1.9,1.5-3,2-.9.4-1.8.7-2.8.9-.7.1-1.5.2-2.2.2s-.9,0-1.2-.1c-.7,0-1.2-.6-1.2-1.3s.3-1,.8-1.2c.2,0,.3-.1.5-.1s.4,0,.6.1c0,0,.1,0,.2.1.4.3.1.9.1.9,0,0,.2.1.5.2h.2c.4,0,.7-.1,1-.3.9-.5,1.5-1.5,1.5-2.6s0-.6-.2-.9c0-.2-.1-.3-.2-.4-.3-.6-.8-1-1.4-1.3h0c-.8-.4-1.7-1-2.5-1.4-1.7-.8-4.9-2.9-6.8-5-.6-.8-1.2-1.6-1.8-2.5,0,0,0-.1-.1-.2-.8-1.2-1.4-2.5-2-3.7,0-.2-.2-.4-.2-.6-.6-1.2-1.1-2.4-1.5-3.6h0c-.2-.6-.8-.8-1.3-.7-.4.1-.7.5-.7.9s0,0,0,.1c.2,1.7.7,3.2,1.2,4.8.2.5.4.9.6,1.4.5,1,1,2,1.6,3,.3.6.7,1.2,1,1.7.5.8,1,1.6,1.6,2.4.1.1.2.3.3.4-.7-.5-1.4-1.1-2.1-1.6-.4-.3-.7-.6-1.1-1-.7-.6-1.4-1.4-2.1-2.1-.3-.3-.6-.6-.9-1-.9-1.1-1.8-2.3-2.6-3.4h0c-.4-.5-1-.6-1.4-.3-.3.2-.4.5-.4.9s0,.2,0,.4c.6,1.5,1.4,2.8,2.3,4.1.9,1.3,1.9,2.5,3,3.6,0,0,0,0,0,0,1.1,1.1,2.2,2.1,3.3,3.1.2.2.4.4.7.5.4.3.8.6,1.2.9,0,0,.1,0,.2.1-.4-.2-.7-.3-1.1-.5-.2,0-.4-.2-.6-.3-1-.5-2-1-3-1.6-.2-.1-.5-.2-.7-.4-1.2-.7-2.2-1.5-3.3-2.3-1.1-.8-2.1-1.8-3.1-2.6h0c-.3-.3-.7-.4-1.1-.2-.1,0-.2.1-.3.2-.3.4-.3.9,0,1.2.8,1.3,1.8,2.4,2.9,3.4,1.1,1,2.3,1.9,3.5,2.8,1.2.8,2.4,1.6,3.7,2.4.7.4,1.3.7,2,1.1.3.2.6.3.9.4h-.4c-.6-.2-1.3-.4-1.9-.6-1.3-.4-2.5-.8-3.8-1.2-1.3-.4-2.4-1-3.6-1.5-1.2-.6-2.3-1.2-3.4-1.8h0c-.3-.2-.6-.2-.9,0-.2,0-.3.2-.5.4-.2.4-.2.9.2,1.2,1,1,2.2,1.8,3.4,2.6,1.2.8,2.5,1.4,3.8,1.9,1.3.6,2.6,1.1,3.9,1.6.7.2,1.3.5,2,.7.3.1.7.2,1,.3.1,0,.2,0,.3,0-.8,0-1.6,0-2.4-.2-1.3-.1-2.5-.2-3.8-.4-.6,0-1.2-.2-1.8-.3-.6-.1-1.2-.3-1.8-.4-1.2-.3-2.4-.6-3.6-1h0c-.3,0-.5,0-.8,0-.2.1-.4.3-.5.6-.1.5,0,.9.4,1.2,1.2.7,2.4,1.3,3.6,1.8,1.2.5,2.6.8,3.9,1,1.3.3,2.6.5,3.9.7,1.2.2,2.3.4,3.5.5-.7,0-1.5.2-2.2.2-1.2.1-2.4.2-3.6.3-.3,0-.6,0-.9,0h-2.6c-1.2,0-2.4,0-3.5-.2h0c-.2,0-.4,0-.6.1-.3.2-.5.5-.5.8,0,.5.3.9.7,1,1.2.4,2.5.7,3.7.9.6,0,1.3.2,1.9.2.3,0,.7,0,1,0h.9c1.2,0,2.5,0,3.7,0,.8,0,1,0,1.9,0v.4c-1.3.4-2.3.7-3.7,1.1-1.1.3-2.2.5-3.3.7-1.1.2-2.2.5-3.3.7h-.2c-.4.2-.7.7-.6,1.2,0,.5.5.8.9.8,1.2.1,2.4,0,3.6,0,1.2,0,2.4-.4,3.5-.6,1.1-.2,2.8-.6,4-.8v.3c-.4.3-1.4.8-1.9,1.1-.5.3-.9.5-1.4.7-.5.2-.9.5-1.4.7-.9.5-1.9,1-2.9,1.5-.3.2-.5.5-.5.9s0,.3.1.5c.2.4.7.6,1.1.5,1.1-.2,2.2-.5,3.2-.9,1.1-.4,2.1-.8,3.1-1.3.3-.1,1.3-.6,1.6-.7l.2.8c-.2.1-.8.5-.8.5l-1.2,1c-.8.7-1.5,1.4-2.2,2.2-.4.4-.3,1.1.1,1.4.3.3.8.3,1.1.1.9-.5,1.8-1,2.7-1.6l.9-.5s.5,2.9.6,4.1c.4,3.8.3,8.1.7,8.6.3.4,1,.3,1.6.3,0-.1,0-.3,0-.4h0c-.4-2.1.2-3.5.5-4.2h0s0-.2,0-.2c-.1-2.4-.4-6.3-1-9.3-.8-4.8-2.3-12.5-2.7-14.6,0-.1,0-.2.1-.3,0,0,.2-.1.4,0,1.5.4,3.9.6,5.4.7,1.2,0,4,0,6.8-.8-1.2,2.8-1.9,6.1-1.9,9.6,0,6.8,2.7,12.9,6.7,16.5-.5,0-.8.1-.9.2-1,.4-1.9.9-2.3,1.2h0s0,0,0,0c-.2,0-.2.3-.1.5.1.5.4,1.1.7,1.5,0,0,.1.2.2.2,3.8.2,6.6.5,8.8,1.9h0c0,0,.1,0,.2.1,1.1.8,1.5,2.5.6,3.8-.3.3-.6.6-.9.9-1,.9-2.2,1.7-3.3,2.2-1.2.6-2.4.9-3.7,1.1-1.3.2-2.5.4-4.1.8,0,0-.1,0-.1,0-.1,0-.2.2-.2.4,0,0,0,.1,0,.2,1.2,1.3,3,1.8,4.7,1.7,1.3,0,2.6-.5,3.7-1,.4-.2.8-.4,1.1-.6,1.4-.9,2.7-2,3.6-3.4,0,0,0,0,0,0h0c-.2.8-.9,2.7-1.5,3.3-.6.7-1.1,1.3-1.7,1.8-.5.4-.9.7-1.4.9-.2,0-.4.2-.5.2-.8.3-1.6.5-2.7.7,0,0,0,0-.1,0-.1,0-.2.2-.2.4,0,0,0,.2.2.2.9.7,2,.9,3.2.9.6,0,1.2-.2,1.8-.4.6-.2,1.1-.5,1.6-.9.2-.1.3-.3.4-.4.3.5.5,1,.7,1.5.3.6.5,1.2.8,1.9,0,.1.2.2.3.2,0,0,.3,0,.3-.2.3-.6.6-1.2.8-1.9.2-.5.5-1,.7-1.5.1.1.3.3.4.4.5.4,1,.7,1.5.9.6.2,1.2.4,1.8.4,1.2,0,2.3-.2,3.2-.9,0,0,.1-.1.2-.2,0-.2,0-.3-.2-.4,0,0,0,0-.1,0-1-.2-1.9-.4-2.7-.7-.2,0-.4-.2-.5-.2-.5-.3-1-.6-1.4-.9-.6-.5-1.1-1.1-1.7-1.8-.6-.6-1.3-2.6-1.5-3.3h0s0,0,0,0c.9,1.4,2.2,2.5,3.6,3.4.4.2.7.4,1.1.6,1.2.6,2.4.9,3.7,1,1.7,0,3.5-.4,4.7-1.7,0,0,0-.1,0-.2,0-.2,0-.3-.2-.4,0,0,0,0-.1,0-1.6-.4-2.9-.6-4.2-.8-1.3-.2-2.5-.5-3.7-1.1-1.2-.6-2.3-1.3-3.4-2.2-.3-.3-.6-.6-.9-.9-.9-1.2-.4-2.9.6-3.8,0,0,.1,0,.2-.1h0c2.2-1.4,5-1.7,8.8-1.9,0,0,.2,0,.2-.2.3-.4.5-1,.6-1.5,0-.2,0-.4-.1-.5,0,0,0,0,0,0h0c-.5-.3-1.3-.8-2.3-1.2,0,0-.5,0-.9-.2,4-3.6,6.7-9.7,6.7-16.5s-.7-6.8-1.9-9.6c2.8.9,5.6.9,6.8.8,1.6-.1,4-.3,5.4-.7.1,0,.3,0,.4,0,0,0,.1.2.1.3-.4,2.2-1.9,9.8-2.7,14.6-.5,3-.9,6.9-1,9.3,0,0,0,.2,0,.2h0c.4.6,1,2.1.5,4.2h0c0,.2,0,.3,0,.5.6,0,1.3,0,1.6-.3.4-.5.3-4.8.7-8.6.1-1.2.6-4.1.6-4.1l.9.5c.8.6,1.7,1.2,2.7,1.6.1,0,.3.1.5.1.2,0,.5,0,.6-.2.4-.4.5-1,.1-1.4-.7-.8-1.4-1.5-2.2-2.2l-1.2-1s-.6-.4-.8-.5l.2-.8c.3.1,1.3.6,1.6.7,1,.5,2,.9,3.1,1.3,1.1.3,2.1.7,3.2.9.4,0,.9-.1,1.1-.5.3-.5,0-1.1-.4-1.4-.9-.5-1.9-1-2.9-1.5-.5-.2-.9-.5-1.4-.7-.5-.2-.9-.5-1.4-.7-.5-.3-1.5-.8-2-1.1v-.3c1.2.2,2.9.6,4.1.8,1.2.2,2.3.5,3.5.6,1.2,0,2.4.1,3.6,0,.4,0,.8-.4.9-.8,0-.5-.2-.9-.6-1.1,0,0-.1,0-.2,0h0c-1.1-.2-2.2-.4-3.3-.7-1.1-.2-2.2-.4-3.3-.7-1.4-.4-2.4-.7-3.8-1.1v-.4c1,0,1.2,0,2,0h4.6c.3,0,.6,0,1,0,.7,0,1.3,0,1.9-.2,1.3-.2,2.5-.5,3.7-.9.4-.1.7-.5.7-1,0-.4-.2-.6-.5-.8-.2,0-.4-.2-.6-.1h0c-1.2,0-2.4.2-3.5.2h-2.6c-.3,0-.6,0-.9,0-1.2,0-2.4-.2-3.6-.3-.7,0-1.5-.2-2.2-.2,1.2-.1,2.4-.3,3.5-.5,1.3-.2,2.6-.5,3.9-.7,1.3-.3,2.6-.6,3.9-1,1.3-.5,2.5-1,3.6-1.8.4-.2.6-.7.4-1.1ZM55.8,93h0s0,0,0,0h0c-4.5,0-8.5-3-10.9-7.6,1.1-1.9,3.4-6,3.4-6,.2.9,1.5,6.4,1.5,6.4,0,0-1.6.7-.8,1.2.8.5,2.6.1,2.6.1,0,0,.5.4.9.7.6.4,1.2.7,1.9.9.3.1.4.2.4.2,0,0-.2.8,0,1.2,0,.2.2.3.5.3s.2,0,.3,0c.3,0,.5-.3.7-.5.4-.4.5-.7.8-1,0,0,0,0,0,0,.7-.2,1.4-.4,2-1.3-1.6-.6-3-2.1-3.6-4.6-.2-.9-.3-1.9-.3-2.9s0-2.2.3-3.4c0,0,0,0,0-.1.8-4,3.3-7.1,4-7.4-.2-.5-.1-1.8-1.9-2.6-.4-.2-1.6-.2-1.7-.8.6-.4,1-1.1,1.1-1.9.1-1.2-.3-2.2-1.1-2.5.2-.4.6-1,.6-1l-.9-.9h-.2c0,0-1,.6-1,.6,0,0,.3.8.3,1.3-.8.2-1.3.8-1.4,1.9,0,.5.2,1.3.8,1.9.3.3.4.6.2.8-.4.4-1.3.3-1.8,1-.3.4-.6,1.4-.6,1.4-.2.5-1.5,3.5-2.1,4.6-.2.3-.8,1.3-.8,1.3,0,0-.3.2-.6.5-.2.2-.5.5-.7.7-.5.6-.3,1.7,0,2.2l-3.7,6.8c-.1-.3-.2-.5-.2-.5-1-2.5-1.6-5.5-1.6-8.5,0-9.5,5.5-17.3,12.5-17.8h1.6c.8,0,1.5.2,2.2.5.4.1.8.3,1.1.4,5.3,2.4,9.1,9.1,9.1,17s-6,17.8-13.3,17.8ZM50.6,75.1l2.5-4.4s.1.6,1.2,1.1c0,.2.1,1.7.2,1.8h0s-2.6,1-3.8,1.5Z"/>
  <path class="cls-4" d="M52,11.2s0,0,.1,0c.2.3.5.5.9.5h0c.4,0,.7-.2.9-.5h1.4v.9c-.9.2-1.6,1-1.6,2s.2,1,.5,1.4c-.3.1-.7.3-.9.5-.8.8-1,2.4-.3,4.4.5,1.4,1.2,2.5,1.9,3.1.3.3.6.5.9.5h0c.3,0,.6-.2.9-.5.7-.6,1.4-1.8,1.9-3.1.7-2,.5-3.6-.3-4.4-.3-.2-.6-.4-.9-.6.3-.4.5-.8.5-1.3,0-1-.7-1.8-1.6-2v-.9h1.4c.2.3.5.5.9.5h0c.4,0,.7-.2.9-.6,0,0,0,0,.1,0,.3,0,.5-.2.5-.5s-.2-.5-.5-.5h-.1c-.2-.3-.5-.6-.9-.6h0c-.4,0-.7.2-.9.5h-1.4v-1.9c.3-.2.5-.5.5-.9s-.2-.8-.6-.9c0,0,0,0,0-.2,0-.3-.2-.5-.5-.5s-.5.2-.5.5,0,.1,0,.2c-.3.2-.6.5-.6.9s.2.7.5.9v1.9h-1.4c-.2-.3-.5-.5-.9-.5h0c-.4,0-.8.2-.9.6h-.1c-.3,0-.5.2-.5.5s.2.5.5.5h0s0,0,0,0Z"/>
</svg>
