<svg aria-hidden="true" style="width: 0px; height: 0px; overflow: hidden; position: absolute;" xmlns="http://www.w3.org/2000/svg">
    <symbol id="burger_icon" viewBox="0 0 24 24">
      <path d="M21,11H3c-0.6,0-1-0.4-1-1s0.4-1,1-1h18c0.6,0,1,0.4,1,1S21.6,11,21,11z"/>
      <path d="M21,7H3C2.4,7,2,6.6,2,6s0.4-1,1-1h18c0.6,0,1,0.4,1,1S21.6,7,21,7z"/>
      <path d="M21,15H3c-0.6,0-1-0.4-1-1s0.4-1,1-1h18c0.6,0,1,0.4,1,1S21.6,15,21,15z"/>
      <path d="M21,19H3c-0.6,0-1-0.4-1-1s0.4-1,1-1h18c0.6,0,1,0.4,1,1S21.6,19,21,19z"/>
    </symbol>
    <symbol id="search_icon" viewBox="0 0 24 24">
      <path d="M11,20c-5,0-9-4-9-9c0-5,4-9,9-9c5,0,9,4,9,9C20,16,16,20,11,20z M11,4c-3.9,0-7,3.1-7,7c0,3.9,3.1,7,7,7c3.9,0,7-3.1,7-7C18,7.1,14.9,4,11,4z"/>
      <path d="M21,22c-0.3,0-0.5-0.1-0.7-0.3l-4.3-4.3c-0.4-0.4-0.4-1,0-1.4s1-0.4,1.4,0l4.3,4.3c0.4,0.4,0.4,1,0,1.4C21.5,21.9,21.3,22,21,22z"/>
    </symbol>
    <symbol id="vk_icon" viewBox="0 0 24 24">
      <path d="M12.9825 19C5.46596 19 1.17864 13.7447 1 5H4.76515C4.88882 11.4184 7.66459 14.1371 9.86321 14.6977V5H13.4085V10.5355C15.5796 10.2973 17.8607 7.77477 18.6302 5H22.1755C21.8855 6.43908 21.3075 7.80165 20.4776 9.0025C19.6477 10.2033 18.5837 11.2166 17.3523 11.979C18.7269 12.6756 19.941 13.6615 20.9145 14.8717C21.888 16.082 22.5988 17.489 23 19H19.0974C18.7373 17.6876 18.0054 16.5128 16.9934 15.6228C15.9814 14.7328 14.7343 14.1673 13.4085 13.997V19H12.9825Z"/>
    </symbol>
    <symbol id="tg_icon" viewBox="0 0 24 24">
      <path d="M21,4.1l-3,15.7c0,0-0.4,1.1-1.6,0.6l-6.9-5.5l0,0c0.9-0.9,8.2-7.6,8.5-7.9c0.5-0.5,0.2-0.8-0.4-0.4L6.9,13.6l-4.1-1.4c0,0-0.7-0.2-0.7-0.8c-0.1-0.5,0.7-0.8,0.7-0.8l16.9-6.9C19.6,3.7,21,3.1,21,4.1z"/>
    </symbol>
    <symbol id="yt_icon" viewBox="0 0 24 24">
      <path d="M3.3,19.1c-0.4-0.1-0.8-0.3-1-0.6c-0.3-0.3-0.5-0.6-0.6-1c-0.7-2-1-10.2,0.5-11.8c0.5-0.5,1.1-0.9,1.8-0.9c3.8-0.4,15.5-0.3,16.9,0.1c0.4,0.1,0.7,0.3,1,0.6c0.3,0.3,0.5,0.6,0.6,1c0.8,2,0.8,9.4-0.1,11.4c-0.2,0.5-0.7,0.9-1.2,1.2C19.7,19.7,5.1,19.7,3.3,19.1z M9.3,15.2l6.8-3.5L9.3,8.3V15.2z"/>
    </symbol>
    <symbol id="ok_icon" viewBox="0 0 24 24">
      <path d="M18.4,14.6c0.5-0.5,0.6-1.3,0.1-2c-0.4-0.6-1-0.9-1.8-0.7c-0.3,0.1-0.6,0.2-0.9,0.4c-2.3,1.6-5.5,1.5-7.8-0.1C7.9,12.1,7.8,12,7.6,12c-0.8-0.4-1.6-0.2-2.1,0.5c-0.5,0.7-0.4,1.6,0.2,2.2C5.9,14.9,6,15,6.1,15.1l0.1,0.1c1,0.8,2.3,1.3,4,1.6l-1,1c-0.8,0.8-1.7,1.7-2.5,2.5c-0.2,0.2-0.5,0.6-0.5,1.1c0,0.7,0.4,1.3,1,1.6c0.2,0.1,0.4,0.1,0.7,0.1c0.4,0,0.8-0.1,1.1-0.5c1.1-1.1,2-2,2.9-2.9c0.1-0.1,0.1-0.1,0.1-0.1s0.1,0,0.1,0.1c0.6,0.7,1.3,1.3,1.9,1.9c0.3,0.3,0.6,0.6,0.9,0.9c0.4,0.4,0.7,0.5,1.1,0.5c0.7,0.1,1.4-0.4,1.7-1c0.3-0.6,0.1-1.3-0.4-1.8c-0.7-0.7-1.5-1.6-2.3-2.3l-1.3-1.3c0.7-0.1,1.4-0.2,2.1-0.5C16.9,15.8,17.7,15.3,18.4,14.6z"/>
    	<path d="M12,12.5c3.2,0,5.8-2.5,5.8-5.8c0-1.6-0.6-3.1-1.7-4.2c-1.1-1.1-2.5-1.7-4-1.7c-3.2,0-5.8,2.6-5.8,5.8c0,1.6,0.6,3,1.7,4.1C9,11.9,10.4,12.5,12,12.5z M10.3,5c0.4-0.4,1-0.7,1.6-0.7c1.3,0,2.3,1,2.3,2.3C14.3,8,13.2,9,12,9c-1.3,0-2.3-1-2.3-2.3C9.6,6,9.9,5.4,10.3,5z"/>
    </symbol>
    <symbol id="close_icon" viewBox="0 0 24 24">
      <path d="M4,21c-0.3,0-0.5-0.1-0.7-0.3c-0.4-0.4-0.4-1,0-1.4l16-16c0.4-0.4,1-0.4,1.4,0s0.4,1,0,1.4l-16,16C4.5,20.9,4.3,21,4,21z"/>
      <path d="M20,21c-0.3,0-0.5-0.1-0.7-0.3l-16-16c-0.4-0.4-0.4-1,0-1.4s1-0.4,1.4,0l16,16c0.4,0.4,0.4,1,0,1.4C20.5,20.9,20.3,21,20,21z"/>
    </symbol>
    <symbol id="phone_icon" viewBox="0 0 24 24">
      <path d="M22,18.3c0,0.4-0.1,0.7-0.3,1.1s-0.4,0.7-0.7,1c-0.5,0.5-1,0.9-1.6,1.2c-0.6,0.3-1.3,0.4-1.9,0.4c-1,0-2.1-0.2-3.3-0.7s-2.3-1.1-3.4-2c-1.1-0.8-2.2-1.8-3.3-2.8c-1-1-2-2.1-2.8-3.3c-0.8-1.1-1.5-2.3-2-3.4C2.2,8.7,2,7.6,2,6.5c0-0.7,0.1-1.3,0.4-1.9C2.6,4,3,3.4,3.5,2.9C4.2,2.3,4.8,2,5.6,2c0.3,0,0.6,0.1,0.8,0.2c0.3,0.1,0.5,0.3,0.7,0.6L9.4,6c0.2,0.3,0.3,0.5,0.4,0.7c0.1,0.2,0.1,0.4,0.1,0.6c0,0.2-0.1,0.5-0.2,0.7C9.6,8.3,9.4,8.5,9.2,8.7L8.4,9.5C8.3,9.6,8.2,9.8,8.2,9.9c0,0.1,0,0.1,0,0.2c0,0.1,0.1,0.1,0.1,0.2c0.2,0.3,0.5,0.8,0.9,1.3c0.4,0.5,0.9,1,1.4,1.6c0.5,0.5,1.1,1,1.6,1.5c0.5,0.4,1,0.7,1.3,0.9c0.1,0,0.1,0.1,0.2,0.1c0.1,0,0.2,0,0.3,0c0.2,0,0.3-0.1,0.4-0.2l0.8-0.8c0.3-0.3,0.5-0.4,0.7-0.6c0.2-0.1,0.5-0.2,0.7-0.2c0.2,0,0.4,0,0.6,0.1s0.5,0.2,0.7,0.4l3.3,2.3c0.3,0.2,0.4,0.4,0.5,0.6C21.9,17.8,22,18,22,18.3z"/>
      <path d="M18.5,9.8c-0.4,0-0.8-0.3-0.8-0.8c0-0.3-0.3-1-1-1.8c-0.6-0.6-1.2-1-1.8-1c-0.4,0-0.8-0.3-0.8-0.8s0.3-0.8,0.8-0.8c1,0,2,0.5,2.9,1.5c0.8,0.9,1.4,2,1.4,2.8C19.3,9.4,18.9,9.8,18.5,9.8z"/>
      <path d="M22,9.8c-0.4,0-0.8-0.3-0.8-0.8c0-3.4-2.8-6.3-6.3-6.3c-0.4,0-0.8-0.3-0.8-0.8s0.3-0.8,0.8-0.8c4.3,0,7.8,3.5,7.8,7.8C22.8,9.4,22.4,9.8,22,9.8z"/>
    </symbol>
    <symbol id="email_icon" viewBox="0 0 24 24">
      <path d="M17,20.5H7c-3,0-5-1.5-5-5v-7c0-3.5,2-5,5-5h10c3,0,5,1.5,5,5v7C22,19,20,20.5,17,20.5z"/>
      <path fill="#FFFFFF" d="M12,12.9c-0.8,0-1.7-0.3-2.3-0.8L3,6.6C2.7,6.3,2.7,5.8,2.9,5.5C3.2,5.2,3.7,5.2,4,5.4l6.6,5.5c0.8,0.6,2,0.6,2.8,0L19.5,5c0.3-0.3,0.8-0.3,1.1,0c0.3,0.3,0.3,0.8,0,1.1l-6.1,6C13.7,12.6,12.8,12.9,12,12.9z"/>
    </symbol>
    <symbol id="eye_icon" viewBox="0 0 24 24">
      <path d="M12,20.3c3.5,0,6.8-2.1,9.1-5.7c0.9-1.4,0.9-3.8,0-5.2c-2.3-3.6-5.6-5.7-9.1-5.7c-3.5,0-6.8,2.1-9.1,5.7c-0.9,1.4-0.9,3.8,0,5.2C5.2,18.2,8.5,20.3,12,20.3z"/>
      <path fill="#FFFFFF" d="M12,16.3c-2.4,0-4.3-1.9-4.3-4.3S9.6,7.7,12,7.7s4.3,1.9,4.3,4.3S14.4,16.3,12,16.3z M12,9.2c-1.6,0-2.8,1.3-2.8,2.8s1.3,2.8,2.8,2.8s2.8-1.3,2.8-2.8S13.6,9.2,12,9.2z"/>
    </symbol>
    <symbol id="arrow_left_icon" viewBox="0 0 31 31">
      <path d="M12.5,24c-0.2,0-0.5-0.1-0.7-0.3l-7.6-7.6c-0.4-0.4-0.4-1,0-1.3l7.6-7.6c0.4-0.4,1-0.4,1.3,0c0.4,0.4,0.4,1,0,1.3l-6.9,6.9l6.9,6.9c0.4,0.4,0.4,1,0,1.3C12.9,23.9,12.7,24,12.5,24z"/>
      <path d="M26.1,16.4h-21c-0.5,0-0.9-0.4-0.9-0.9s0.4-0.9,0.9-0.9h21c0.5,0,0.9,0.4,0.9,0.9S26.6,16.4,26.1,16.4z"/>
    </symbol>
    <symbol id="arrow_right_icon" viewBox="0 0 31 31">
      <path d="M18.5,24c-0.2,0-0.5-0.1-0.7-0.3c-0.4-0.4-0.4-1,0-1.3l6.9-6.9l-6.9-6.9c-0.4-0.4-0.4-1,0-1.3c0.4-0.4,1-0.4,1.3,0l7.6,7.6c0.2,0.2,0.3,0.4,0.3,0.7S27,16,26.8,16.2l-7.6,7.6C19,23.9,18.8,24,18.5,24z"/>
      <path d="M25.9,16.4h-21c-0.5,0-0.9-0.4-0.9-0.9s0.4-0.9,0.9-0.9h21c0.5,0,0.9,0.4,0.9,0.9S26.4,16.4,25.9,16.4z"/>
    </symbol>
    <symbol id="clock_icon" viewBox="0 0 18 18">
      <path d="M9,17.2c-4.5,0-8.2-3.7-8.2-8.2S4.5,0.8,9,0.8s8.2,3.7,8.2,8.2S13.5,17.2,9,17.2z M9,2.2C5.2,2.2,2.2,5.2,2.2,9c0,3.8,3.1,6.8,6.8,6.8c3.8,0,6.8-3.1,6.8-6.8C15.8,5.2,12.8,2.2,9,2.2z"/>
      <path d="M11.2,12.7c-0.1,0-0.2,0-0.3-0.1l-3-1.5c-0.2-0.1-0.4-0.3-0.4-0.6V6c0-0.4,0.3-0.7,0.7-0.7S8.9,5.6,8.9,6v4.1l2.6,1.3c0.3,0.2,0.5,0.6,0.3,0.9C11.7,12.5,11.5,12.7,11.2,12.7z"/>
    </symbol>
    <symbol id="plus_icon" viewBox="0 0 16 16">
      <path d="M8,15.4c-0.4,0-0.8-0.3-0.8-0.8V1.3c0-0.4,0.3-0.8,0.8-0.8s0.8,0.3,0.8,0.8v13.3C8.8,15.1,8.4,15.4,8,15.4z"/>
      <path d="M14.7,8.8H1.3C0.9,8.8,0.6,8.4,0.6,8s0.3-0.8,0.8-0.8h13.3c0.4,0,0.8,0.3,0.8,0.8S15.1,8.8,14.7,8.8z"/>
    </symbol>
    <symbol id="user_icon" viewBox="0 0 24 24">
      <path d="M20,22c-0.6,0-1-0.4-1-1v-2c0-0.8-0.3-1.6-0.9-2.1S16.8,16,16,16H8c-0.8,0-1.6,0.3-2.1,0.9C5.3,17.4,5,18.2,5,19v2c0,0.6-0.4,1-1,1s-1-0.4-1-1v-2c0-1.3,0.5-2.6,1.5-3.5C5.4,14.5,6.7,14,8,14h8c1.3,0,2.6,0.5,3.5,1.5S21,17.7,21,19v2C21,21.6,20.6,22,20,22z"/>
      <path d="M12,12c-2.8,0-5-2.2-5-5s2.2-5,5-5s5,2.2,5,5S14.8,12,12,12z M12,4c-1.7,0-3,1.3-3,3s1.3,3,3,3s3-1.3,3-3S13.7,4,12,4z"/>
    </symbol>
    <symbol id="triangle_down" viewBox="0 0 9 9">
      <path d="M4.5,7.5L0,1.5h9L4.5,7.5z"/>
    </symbol>
    <symbol id="filter_icon" viewBox="0 0 24 24">
      <path d="M19,22.8c-0.4,0-0.8-0.3-0.8-0.8V11c0-0.4,0.3-0.8,0.8-0.8s0.8,0.3,0.8,0.8v11C19.8,22.4,19.4,22.8,19,22.8z"/>
      <path d="M19,7.8c-0.4,0-0.8-0.3-0.8-0.8V2c0-0.4,0.3-0.8,0.8-0.8s0.8,0.3,0.8,0.8v5C19.8,7.4,19.4,7.8,19,7.8z"/>
      <path d="M12,22.8c-0.4,0-0.8-0.3-0.8-0.8v-5c0-0.4,0.3-0.8,0.8-0.8s0.8,0.3,0.8,0.8v5C12.8,22.4,12.4,22.8,12,22.8z"/>
      <path d="M12,13.8c-0.4,0-0.8-0.3-0.8-0.8V2c0-0.4,0.3-0.8,0.8-0.8s0.8,0.3,0.8,0.8v11C12.8,13.4,12.4,13.8,12,13.8z"/>
      <path d="M5,22.8c-0.4,0-0.8-0.3-0.8-0.8V11c0-0.4,0.3-0.8,0.8-0.8s0.8,0.3,0.8,0.8v11C5.8,22.4,5.4,22.8,5,22.8z"/>
      <path d="M5,7.8C4.6,7.8,4.3,7.4,4.3,7V2c0-0.4,0.3-0.8,0.8-0.8S5.8,1.6,5.8,2v5C5.8,7.4,5.4,7.8,5,7.8z"/>
      <path d="M7,11.8H3c-0.4,0-0.8-0.3-0.8-0.8s0.3-0.8,0.8-0.8h4c0.4,0,0.8,0.3,0.8,0.8S7.4,11.8,7,11.8z"/>
      <path d="M21,11.8h-4c-0.4,0-0.8-0.3-0.8-0.8s0.3-0.8,0.8-0.8h4c0.4,0,0.8,0.3,0.8,0.8S21.4,11.8,21,11.8z"/>
      <path d="M14,13.8h-4c-0.4,0-0.8-0.3-0.8-0.8s0.3-0.8,0.8-0.8h4c0.4,0,0.8,0.3,0.8,0.8S14.4,13.8,14,13.8z"/>
    </symbol>
    <symbol id="user_fill_icon" viewBox="0 0 20 20">
      <path d="M10.0007 10.0003C12.3018 10.0003 14.1673 8.13485 14.1673 5.83366C14.1673 3.53247 12.3018 1.66699 10.0007 1.66699C7.69946 1.66699 5.83398 3.53247 5.83398 5.83366C5.83398 8.13485 7.69946 10.0003 10.0007 10.0003Z"/>
      <path d="M10.0008 12.083C5.82578 12.083 2.42578 14.883 2.42578 18.333C2.42578 18.5663 2.60911 18.7497 2.84245 18.7497H17.1591C17.3924 18.7497 17.5758 18.5663 17.5758 18.333C17.5758 14.883 14.1758 12.083 10.0008 12.083Z"/>
    </symbol>
    <symbol id="desk_icon" viewBox="0 0 20 20">
      <path d="M13.3327 3.54199C13.3327 4.57533 12.491 5.41699 11.4577 5.41699H8.54102C8.02435 5.41699 7.55768 5.20866 7.21602 4.86699C6.87435 4.52533 6.66602 4.05866 6.66602 3.54199C6.66602 2.50866 7.50768 1.66699 8.54102 1.66699H11.4577C11.9743 1.66699 12.441 1.87533 12.7827 2.21699C13.1243 2.55866 13.3327 3.02533 13.3327 3.54199Z"/>
      <path d="M15.6923 4.19127C15.5007 4.03294 15.284 3.90794 15.0507 3.81627C14.809 3.7246 14.5673 3.91627 14.5173 4.16627C14.234 5.59127 12.9757 6.66627 11.459 6.66627H8.54232C7.70898 6.66627 6.92565 6.34127 6.33398 5.7496C5.90065 5.31627 5.60065 4.76627 5.48398 4.1746C5.43398 3.9246 5.18398 3.7246 4.94232 3.8246C3.97565 4.21627 3.33398 5.0996 3.33398 6.8746V14.9996C3.33398 17.4996 4.82565 18.3329 6.66732 18.3329H13.334C15.1757 18.3329 16.6673 17.4996 16.6673 14.9996V6.8746C16.6673 5.51627 16.2923 4.68294 15.6923 4.19127ZM6.66732 10.2079H10.0007C10.3423 10.2079 10.6257 10.4913 10.6257 10.8329C10.6257 11.1746 10.3423 11.4579 10.0007 11.4579H6.66732C6.32565 11.4579 6.04232 11.1746 6.04232 10.8329C6.04232 10.4913 6.32565 10.2079 6.66732 10.2079ZM13.334 14.7913H6.66732C6.32565 14.7913 6.04232 14.5079 6.04232 14.1663C6.04232 13.8246 6.32565 13.5413 6.66732 13.5413H13.334C13.6757 13.5413 13.959 13.8246 13.959 14.1663C13.959 14.5079 13.6757 14.7913 13.334 14.7913Z"/>
    </symbol>
    <symbol id="docs_icon" viewBox="0 0 20 20">
      <path d="M13.3327 10.5746V15.0663C13.3327 17.0163 12.0327 18.3079 10.091 18.3079H4.90768C2.96602 18.3079 1.66602 17.0163 1.66602 15.0663V8.59128C1.66602 6.64128 2.96602 5.34961 4.90768 5.34961H8.09935C8.95768 5.34961 9.78268 5.69128 10.391 6.29961L12.3827 8.28294C12.991 8.89128 13.3327 9.71628 13.3327 10.5746Z"/>
      <path d="M18.3336 6.87494V11.3666C18.3336 13.3083 17.0336 14.6083 15.0919 14.6083H14.1669V10.5749C14.1669 9.49993 13.7336 8.44993 12.9753 7.6916L10.9836 5.70827C10.2253 4.94994 9.17526 4.5166 8.10026 4.5166H6.68359C6.83359 2.78327 8.09193 1.6416 9.90859 1.6416H13.1003C13.9586 1.6416 14.7836 1.98327 15.3919 2.5916L17.3836 4.58327C17.9919 5.1916 18.3336 6.0166 18.3336 6.87494Z"/>
    </symbol>
    <symbol id="" viewBox="0 0 24 24">
    </symbol>
</svg>
