<svg aria-hidden="true" style="width: 0px; height: 0px; overflow: hidden; position: absolute;" xmlns="http://www.w3.org/2000/svg">
    <symbol id="burger_icon" viewBox="0 0 24 24">
      <path d="M21,11H3c-0.6,0-1-0.4-1-1s0.4-1,1-1h18c0.6,0,1,0.4,1,1S21.6,11,21,11z"/>
      <path d="M21,7H3C2.4,7,2,6.6,2,6s0.4-1,1-1h18c0.6,0,1,0.4,1,1S21.6,7,21,7z"/>
      <path d="M21,15H3c-0.6,0-1-0.4-1-1s0.4-1,1-1h18c0.6,0,1,0.4,1,1S21.6,15,21,15z"/>
      <path d="M21,19H3c-0.6,0-1-0.4-1-1s0.4-1,1-1h18c0.6,0,1,0.4,1,1S21.6,19,21,19z"/>
    </symbol>
    <symbol id="search_icon" viewBox="0 0 24 24">
      <path d="M11,20c-5,0-9-4-9-9c0-5,4-9,9-9c5,0,9,4,9,9C20,16,16,20,11,20z M11,4c-3.9,0-7,3.1-7,7c0,3.9,3.1,7,7,7c3.9,0,7-3.1,7-7C18,7.1,14.9,4,11,4z"/>
      <path d="M21,22c-0.3,0-0.5-0.1-0.7-0.3l-4.3-4.3c-0.4-0.4-0.4-1,0-1.4s1-0.4,1.4,0l4.3,4.3c0.4,0.4,0.4,1,0,1.4C21.5,21.9,21.3,22,21,22z"/>
    </symbol>
    <symbol id="vk_icon" viewBox="0 0 24 24">
      <path d="M12.9825 19C5.46596 19 1.17864 13.7447 1 5H4.76515C4.88882 11.4184 7.66459 14.1371 9.86321 14.6977V5H13.4085V10.5355C15.5796 10.2973 17.8607 7.77477 18.6302 5H22.1755C21.8855 6.43908 21.3075 7.80165 20.4776 9.0025C19.6477 10.2033 18.5837 11.2166 17.3523 11.979C18.7269 12.6756 19.941 13.6615 20.9145 14.8717C21.888 16.082 22.5988 17.489 23 19H19.0974C18.7373 17.6876 18.0054 16.5128 16.9934 15.6228C15.9814 14.7328 14.7343 14.1673 13.4085 13.997V19H12.9825Z"/>
    </symbol>
    <symbol id="tg_icon" viewBox="0 0 24 24">
      <path d="M21,4.1l-3,15.7c0,0-0.4,1.1-1.6,0.6l-6.9-5.5l0,0c0.9-0.9,8.2-7.6,8.5-7.9c0.5-0.5,0.2-0.8-0.4-0.4L6.9,13.6l-4.1-1.4c0,0-0.7-0.2-0.7-0.8c-0.1-0.5,0.7-0.8,0.7-0.8l16.9-6.9C19.6,3.7,21,3.1,21,4.1z"/>
    </symbol>
    <symbol id="yt_icon" viewBox="0 0 24 24">
      <path d="M3.3,19.1c-0.4-0.1-0.8-0.3-1-0.6c-0.3-0.3-0.5-0.6-0.6-1c-0.7-2-1-10.2,0.5-11.8c0.5-0.5,1.1-0.9,1.8-0.9c3.8-0.4,15.5-0.3,16.9,0.1c0.4,0.1,0.7,0.3,1,0.6c0.3,0.3,0.5,0.6,0.6,1c0.8,2,0.8,9.4-0.1,11.4c-0.2,0.5-0.7,0.9-1.2,1.2C19.7,19.7,5.1,19.7,3.3,19.1z M9.3,15.2l6.8-3.5L9.3,8.3V15.2z"/>
    </symbol>
    <symbol id="ok_icon" viewBox="0 0 24 24">
      <path d="M18.4,14.6c0.5-0.5,0.6-1.3,0.1-2c-0.4-0.6-1-0.9-1.8-0.7c-0.3,0.1-0.6,0.2-0.9,0.4c-2.3,1.6-5.5,1.5-7.8-0.1C7.9,12.1,7.8,12,7.6,12c-0.8-0.4-1.6-0.2-2.1,0.5c-0.5,0.7-0.4,1.6,0.2,2.2C5.9,14.9,6,15,6.1,15.1l0.1,0.1c1,0.8,2.3,1.3,4,1.6l-1,1c-0.8,0.8-1.7,1.7-2.5,2.5c-0.2,0.2-0.5,0.6-0.5,1.1c0,0.7,0.4,1.3,1,1.6c0.2,0.1,0.4,0.1,0.7,0.1c0.4,0,0.8-0.1,1.1-0.5c1.1-1.1,2-2,2.9-2.9c0.1-0.1,0.1-0.1,0.1-0.1s0.1,0,0.1,0.1c0.6,0.7,1.3,1.3,1.9,1.9c0.3,0.3,0.6,0.6,0.9,0.9c0.4,0.4,0.7,0.5,1.1,0.5c0.7,0.1,1.4-0.4,1.7-1c0.3-0.6,0.1-1.3-0.4-1.8c-0.7-0.7-1.5-1.6-2.3-2.3l-1.3-1.3c0.7-0.1,1.4-0.2,2.1-0.5C16.9,15.8,17.7,15.3,18.4,14.6z"/>
    	<path d="M12,12.5c3.2,0,5.8-2.5,5.8-5.8c0-1.6-0.6-3.1-1.7-4.2c-1.1-1.1-2.5-1.7-4-1.7c-3.2,0-5.8,2.6-5.8,5.8c0,1.6,0.6,3,1.7,4.1C9,11.9,10.4,12.5,12,12.5z M10.3,5c0.4-0.4,1-0.7,1.6-0.7c1.3,0,2.3,1,2.3,2.3C14.3,8,13.2,9,12,9c-1.3,0-2.3-1-2.3-2.3C9.6,6,9.9,5.4,10.3,5z"/>
    </symbol>
    <symbol id="close_icon" viewBox="0 0 24 24">
      <path d="M4,21c-0.3,0-0.5-0.1-0.7-0.3c-0.4-0.4-0.4-1,0-1.4l16-16c0.4-0.4,1-0.4,1.4,0s0.4,1,0,1.4l-16,16C4.5,20.9,4.3,21,4,21z"/>
      <path d="M20,21c-0.3,0-0.5-0.1-0.7-0.3l-16-16c-0.4-0.4-0.4-1,0-1.4s1-0.4,1.4,0l16,16c0.4,0.4,0.4,1,0,1.4C20.5,20.9,20.3,21,20,21z"/>
    </symbol>
    <symbol id="phone_icon" viewBox="0 0 24 24">
      <path d="M22,18.3c0,0.4-0.1,0.7-0.3,1.1s-0.4,0.7-0.7,1c-0.5,0.5-1,0.9-1.6,1.2c-0.6,0.3-1.3,0.4-1.9,0.4c-1,0-2.1-0.2-3.3-0.7s-2.3-1.1-3.4-2c-1.1-0.8-2.2-1.8-3.3-2.8c-1-1-2-2.1-2.8-3.3c-0.8-1.1-1.5-2.3-2-3.4C2.2,8.7,2,7.6,2,6.5c0-0.7,0.1-1.3,0.4-1.9C2.6,4,3,3.4,3.5,2.9C4.2,2.3,4.8,2,5.6,2c0.3,0,0.6,0.1,0.8,0.2c0.3,0.1,0.5,0.3,0.7,0.6L9.4,6c0.2,0.3,0.3,0.5,0.4,0.7c0.1,0.2,0.1,0.4,0.1,0.6c0,0.2-0.1,0.5-0.2,0.7C9.6,8.3,9.4,8.5,9.2,8.7L8.4,9.5C8.3,9.6,8.2,9.8,8.2,9.9c0,0.1,0,0.1,0,0.2c0,0.1,0.1,0.1,0.1,0.2c0.2,0.3,0.5,0.8,0.9,1.3c0.4,0.5,0.9,1,1.4,1.6c0.5,0.5,1.1,1,1.6,1.5c0.5,0.4,1,0.7,1.3,0.9c0.1,0,0.1,0.1,0.2,0.1c0.1,0,0.2,0,0.3,0c0.2,0,0.3-0.1,0.4-0.2l0.8-0.8c0.3-0.3,0.5-0.4,0.7-0.6c0.2-0.1,0.5-0.2,0.7-0.2c0.2,0,0.4,0,0.6,0.1s0.5,0.2,0.7,0.4l3.3,2.3c0.3,0.2,0.4,0.4,0.5,0.6C21.9,17.8,22,18,22,18.3z"/>
      <path d="M18.5,9.8c-0.4,0-0.8-0.3-0.8-0.8c0-0.3-0.3-1-1-1.8c-0.6-0.6-1.2-1-1.8-1c-0.4,0-0.8-0.3-0.8-0.8s0.3-0.8,0.8-0.8c1,0,2,0.5,2.9,1.5c0.8,0.9,1.4,2,1.4,2.8C19.3,9.4,18.9,9.8,18.5,9.8z"/>
      <path d="M22,9.8c-0.4,0-0.8-0.3-0.8-0.8c0-3.4-2.8-6.3-6.3-6.3c-0.4,0-0.8-0.3-0.8-0.8s0.3-0.8,0.8-0.8c4.3,0,7.8,3.5,7.8,7.8C22.8,9.4,22.4,9.8,22,9.8z"/>
    </symbol>
    <symbol id="email_icon" viewBox="0 0 24 24">
      <path d="M17,20.5H7c-3,0-5-1.5-5-5v-7c0-3.5,2-5,5-5h10c3,0,5,1.5,5,5v7C22,19,20,20.5,17,20.5z"/>
      <path fill="#FFFFFF" d="M12,12.9c-0.8,0-1.7-0.3-2.3-0.8L3,6.6C2.7,6.3,2.7,5.8,2.9,5.5C3.2,5.2,3.7,5.2,4,5.4l6.6,5.5c0.8,0.6,2,0.6,2.8,0L19.5,5c0.3-0.3,0.8-0.3,1.1,0c0.3,0.3,0.3,0.8,0,1.1l-6.1,6C13.7,12.6,12.8,12.9,12,12.9z"/>
    </symbol>
    <symbol id="eye_icon" viewBox="0 0 24 24">
      <path d="M12,20.3c3.5,0,6.8-2.1,9.1-5.7c0.9-1.4,0.9-3.8,0-5.2c-2.3-3.6-5.6-5.7-9.1-5.7c-3.5,0-6.8,2.1-9.1,5.7c-0.9,1.4-0.9,3.8,0,5.2C5.2,18.2,8.5,20.3,12,20.3z"/>
      <path fill="#FFFFFF" d="M12,16.3c-2.4,0-4.3-1.9-4.3-4.3S9.6,7.7,12,7.7s4.3,1.9,4.3,4.3S14.4,16.3,12,16.3z M12,9.2c-1.6,0-2.8,1.3-2.8,2.8s1.3,2.8,2.8,2.8s2.8-1.3,2.8-2.8S13.6,9.2,12,9.2z"/>
    </symbol>
    <symbol id="" viewBox="0 0 24 24">
    </symbol>
    <symbol id="" viewBox="0 0 24 24">
    </symbol>
    <symbol id="" viewBox="0 0 24 24">
    </symbol>
    <symbol id="" viewBox="0 0 24 24">
    </symbol>
    <symbol id="" viewBox="0 0 24 24">
    </symbol>
    <symbol id="" viewBox="0 0 24 24">
    </symbol>
    <symbol id="" viewBox="0 0 24 24">
    </symbol>
    <symbol id="" viewBox="0 0 24 24">
    </symbol>
    <symbol id="" viewBox="0 0 24 24">
    </symbol>
    <symbol id="" viewBox="0 0 24 24">
    </symbol>
    <symbol id="" viewBox="0 0 24 24">
    </symbol>
</svg>
