<svg aria-hidden="true" style="width: 0px; height: 0px; overflow: hidden; position: absolute;" xmlns="http://www.w3.org/2000/svg">
    <symbol id="burger_icon" viewBox="0 0 24 24">
      <path d="M21,11H3c-0.6,0-1-0.4-1-1s0.4-1,1-1h18c0.6,0,1,0.4,1,1S21.6,11,21,11z"/>
      <path d="M21,7H3C2.4,7,2,6.6,2,6s0.4-1,1-1h18c0.6,0,1,0.4,1,1S21.6,7,21,7z"/>
      <path d="M21,15H3c-0.6,0-1-0.4-1-1s0.4-1,1-1h18c0.6,0,1,0.4,1,1S21.6,15,21,15z"/>
      <path d="M21,19H3c-0.6,0-1-0.4-1-1s0.4-1,1-1h18c0.6,0,1,0.4,1,1S21.6,19,21,19z"/>
    </symbol>
    <symbol id="search_icon" viewBox="0 0 24 24">
      <path d="M11,20c-5,0-9-4-9-9c0-5,4-9,9-9c5,0,9,4,9,9C20,16,16,20,11,20z M11,4c-3.9,0-7,3.1-7,7c0,3.9,3.1,7,7,7c3.9,0,7-3.1,7-7C18,7.1,14.9,4,11,4z"/>
      <path d="M21,22c-0.3,0-0.5-0.1-0.7-0.3l-4.3-4.3c-0.4-0.4-0.4-1,0-1.4s1-0.4,1.4,0l4.3,4.3c0.4,0.4,0.4,1,0,1.4C21.5,21.9,21.3,22,21,22z"/>
    </symbol>
    <symbol id="vk_icon" viewBox="0 0 24 24">
      <path d="M12.9825 19C5.46596 19 1.17864 13.7447 1 5H4.76515C4.88882 11.4184 7.66459 14.1371 9.86321 14.6977V5H13.4085V10.5355C15.5796 10.2973 17.8607 7.77477 18.6302 5H22.1755C21.8855 6.43908 21.3075 7.80165 20.4776 9.0025C19.6477 10.2033 18.5837 11.2166 17.3523 11.979C18.7269 12.6756 19.941 13.6615 20.9145 14.8717C21.888 16.082 22.5988 17.489 23 19H19.0974C18.7373 17.6876 18.0054 16.5128 16.9934 15.6228C15.9814 14.7328 14.7343 14.1673 13.4085 13.997V19H12.9825Z"/>
    </symbol>
    <symbol id="tg_icon" viewBox="0 0 24 24">
      <path d="M21,4.1l-3,15.7c0,0-0.4,1.1-1.6,0.6l-6.9-5.5l0,0c0.9-0.9,8.2-7.6,8.5-7.9c0.5-0.5,0.2-0.8-0.4-0.4L6.9,13.6l-4.1-1.4c0,0-0.7-0.2-0.7-0.8c-0.1-0.5,0.7-0.8,0.7-0.8l16.9-6.9C19.6,3.7,21,3.1,21,4.1z"/>
    </symbol>
    <symbol id="yt_icon" viewBox="0 0 24 24">
      <path d="M3.3,19.1c-0.4-0.1-0.8-0.3-1-0.6c-0.3-0.3-0.5-0.6-0.6-1c-0.7-2-1-10.2,0.5-11.8c0.5-0.5,1.1-0.9,1.8-0.9c3.8-0.4,15.5-0.3,16.9,0.1c0.4,0.1,0.7,0.3,1,0.6c0.3,0.3,0.5,0.6,0.6,1c0.8,2,0.8,9.4-0.1,11.4c-0.2,0.5-0.7,0.9-1.2,1.2C19.7,19.7,5.1,19.7,3.3,19.1z M9.3,15.2l6.8-3.5L9.3,8.3V15.2z"/>
    </symbol>
    <symbol id="ok_icon" viewBox="0 0 24 24">
      <path d="M18.4,14.6c0.5-0.5,0.6-1.3,0.1-2c-0.4-0.6-1-0.9-1.8-0.7c-0.3,0.1-0.6,0.2-0.9,0.4c-2.3,1.6-5.5,1.5-7.8-0.1C7.9,12.1,7.8,12,7.6,12c-0.8-0.4-1.6-0.2-2.1,0.5c-0.5,0.7-0.4,1.6,0.2,2.2C5.9,14.9,6,15,6.1,15.1l0.1,0.1c1,0.8,2.3,1.3,4,1.6l-1,1c-0.8,0.8-1.7,1.7-2.5,2.5c-0.2,0.2-0.5,0.6-0.5,1.1c0,0.7,0.4,1.3,1,1.6c0.2,0.1,0.4,0.1,0.7,0.1c0.4,0,0.8-0.1,1.1-0.5c1.1-1.1,2-2,2.9-2.9c0.1-0.1,0.1-0.1,0.1-0.1s0.1,0,0.1,0.1c0.6,0.7,1.3,1.3,1.9,1.9c0.3,0.3,0.6,0.6,0.9,0.9c0.4,0.4,0.7,0.5,1.1,0.5c0.7,0.1,1.4-0.4,1.7-1c0.3-0.6,0.1-1.3-0.4-1.8c-0.7-0.7-1.5-1.6-2.3-2.3l-1.3-1.3c0.7-0.1,1.4-0.2,2.1-0.5C16.9,15.8,17.7,15.3,18.4,14.6z"/>
    	<path d="M12,12.5c3.2,0,5.8-2.5,5.8-5.8c0-1.6-0.6-3.1-1.7-4.2c-1.1-1.1-2.5-1.7-4-1.7c-3.2,0-5.8,2.6-5.8,5.8c0,1.6,0.6,3,1.7,4.1C9,11.9,10.4,12.5,12,12.5z M10.3,5c0.4-0.4,1-0.7,1.6-0.7c1.3,0,2.3,1,2.3,2.3C14.3,8,13.2,9,12,9c-1.3,0-2.3-1-2.3-2.3C9.6,6,9.9,5.4,10.3,5z"/>
    </symbol>
    <symbol id="close_icon" viewBox="0 0 24 24">
      <path d="M4,21c-0.3,0-0.5-0.1-0.7-0.3c-0.4-0.4-0.4-1,0-1.4l16-16c0.4-0.4,1-0.4,1.4,0s0.4,1,0,1.4l-16,16C4.5,20.9,4.3,21,4,21z"/>
      <path d="M20,21c-0.3,0-0.5-0.1-0.7-0.3l-16-16c-0.4-0.4-0.4-1,0-1.4s1-0.4,1.4,0l16,16c0.4,0.4,0.4,1,0,1.4C20.5,20.9,20.3,21,20,21z"/>
    </symbol>
    <symbol id="phone_icon" viewBox="0 0 24 24">
      <path d="M22,18.3c0,0.4-0.1,0.7-0.3,1.1s-0.4,0.7-0.7,1c-0.5,0.5-1,0.9-1.6,1.2c-0.6,0.3-1.3,0.4-1.9,0.4c-1,0-2.1-0.2-3.3-0.7s-2.3-1.1-3.4-2c-1.1-0.8-2.2-1.8-3.3-2.8c-1-1-2-2.1-2.8-3.3c-0.8-1.1-1.5-2.3-2-3.4C2.2,8.7,2,7.6,2,6.5c0-0.7,0.1-1.3,0.4-1.9C2.6,4,3,3.4,3.5,2.9C4.2,2.3,4.8,2,5.6,2c0.3,0,0.6,0.1,0.8,0.2c0.3,0.1,0.5,0.3,0.7,0.6L9.4,6c0.2,0.3,0.3,0.5,0.4,0.7c0.1,0.2,0.1,0.4,0.1,0.6c0,0.2-0.1,0.5-0.2,0.7C9.6,8.3,9.4,8.5,9.2,8.7L8.4,9.5C8.3,9.6,8.2,9.8,8.2,9.9c0,0.1,0,0.1,0,0.2c0,0.1,0.1,0.1,0.1,0.2c0.2,0.3,0.5,0.8,0.9,1.3c0.4,0.5,0.9,1,1.4,1.6c0.5,0.5,1.1,1,1.6,1.5c0.5,0.4,1,0.7,1.3,0.9c0.1,0,0.1,0.1,0.2,0.1c0.1,0,0.2,0,0.3,0c0.2,0,0.3-0.1,0.4-0.2l0.8-0.8c0.3-0.3,0.5-0.4,0.7-0.6c0.2-0.1,0.5-0.2,0.7-0.2c0.2,0,0.4,0,0.6,0.1s0.5,0.2,0.7,0.4l3.3,2.3c0.3,0.2,0.4,0.4,0.5,0.6C21.9,17.8,22,18,22,18.3z"/>
      <path d="M18.5,9.8c-0.4,0-0.8-0.3-0.8-0.8c0-0.3-0.3-1-1-1.8c-0.6-0.6-1.2-1-1.8-1c-0.4,0-0.8-0.3-0.8-0.8s0.3-0.8,0.8-0.8c1,0,2,0.5,2.9,1.5c0.8,0.9,1.4,2,1.4,2.8C19.3,9.4,18.9,9.8,18.5,9.8z"/>
      <path d="M22,9.8c-0.4,0-0.8-0.3-0.8-0.8c0-3.4-2.8-6.3-6.3-6.3c-0.4,0-0.8-0.3-0.8-0.8s0.3-0.8,0.8-0.8c4.3,0,7.8,3.5,7.8,7.8C22.8,9.4,22.4,9.8,22,9.8z"/>
    </symbol>
    <symbol id="email_icon" viewBox="0 0 24 24">
      <path d="M17,20.5H7c-3,0-5-1.5-5-5v-7c0-3.5,2-5,5-5h10c3,0,5,1.5,5,5v7C22,19,20,20.5,17,20.5z"/>
      <path fill="#FFFFFF" d="M12,12.9c-0.8,0-1.7-0.3-2.3-0.8L3,6.6C2.7,6.3,2.7,5.8,2.9,5.5C3.2,5.2,3.7,5.2,4,5.4l6.6,5.5c0.8,0.6,2,0.6,2.8,0L19.5,5c0.3-0.3,0.8-0.3,1.1,0c0.3,0.3,0.3,0.8,0,1.1l-6.1,6C13.7,12.6,12.8,12.9,12,12.9z"/>
    </symbol>
    <symbol id="eye_icon" viewBox="0 0 24 24">
      <path d="M12,20.3c3.5,0,6.8-2.1,9.1-5.7c0.9-1.4,0.9-3.8,0-5.2c-2.3-3.6-5.6-5.7-9.1-5.7c-3.5,0-6.8,2.1-9.1,5.7c-0.9,1.4-0.9,3.8,0,5.2C5.2,18.2,8.5,20.3,12,20.3z"/>
      <path fill="#FFFFFF" d="M12,16.3c-2.4,0-4.3-1.9-4.3-4.3S9.6,7.7,12,7.7s4.3,1.9,4.3,4.3S14.4,16.3,12,16.3z M12,9.2c-1.6,0-2.8,1.3-2.8,2.8s1.3,2.8,2.8,2.8s2.8-1.3,2.8-2.8S13.6,9.2,12,9.2z"/>
    </symbol>
    <symbol id="arrow_left_icon" viewBox="0 0 31 31">
      <path d="M12.5,24c-0.2,0-0.5-0.1-0.7-0.3l-7.6-7.6c-0.4-0.4-0.4-1,0-1.3l7.6-7.6c0.4-0.4,1-0.4,1.3,0c0.4,0.4,0.4,1,0,1.3l-6.9,6.9l6.9,6.9c0.4,0.4,0.4,1,0,1.3C12.9,23.9,12.7,24,12.5,24z"/>
      <path d="M26.1,16.4h-21c-0.5,0-0.9-0.4-0.9-0.9s0.4-0.9,0.9-0.9h21c0.5,0,0.9,0.4,0.9,0.9S26.6,16.4,26.1,16.4z"/>
    </symbol>
    <symbol id="arrow_right_icon" viewBox="0 0 31 31">
      <path d="M18.5,24c-0.2,0-0.5-0.1-0.7-0.3c-0.4-0.4-0.4-1,0-1.3l6.9-6.9l-6.9-6.9c-0.4-0.4-0.4-1,0-1.3c0.4-0.4,1-0.4,1.3,0l7.6,7.6c0.2,0.2,0.3,0.4,0.3,0.7S27,16,26.8,16.2l-7.6,7.6C19,23.9,18.8,24,18.5,24z"/>
      <path d="M25.9,16.4h-21c-0.5,0-0.9-0.4-0.9-0.9s0.4-0.9,0.9-0.9h21c0.5,0,0.9,0.4,0.9,0.9S26.4,16.4,25.9,16.4z"/>
    </symbol>
    <symbol id="clock_icon" viewBox="0 0 18 18">
      <path d="M9,17.2c-4.5,0-8.2-3.7-8.2-8.2S4.5,0.8,9,0.8s8.2,3.7,8.2,8.2S13.5,17.2,9,17.2z M9,2.2C5.2,2.2,2.2,5.2,2.2,9c0,3.8,3.1,6.8,6.8,6.8c3.8,0,6.8-3.1,6.8-6.8C15.8,5.2,12.8,2.2,9,2.2z"/>
      <path d="M11.2,12.7c-0.1,0-0.2,0-0.3-0.1l-3-1.5c-0.2-0.1-0.4-0.3-0.4-0.6V6c0-0.4,0.3-0.7,0.7-0.7S8.9,5.6,8.9,6v4.1l2.6,1.3c0.3,0.2,0.5,0.6,0.3,0.9C11.7,12.5,11.5,12.7,11.2,12.7z"/>
    </symbol>
    <symbol id="plus_icon" viewBox="0 0 16 16">
      <path d="M8,15.4c-0.4,0-0.8-0.3-0.8-0.8V1.3c0-0.4,0.3-0.8,0.8-0.8s0.8,0.3,0.8,0.8v13.3C8.8,15.1,8.4,15.4,8,15.4z"/>
      <path d="M14.7,8.8H1.3C0.9,8.8,0.6,8.4,0.6,8s0.3-0.8,0.8-0.8h13.3c0.4,0,0.8,0.3,0.8,0.8S15.1,8.8,14.7,8.8z"/>
    </symbol>
    <symbol id="user_icon" viewBox="0 0 24 24">
      <path d="M20,22c-0.6,0-1-0.4-1-1v-2c0-0.8-0.3-1.6-0.9-2.1S16.8,16,16,16H8c-0.8,0-1.6,0.3-2.1,0.9C5.3,17.4,5,18.2,5,19v2c0,0.6-0.4,1-1,1s-1-0.4-1-1v-2c0-1.3,0.5-2.6,1.5-3.5C5.4,14.5,6.7,14,8,14h8c1.3,0,2.6,0.5,3.5,1.5S21,17.7,21,19v2C21,21.6,20.6,22,20,22z"/>
      <path d="M12,12c-2.8,0-5-2.2-5-5s2.2-5,5-5s5,2.2,5,5S14.8,12,12,12z M12,4c-1.7,0-3,1.3-3,3s1.3,3,3,3s3-1.3,3-3S13.7,4,12,4z"/>
    </symbol>
    <symbol id="triangle_down" viewBox="0 0 9 9">
      <path d="M4.5,7.5L0,1.5h9L4.5,7.5z"/>
    </symbol>
    <symbol id="filter_icon" viewBox="0 0 24 24">
      <path d="M19,22.8c-0.4,0-0.8-0.3-0.8-0.8V11c0-0.4,0.3-0.8,0.8-0.8s0.8,0.3,0.8,0.8v11C19.8,22.4,19.4,22.8,19,22.8z"/>
      <path d="M19,7.8c-0.4,0-0.8-0.3-0.8-0.8V2c0-0.4,0.3-0.8,0.8-0.8s0.8,0.3,0.8,0.8v5C19.8,7.4,19.4,7.8,19,7.8z"/>
      <path d="M12,22.8c-0.4,0-0.8-0.3-0.8-0.8v-5c0-0.4,0.3-0.8,0.8-0.8s0.8,0.3,0.8,0.8v5C12.8,22.4,12.4,22.8,12,22.8z"/>
      <path d="M12,13.8c-0.4,0-0.8-0.3-0.8-0.8V2c0-0.4,0.3-0.8,0.8-0.8s0.8,0.3,0.8,0.8v11C12.8,13.4,12.4,13.8,12,13.8z"/>
      <path d="M5,22.8c-0.4,0-0.8-0.3-0.8-0.8V11c0-0.4,0.3-0.8,0.8-0.8s0.8,0.3,0.8,0.8v11C5.8,22.4,5.4,22.8,5,22.8z"/>
      <path d="M5,7.8C4.6,7.8,4.3,7.4,4.3,7V2c0-0.4,0.3-0.8,0.8-0.8S5.8,1.6,5.8,2v5C5.8,7.4,5.4,7.8,5,7.8z"/>
      <path d="M7,11.8H3c-0.4,0-0.8-0.3-0.8-0.8s0.3-0.8,0.8-0.8h4c0.4,0,0.8,0.3,0.8,0.8S7.4,11.8,7,11.8z"/>
      <path d="M21,11.8h-4c-0.4,0-0.8-0.3-0.8-0.8s0.3-0.8,0.8-0.8h4c0.4,0,0.8,0.3,0.8,0.8S21.4,11.8,21,11.8z"/>
      <path d="M14,13.8h-4c-0.4,0-0.8-0.3-0.8-0.8s0.3-0.8,0.8-0.8h4c0.4,0,0.8,0.3,0.8,0.8S14.4,13.8,14,13.8z"/>
    </symbol>
    <symbol id="user_fill_icon" viewBox="0 0 20 20">
      <path d="M10.0007 10.0003C12.3018 10.0003 14.1673 8.13485 14.1673 5.83366C14.1673 3.53247 12.3018 1.66699 10.0007 1.66699C7.69946 1.66699 5.83398 3.53247 5.83398 5.83366C5.83398 8.13485 7.69946 10.0003 10.0007 10.0003Z"/>
      <path d="M10.0008 12.083C5.82578 12.083 2.42578 14.883 2.42578 18.333C2.42578 18.5663 2.60911 18.7497 2.84245 18.7497H17.1591C17.3924 18.7497 17.5758 18.5663 17.5758 18.333C17.5758 14.883 14.1758 12.083 10.0008 12.083Z"/>
    </symbol>
    <symbol id="desk_icon" viewBox="0 0 20 20">
      <path d="M13.3327 3.54199C13.3327 4.57533 12.491 5.41699 11.4577 5.41699H8.54102C8.02435 5.41699 7.55768 5.20866 7.21602 4.86699C6.87435 4.52533 6.66602 4.05866 6.66602 3.54199C6.66602 2.50866 7.50768 1.66699 8.54102 1.66699H11.4577C11.9743 1.66699 12.441 1.87533 12.7827 2.21699C13.1243 2.55866 13.3327 3.02533 13.3327 3.54199Z"/>
      <path d="M15.6923 4.19127C15.5007 4.03294 15.284 3.90794 15.0507 3.81627C14.809 3.7246 14.5673 3.91627 14.5173 4.16627C14.234 5.59127 12.9757 6.66627 11.459 6.66627H8.54232C7.70898 6.66627 6.92565 6.34127 6.33398 5.7496C5.90065 5.31627 5.60065 4.76627 5.48398 4.1746C5.43398 3.9246 5.18398 3.7246 4.94232 3.8246C3.97565 4.21627 3.33398 5.0996 3.33398 6.8746V14.9996C3.33398 17.4996 4.82565 18.3329 6.66732 18.3329H13.334C15.1757 18.3329 16.6673 17.4996 16.6673 14.9996V6.8746C16.6673 5.51627 16.2923 4.68294 15.6923 4.19127ZM6.66732 10.2079H10.0007C10.3423 10.2079 10.6257 10.4913 10.6257 10.8329C10.6257 11.1746 10.3423 11.4579 10.0007 11.4579H6.66732C6.32565 11.4579 6.04232 11.1746 6.04232 10.8329C6.04232 10.4913 6.32565 10.2079 6.66732 10.2079ZM13.334 14.7913H6.66732C6.32565 14.7913 6.04232 14.5079 6.04232 14.1663C6.04232 13.8246 6.32565 13.5413 6.66732 13.5413H13.334C13.6757 13.5413 13.959 13.8246 13.959 14.1663C13.959 14.5079 13.6757 14.7913 13.334 14.7913Z"/>
    </symbol>
    <symbol id="docs_icon" viewBox="0 0 20 20">
      <path d="M13.3327 10.5746V15.0663C13.3327 17.0163 12.0327 18.3079 10.091 18.3079H4.90768C2.96602 18.3079 1.66602 17.0163 1.66602 15.0663V8.59128C1.66602 6.64128 2.96602 5.34961 4.90768 5.34961H8.09935C8.95768 5.34961 9.78268 5.69128 10.391 6.29961L12.3827 8.28294C12.991 8.89128 13.3327 9.71628 13.3327 10.5746Z"/>
      <path d="M18.3336 6.87494V11.3666C18.3336 13.3083 17.0336 14.6083 15.0919 14.6083H14.1669V10.5749C14.1669 9.49993 13.7336 8.44993 12.9753 7.6916L10.9836 5.70827C10.2253 4.94994 9.17526 4.5166 8.10026 4.5166H6.68359C6.83359 2.78327 8.09193 1.6416 9.90859 1.6416H13.1003C13.9586 1.6416 14.7836 1.98327 15.3919 2.5916L17.3836 4.58327C17.9919 5.1916 18.3336 6.0166 18.3336 6.87494Z"/>
    </symbol>
    <symbol id="site_icon" viewBox="0 0 24 24">
      <path d="M21.79 20.76L21.07 20.04C21.44 19.48 21.66 18.8 21.66 18.08C21.66 16.1 20.06 14.5 18.08 14.5C16.1 14.5 14.5 16.1 14.5 18.08C14.5 20.06 16.1 21.66 18.08 21.66C18.81 21.66 19.48 21.44 20.04 21.07L20.76 21.79C20.9 21.93 21.09 22 21.27 22C21.46 22 21.64 21.93 21.78 21.79C22.07 21.5 22.07 21.04 21.79 20.76Z"/>
      <path d="M2.02781 14.6309C2.02781 14.6609 2.00781 14.7009 2.00781 14.7309C2.92781 16.5709 4.42781 18.0809 6.26781 18.9909C6.29781 18.9909 6.33781 18.9709 6.36781 18.9709C6.02781 17.8109 5.76781 16.6209 5.57781 15.4309C4.37781 15.2309 3.18781 14.9709 2.02781 14.6309Z"/>
      <path d="M19.0681 6.42945C18.1281 4.45945 16.5381 2.86945 14.5781 1.93945C14.9381 3.12945 15.2381 4.34945 15.4381 5.56945C16.6581 5.76945 17.8781 6.05945 19.0681 6.42945Z"/>
      <path d="M1.92969 6.42953C3.12969 6.06953 4.34969 5.76953 5.56969 5.56953C5.76969 4.37953 6.01969 3.19953 6.35969 2.03953C6.32969 2.03953 6.28969 2.01953 6.25969 2.01953C4.37969 2.94953 2.84969 4.51953 1.92969 6.42953Z"/>
      <path d="M13.8197 5.36C13.5797 4.06 13.2797 2.76 12.8497 1.5C12.8297 1.43 12.8297 1.37 12.8197 1.29C12.0797 1.11 11.2997 1 10.4997 1C9.68969 1 8.91969 1.11 8.16969 1.3C8.15969 1.37 8.16969 1.43 8.14969 1.51C7.72969 2.77 7.41969 4.06 7.17969 5.36C9.38969 5.12 11.6097 5.12 13.8197 5.36Z"/>
      <path d="M5.36 7.17969C4.05 7.41969 2.77 7.72969 1.5 8.14969C1.43 8.16969 1.37 8.16969 1.3 8.17969C1.11 8.91969 1 9.69969 1 10.4997C1 11.3097 1.11 12.0797 1.3 12.8297C1.37 12.8397 1.43 12.8297 1.51 12.8497C2.77 13.2697 4.06 13.5797 5.37 13.8197C5.12 11.6097 5.12 9.38969 5.36 7.17969Z"/>
      <path d="M19.7028 8.17969C19.6328 8.17969 19.5728 8.16969 19.4928 8.14969C18.2328 7.72969 16.9328 7.41969 15.6328 7.17969C15.8828 9.38969 15.8828 11.6097 15.6328 13.8097C16.9328 13.5697 18.2328 13.2697 19.4928 12.8397C19.5628 12.8197 19.6228 12.8297 19.7028 12.8197C19.8828 12.0697 20.0028 11.2997 20.0028 10.4897C20.0028 9.69969 19.8928 8.92969 19.7028 8.17969Z"/>
      <path d="M7.17969 15.6409C7.41969 16.9509 7.71969 18.2409 8.14969 19.5009C8.16969 19.5709 8.15969 19.6309 8.16969 19.7109C8.91969 19.8909 9.68969 20.0009 10.4997 20.0009C11.2997 20.0009 12.0797 19.8909 12.8197 19.7009C12.8297 19.6309 12.8297 19.5709 12.8497 19.4909C13.2697 18.2309 13.5797 16.9409 13.8197 15.6309C12.7197 15.7509 11.6097 15.8409 10.4997 15.8409C9.38969 15.8409 8.27969 15.7609 7.17969 15.6409Z"/>
      <path d="M6.95156 6.94961C6.65156 9.30961 6.65156 11.6896 6.95156 14.0596C9.31156 14.3596 11.6916 14.3596 14.0616 14.0596C14.3616 11.6996 14.3616 9.31961 14.0616 6.94961C11.6916 6.64961 9.31156 6.64961 6.95156 6.94961Z"/>
    </symbol>
    <symbol id="site_icon" viewBox="0 0 24 24">
      <path d="M21.79 20.76L21.07 20.04C21.44 19.48 21.66 18.8 21.66 18.08C21.66 16.1 20.06 14.5 18.08 14.5C16.1 14.5 14.5 16.1 14.5 18.08C14.5 20.06 16.1 21.66 18.08 21.66C18.81 21.66 19.48 21.44 20.04 21.07L20.76 21.79C20.9 21.93 21.09 22 21.27 22C21.46 22 21.64 21.93 21.78 21.79C22.07 21.5 22.07 21.04 21.79 20.76Z"/>
      <path d="M2.02781 14.6309C2.02781 14.6609 2.00781 14.7009 2.00781 14.7309C2.92781 16.5709 4.42781 18.0809 6.26781 18.9909C6.29781 18.9909 6.33781 18.9709 6.36781 18.9709C6.02781 17.8109 5.76781 16.6209 5.57781 15.4309C4.37781 15.2309 3.18781 14.9709 2.02781 14.6309Z"/>
      <path d="M19.0681 6.42945C18.1281 4.45945 16.5381 2.86945 14.5781 1.93945C14.9381 3.12945 15.2381 4.34945 15.4381 5.56945C16.6581 5.76945 17.8781 6.05945 19.0681 6.42945Z"/>
      <path d="M1.92969 6.42953C3.12969 6.06953 4.34969 5.76953 5.56969 5.56953C5.76969 4.37953 6.01969 3.19953 6.35969 2.03953C6.32969 2.03953 6.28969 2.01953 6.25969 2.01953C4.37969 2.94953 2.84969 4.51953 1.92969 6.42953Z"/>
      <path d="M13.8197 5.36C13.5797 4.06 13.2797 2.76 12.8497 1.5C12.8297 1.43 12.8297 1.37 12.8197 1.29C12.0797 1.11 11.2997 1 10.4997 1C9.68969 1 8.91969 1.11 8.16969 1.3C8.15969 1.37 8.16969 1.43 8.14969 1.51C7.72969 2.77 7.41969 4.06 7.17969 5.36C9.38969 5.12 11.6097 5.12 13.8197 5.36Z"/>
      <path d="M5.36 7.17969C4.05 7.41969 2.77 7.72969 1.5 8.14969C1.43 8.16969 1.37 8.16969 1.3 8.17969C1.11 8.91969 1 9.69969 1 10.4997C1 11.3097 1.11 12.0797 1.3 12.8297C1.37 12.8397 1.43 12.8297 1.51 12.8497C2.77 13.2697 4.06 13.5797 5.37 13.8197C5.12 11.6097 5.12 9.38969 5.36 7.17969Z"/>
      <path d="M19.7028 8.17969C19.6328 8.17969 19.5728 8.16969 19.4928 8.14969C18.2328 7.72969 16.9328 7.41969 15.6328 7.17969C15.8828 9.38969 15.8828 11.6097 15.6328 13.8097C16.9328 13.5697 18.2328 13.2697 19.4928 12.8397C19.5628 12.8197 19.6228 12.8297 19.7028 12.8197C19.8828 12.0697 20.0028 11.2997 20.0028 10.4897C20.0028 9.69969 19.8928 8.92969 19.7028 8.17969Z"/>
      <path d="M7.17969 15.6409C7.41969 16.9509 7.71969 18.2409 8.14969 19.5009C8.16969 19.5709 8.15969 19.6309 8.16969 19.7109C8.91969 19.8909 9.68969 20.0009 10.4997 20.0009C11.2997 20.0009 12.0797 19.8909 12.8197 19.7009C12.8297 19.6309 12.8297 19.5709 12.8497 19.4909C13.2697 18.2309 13.5797 16.9409 13.8197 15.6309C12.7197 15.7509 11.6097 15.8409 10.4997 15.8409C9.38969 15.8409 8.27969 15.7609 7.17969 15.6409Z"/>
      <path d="M6.95156 6.94961C6.65156 9.30961 6.65156 11.6896 6.95156 14.0596C9.31156 14.3596 11.6916 14.3596 14.0616 14.0596C14.3616 11.6996 14.3616 9.31961 14.0616 6.94961C11.6916 6.64961 9.31156 6.64961 6.95156 6.94961Z"/>
    </symbol>
    <symbol id="delete_icon" viewBox="0 0 18 18">
      <path d="M9.00008 0.666626C4.40841 0.666626 0.666748 4.40829 0.666748 8.99996C0.666748 13.5916 4.40841 17.3333 9.00008 17.3333C13.5917 17.3333 17.3334 13.5916 17.3334 8.99996C17.3334 4.40829 13.5917 0.666626 9.00008 0.666626ZM11.8001 10.9166C12.0417 11.1583 12.0417 11.5583 11.8001 11.8C11.6751 11.925 11.5167 11.9833 11.3584 11.9833C11.2001 11.9833 11.0417 11.925 10.9167 11.8L9.00008 9.88329L7.08341 11.8C6.95841 11.925 6.80008 11.9833 6.64175 11.9833C6.48341 11.9833 6.32508 11.925 6.20008 11.8C5.95842 11.5583 5.95842 11.1583 6.20008 10.9166L8.11675 8.99996L6.20008 7.08329C5.95842 6.84163 5.95842 6.44163 6.20008 6.19996C6.44175 5.95829 6.84175 5.95829 7.08341 6.19996L9.00008 8.11663L10.9167 6.19996C11.1584 5.95829 11.5584 5.95829 11.8001 6.19996C12.0417 6.44163 12.0417 6.84163 11.8001 7.08329L9.88342 8.99996L11.8001 10.9166Z"/>
    </symbol>
    <symbol id="chevron_left" viewBox="0 0 24 24">
      <path d="M15,19c-0.3,0-0.5-0.1-0.7-0.3l-6-6c-0.4-0.4-0.4-1,0-1.4l6-6c0.4-0.4,1-0.4,1.4,0s0.4,1,0,1.4L10.4,12l5.3,5.3c0.4,0.4,0.4,1,0,1.4C15.5,18.9,15.3,19,15,19z"/>
    </symbol>
    <symbol id="chevron_right" viewBox="0 0 24 24">
      <path d="M9,19c-0.3,0-0.5-0.1-0.7-0.3c-0.4-0.4-0.4-1,0-1.4l5.3-5.3L8.3,6.7c-0.4-0.4-0.4-1,0-1.4s1-0.4,1.4,0l6,6c0.4,0.4,0.4,1,0,1.4l-6,6C9.5,18.9,9.3,19,9,19z"/>
    </symbol>
    <symbol id="close_2_icon" viewBox="0 0 20 20">
      <path d="M9.9974 1.66699C5.40573 1.66699 1.66406 5.40866 1.66406 10.0003C1.66406 14.592 5.40573 18.3337 9.9974 18.3337C14.5891 18.3337 18.3307 14.592 18.3307 10.0003C18.3307 5.40866 14.5891 1.66699 9.9974 1.66699ZM12.7974 11.917C13.0391 12.1587 13.0391 12.5587 12.7974 12.8003C12.6724 12.9253 12.5141 12.9837 12.3557 12.9837C12.1974 12.9837 12.0391 12.9253 11.9141 12.8003L9.9974 10.8837L8.08073 12.8003C7.95573 12.9253 7.7974 12.9837 7.63906 12.9837C7.48073 12.9837 7.3224 12.9253 7.1974 12.8003C6.95573 12.5587 6.95573 12.1587 7.1974 11.917L9.11406 10.0003L7.1974 8.08366C6.95573 7.84199 6.95573 7.44199 7.1974 7.20033C7.43906 6.95866 7.83906 6.95866 8.08073 7.20033L9.9974 9.11699L11.9141 7.20033C12.1557 6.95866 12.5557 6.95866 12.7974 7.20033C13.0391 7.44199 13.0391 7.84199 12.7974 8.08366L10.8807 10.0003L12.7974 11.917Z"/>
    </symbol>
    <symbol id="chevron_down" viewBox="0 0 24 24">
      <path d="M19,9c0,0.3-0.1,0.5-0.3,0.7l-6,6c-0.4,0.4-1,0.4-1.4,0l-6-6c-0.4-0.4-0.4-1,0-1.4c0.4-0.4,1-0.4,1.4,0l5.3,5.3l5.3-5.3c0.4-0.4,1-0.4,1.4,0C18.9,8.5,19,8.7,19,9z"/>
    </symbol>
    <symbol id="rt_icon" viewBox="0 0 24 24">
      <path d="M21,5.5c1-0.2,1.7-1.3,1.4-2.3c-0.2-1-1.3-1.7-2.3-1.4c-1,0.2-1.7,1.3-1.4,2.3C19,5.1,20,5.7,21,5.5z"/>
    	<path d="M14.9,5.3H1.5v14.9h3.7v-4.9h7.2l3.3,4.9h4.2l-3.6-4.9c1.1-0.2,1.9-0.6,2.4-1.3c0.5-0.7,0.7-1.7,0.7-3.2V9.8c0-0.8-0.1-1.5-0.2-2c-0.2-0.5-0.4-1-0.8-1.4C17.9,6,17.5,5.8,17,5.6C16.4,5.4,15.7,5.3,14.9,5.3z M14.3,12.1H5.2V8.6h9.1c0.5,0,0.9,0.1,1.1,0.2c0.2,0.2,0.3,0.4,0.3,0.9V11c0,0.4-0.1,0.7-0.3,0.9C15.2,12.1,14.8,12.1,14.3,12.1z"/>
    </symbol>
    <symbol id="play_icon" viewBox="0 0 459 459">
      <path d="M305,239.7l-111.8,76.1c-3.8,2.6-8.6,2.8-12.7,0.7c-4-2.1-6.5-6.3-6.5-10.9V153.4c0-4.6,2.5-8.7,6.5-10.9c4-2.1,8.9-1.9,12.7,0.7L305,219.3c3.4,2.3,5.4,6.1,5.4,10.2S308.3,237.4,305,239.7z"/>
    </symbol>
    <symbol id="max_icon" viewBox="0 0 1000 1000">
      <path fill-rule="evenodd" clip-rule="evenodd" d="M508.212 878.328C433.205 878.328 398.348 867.378 337.759 823.578C299.434 872.853 178.073 911.361 172.78 845.478C172.78 796.022 161.83 754.23 149.42 708.605C134.638 652.395 117.848 589.798 117.848 499.097C117.848 282.471 295.602 119.5 506.205 119.5C716.99 119.5 882.152 290.501 882.152 501.104C882.859 708.45 715.557 877.222 508.212 878.328ZM511.315 306.743C408.751 301.451 328.816 372.443 311.114 483.767C296.514 575.929 322.429 688.165 344.511 694.005C355.096 696.56 381.741 675.025 398.348 658.418C425.809 677.389 457.788 688.783 491.058 691.45C597.331 696.562 688.138 615.656 695.273 509.5C699.427 403.118 617.603 313.014 511.315 306.926V306.743Z"/>
    </symbol>
    <symbol id="dzen_icon" viewBox="0 0 28 28">
      <path d="M16.4,16.4c-2,2-2.1,4.6-2.3,10.1c5.2,0,8.7,0,10.6-1.8c1.8-1.8,1.8-5.6,1.8-10.6C21,14.3,18.4,14.4,16.4,16.4 M1.5,14.1c0,5,0,8.7,1.8,10.6c1.8,1.8,5.4,1.8,10.6,1.8c-0.2-5.5-0.3-8.1-2.3-10.1C9.6,14.4,7,14.3,1.5,14.1 M13.9,1.5c-5.2,0-8.7,0-10.6,1.8C1.5,5.1,1.5,8.9,1.5,13.9c5.5-0.2,8.1-0.3,10.1-2.3C13.6,9.6,13.7,7,13.9,1.5 M16.4,11.6c-2-2-2.1-4.6-2.3-10.1c5.2,0,8.7,0,10.6,1.8c1.8,1.8,1.8,5.6,1.8,10.6C21,13.7,18.4,13.6,16.4,11.6"/>
    </symbol>
    <symbol id="age_165" viewBox="0 0 220.82 122.97">
      <path d="M38.17,111.22c-1.09-.75-2.01-2.1-2.85-3.86-.75-1.76-.92-3.77-.59-6.12L47.98,8.3c.34-3.27-.76-4.95-3.36-4.95-1.34,0-4.95,1.01-10.82,2.94-5.96,1.93-11.32,3.94-16.02,6.04-3.19,1.34-5.28,2.26-6.29,2.93-1.01.67-1.59,1.51-1.68,2.52-.34,2.1,1.09,3.69,4.28,4.78,3.44,1.26,5.54,2.68,6.29,4.28.84,1.59.92,4.36.34,8.22l-9.39,66.18c-.5,3.02-1.59,5.37-3.52,7.13-1.85,1.76-3.61,3.27-5.28,4.53-1.68,1.34-2.52,2.77-2.52,4.44,0,2.43,2.68,3.61,7.97,3.61h27.18c5.12,0,7.63-1.18,7.63-3.61,0-1.09-.42-2.18-1.43-3.35-1.01-1.09-2.1-2.01-3.19-2.77Z"/>
      <path d="M132.83,51.16c-5.37-7.63-12.92-11.49-22.65-11.49-5.2,0-10.24,1.09-15.1,3.27-4.87,2.1-8.73,4.87-11.58,8.22,1.77-11.66,5.54-20.38,11.41-26.34,5.87-5.87,12.25-8.89,19.13-8.89,6.29,0,12.33,1.51,18.2,4.53,1.68.84,3.19.59,4.53-.92,1.26-1.51,1.42-3.27.42-5.37-1.43-3.02-4.28-5.62-8.64-7.72-4.36-2.18-9.48-3.18-15.35-3.1-14.18,0-26.85,6.46-38,19.21-11.24,12.83-17.95,28.27-20.3,46.13-2.1,16.95.33,30.2,7.13,39.85,6.88,9.64,17.03,14.43,30.36,14.43,12.42,0,22.74-4.11,31.04-12.33.61-.61,1.18-1.23,1.71-1.84-.33-.46-.64-.93-.93-1.4-1.7-2.71-2.92-5.57-3.63-8.5l-.04-.17-.03-.18c-1.01-5.99,2.27-9.01,4.29-10.27,1.44-.89,3.01-1.35,4.67-1.35s4.22.54,6.59,3.09c1.11-3.42,1.93-6.99,2.47-10.84,1.59-11.07-.34-20.38-5.7-28.02ZM115.63,81.7c-.5,8.13-2.6,15.26-6.21,21.22-3.6,5.95-8.39,8.89-14.34,8.81-4.2-.17-7.63-1.6-10.4-4.45-2.69-2.77-4.53-6.29-5.46-10.32-.92-4.11-1.17-8.64-.75-13.5.59-7.8,2.77-14.77,6.63-20.72,3.94-5.96,8.8-8.89,14.59-8.81,5.87.17,10.24,2.94,13,8.39,2.77,5.45,3.78,11.91,2.94,19.38Z"/>
      <path d="M220.48,5.7c-.5,2.77-1.84,6.29-3.94,10.57-1.34,2.77-2.85,4.7-4.61,5.79-1.85,1-4.78,1.59-8.98,1.67-5.62.34-11.15.51-16.61.51-6.37,0-12.66-.26-18.95-.68l-7.64,17.29c19.63,2.51,33.89,7.63,42.78,15.26,8.89,7.64,12.5,17.36,10.82,29.19-1.42,10.66-6.12,19.55-14.01,26.76-7.88,7.13-18.79,10.74-32.54,10.74-11.58,0-20.89-2.6-28.19-7.72-4.44-3.19-7.88-6.62-10.15-10.32-1.42-2.26-2.43-4.61-3.02-7.04-.41-2.43.26-4.11,2.02-5.2.67-.42,1.34-.59,2.01-.59,1.01,0,2.01.5,2.94,1.51.5.59,1,1.17,1.59,1.76,7.21,7.63,16.69,11.49,28.44,11.49,6.79,0,12.41-1.76,17.03-5.37,4.61-3.6,7.29-8.47,8.22-14.51,1.17-8.89-1.6-15.6-8.39-20.13-6.8-4.61-17.11-7.8-30.96-9.56-2.09-.34-3.35-1.01-3.85-2.02-.42-1-.17-2.51.67-4.61l17.61-41.02c.67-1.42,1.43-2.6,2.43-3.35.93-.76,2.1-1.18,3.44-1.18.26,0,.51,0,.76.09,4.19.33,8.64.5,13.34.5s9.81-.17,15.18-.5c5.53-.34,10.06-1.26,13.67-2.77,3.53-1.51,5.79-2.26,6.8-2.26,2.18,0,2.93,1.92,2.09,5.7Z"/>
    </symbol>
</svg>
