<svg width="20" height="20" viewBox="0 0 20 20" fill="none" xmlns="http://www.w3.org/2000/svg">
<path fill-rule="evenodd" clip-rule="evenodd" d="M18.3333 1.11111H1.66667C1.35984 1.11111 1.11111 1.35984 1.11111 1.66667V18.3333C1.11111 18.6402 1.35984 18.8889 1.66667 18.8889H18.3333C18.6402 18.8889 18.8889 18.6402 18.8889 18.3333V1.66667C18.8889 1.35984 18.6402 1.11111 18.3333 1.11111ZM1.66667 0C0.746194 0 0 0.746194 0 1.66667V18.3333C0 19.2538 0.746194 20 1.66667 20H18.3333C19.2538 20 20 19.2538 20 18.3333V1.66667C20 0.746194 19.2538 0 18.3333 0H1.66667Z" fill="#E7E7F0"/>
<path fill-rule="evenodd" clip-rule="evenodd" d="M3.43671 7.92975C3.43671 5.54414 4.98199 3.33203 7.09804 3.33203C8.56643 3.33203 9.65604 4.32453 10.3286 5.73248C11.0012 4.32464 12.0907 3.33203 13.5592 3.33203C15.6754 3.33203 17.2205 5.54453 17.2205 7.92975C17.2205 13.0357 10.3286 16.6654 10.3286 16.6654C10.3286 16.6654 5.73732 14.3936 4.0496 10.6628H6.14582L7.07599 9.03659L8.1626 12.7765L10.707 9.55936H13.3101C13.6288 9.55936 13.8872 9.30531 13.8872 8.99192C13.8872 8.67847 13.6288 8.42442 13.3101 8.42442H10.1425L8.6476 10.3146L7.42593 6.10981L5.47082 9.52786H3.64493C3.51132 9.01698 3.43671 8.4837 3.43671 7.92975ZM3.63943 9.52775L1.10938 9.52792V10.6629H4.04532L3.63943 9.52775Z" fill="#E7E7F0"/>
</svg>
