<svg width="20" height="20" viewBox="0 0 20 20" fill="none" xmlns="http://www.w3.org/2000/svg">
<path d="M13.3327 10.5746V15.0663C13.3327 17.0163 12.0327 18.3079 10.091 18.3079H4.90768C2.96602 18.3079 1.66602 17.0163 1.66602 15.0663V8.59128C1.66602 6.64128 2.96602 5.34961 4.90768 5.34961H8.09935C8.95768 5.34961 9.78268 5.69128 10.391 6.29961L12.3827 8.28294C12.991 8.89128 13.3327 9.71628 13.3327 10.5746Z"/>
<path d="M18.3336 6.87494V11.3666C18.3336 13.3083 17.0336 14.6083 15.0919 14.6083H14.1669V10.5749C14.1669 9.49993 13.7336 8.44993 12.9753 7.6916L10.9836 5.70827C10.2253 4.94994 9.17526 4.5166 8.10026 4.5166H6.68359C6.83359 2.78327 8.09193 1.6416 9.90859 1.6416H13.1003C13.9586 1.6416 14.7836 1.98327 15.3919 2.5916L17.3836 4.58327C17.9919 5.1916 18.3336 6.0166 18.3336 6.87494Z"/>
</svg>
