<?xml version="1.0" encoding="utf-8"?>
<!-- Generator: Adobe Illustrator 19.2.1, SVG Export Plug-In . SVG Version: 6.00 Build 0)  -->
<svg version="1.1" id="Слой_1" xmlns="http://www.w3.org/2000/svg" xmlns:xlink="http://www.w3.org/1999/xlink" x="0px" y="0px"
	 viewBox="0 0 24 24" style="enable-background:new 0 0 24 24;" xml:space="preserve">
<style type="text/css">
	.st0{fill:#5C619D;}
</style>
	<path d="M18.4,14.6c0.5-0.5,0.6-1.3,0.1-2c-0.4-0.6-1-0.9-1.8-0.7c-0.3,0.1-0.6,0.2-0.9,0.4c-2.3,1.6-5.5,1.5-7.8-0.1C7.9,12.1,7.8,12,7.6,12c-0.8-0.4-1.6-0.2-2.1,0.5c-0.5,0.7-0.4,1.6,0.2,2.2C5.9,14.9,6,15,6.1,15.1l0.1,0.1c1,0.8,2.3,1.3,4,1.6l-1,1c-0.8,0.8-1.7,1.7-2.5,2.5c-0.2,0.2-0.5,0.6-0.5,1.1c0,0.7,0.4,1.3,1,1.6c0.2,0.1,0.4,0.1,0.7,0.1c0.4,0,0.8-0.1,1.1-0.5c1.1-1.1,2-2,2.9-2.9c0.1-0.1,0.1-0.1,0.1-0.1s0.1,0,0.1,0.1c0.6,0.7,1.3,1.3,1.9,1.9c0.3,0.3,0.6,0.6,0.9,0.9c0.4,0.4,0.7,0.5,1.1,0.5c0.7,0.1,1.4-0.4,1.7-1c0.3-0.6,0.1-1.3-0.4-1.8c-0.7-0.7-1.5-1.6-2.3-2.3l-1.3-1.3c0.7-0.1,1.4-0.2,2.1-0.5C16.9,15.8,17.7,15.3,18.4,14.6z"/>
	<path d="M12,12.5c3.2,0,5.8-2.5,5.8-5.8c0-1.6-0.6-3.1-1.7-4.2c-1.1-1.1-2.5-1.7-4-1.7c-3.2,0-5.8,2.6-5.8,5.8c0,1.6,0.6,3,1.7,4.1C9,11.9,10.4,12.5,12,12.5z M10.3,5c0.4-0.4,1-0.7,1.6-0.7c1.3,0,2.3,1,2.3,2.3C14.3,8,13.2,9,12,9c-1.3,0-2.3-1-2.3-2.3C9.6,6,9.9,5.4,10.3,5z"/>
</svg>
