<?xml version="1.0" encoding="utf-8"?>
<!-- Generator: Adobe Illustrator 19.2.1, SVG Export Plug-In . SVG Version: 6.00 Build 0)  -->
<svg version="1.1" id="Слой_1" xmlns="http://www.w3.org/2000/svg" xmlns:xlink="http://www.w3.org/1999/xlink" x="0px" y="0px"
	 viewBox="0 0 24 24" style="enable-background:new 0 0 24 24;" xml:space="preserve">
<style type="text/css">
	.st0{fill:none;}
</style>
<g>
	<path d="M21,5.5c1-0.2,1.7-1.3,1.4-2.3c-0.2-1-1.3-1.7-2.3-1.4c-1,0.2-1.7,1.3-1.4,2.3C19,5.1,20,5.7,21,5.5z"/>
	<path d="M14.9,5.3H1.5v14.9h3.7v-4.9h7.2l3.3,4.9h4.2l-3.6-4.9c1.1-0.2,1.9-0.6,2.4-1.3c0.5-0.7,0.7-1.7,0.7-3.2V9.8c0-0.8-0.1-1.5-0.2-2c-0.2-0.5-0.4-1-0.8-1.4C17.9,6,17.5,5.8,17,5.6C16.4,5.4,15.7,5.3,14.9,5.3z M14.3,12.1H5.2V8.6h9.1c0.5,0,0.9,0.1,1.1,0.2c0.2,0.2,0.3,0.4,0.3,0.9V11c0,0.4-0.1,0.7-0.3,0.9C15.2,12.1,14.8,12.1,14.3,12.1z"/>
</g>
</svg>
