<svg width="24" height="24" viewBox="0 0 24 24" fill="none" xmlns="http://www.w3.org/2000/svg">
<path d="M21.79 20.76L21.07 20.04C21.44 19.48 21.66 18.8 21.66 18.08C21.66 16.1 20.06 14.5 18.08 14.5C16.1 14.5 14.5 16.1 14.5 18.08C14.5 20.06 16.1 21.66 18.08 21.66C18.81 21.66 19.48 21.44 20.04 21.07L20.76 21.79C20.9 21.93 21.09 22 21.27 22C21.46 22 21.64 21.93 21.78 21.79C22.07 21.5 22.07 21.04 21.79 20.76Z"/>
<path d="M2.02781 14.6309C2.02781 14.6609 2.00781 14.7009 2.00781 14.7309C2.92781 16.5709 4.42781 18.0809 6.26781 18.9909C6.29781 18.9909 6.33781 18.9709 6.36781 18.9709C6.02781 17.8109 5.76781 16.6209 5.57781 15.4309C4.37781 15.2309 3.18781 14.9709 2.02781 14.6309Z"/>
<path d="M19.0681 6.42945C18.1281 4.45945 16.5381 2.86945 14.5781 1.93945C14.9381 3.12945 15.2381 4.34945 15.4381 5.56945C16.6581 5.76945 17.8781 6.05945 19.0681 6.42945Z"/>
<path d="M1.92969 6.42953C3.12969 6.06953 4.34969 5.76953 5.56969 5.56953C5.76969 4.37953 6.01969 3.19953 6.35969 2.03953C6.32969 2.03953 6.28969 2.01953 6.25969 2.01953C4.37969 2.94953 2.84969 4.51953 1.92969 6.42953Z"/>
<path d="M13.8197 5.36C13.5797 4.06 13.2797 2.76 12.8497 1.5C12.8297 1.43 12.8297 1.37 12.8197 1.29C12.0797 1.11 11.2997 1 10.4997 1C9.68969 1 8.91969 1.11 8.16969 1.3C8.15969 1.37 8.16969 1.43 8.14969 1.51C7.72969 2.77 7.41969 4.06 7.17969 5.36C9.38969 5.12 11.6097 5.12 13.8197 5.36Z"/>
<path d="M5.36 7.17969C4.05 7.41969 2.77 7.72969 1.5 8.14969C1.43 8.16969 1.37 8.16969 1.3 8.17969C1.11 8.91969 1 9.69969 1 10.4997C1 11.3097 1.11 12.0797 1.3 12.8297C1.37 12.8397 1.43 12.8297 1.51 12.8497C2.77 13.2697 4.06 13.5797 5.37 13.8197C5.12 11.6097 5.12 9.38969 5.36 7.17969Z"/>
<path d="M19.7028 8.17969C19.6328 8.17969 19.5728 8.16969 19.4928 8.14969C18.2328 7.72969 16.9328 7.41969 15.6328 7.17969C15.8828 9.38969 15.8828 11.6097 15.6328 13.8097C16.9328 13.5697 18.2328 13.2697 19.4928 12.8397C19.5628 12.8197 19.6228 12.8297 19.7028 12.8197C19.8828 12.0697 20.0028 11.2997 20.0028 10.4897C20.0028 9.69969 19.8928 8.92969 19.7028 8.17969Z"/>
<path d="M7.17969 15.6409C7.41969 16.9509 7.71969 18.2409 8.14969 19.5009C8.16969 19.5709 8.15969 19.6309 8.16969 19.7109C8.91969 19.8909 9.68969 20.0009 10.4997 20.0009C11.2997 20.0009 12.0797 19.8909 12.8197 19.7009C12.8297 19.6309 12.8297 19.5709 12.8497 19.4909C13.2697 18.2309 13.5797 16.9409 13.8197 15.6309C12.7197 15.7509 11.6097 15.8409 10.4997 15.8409C9.38969 15.8409 8.27969 15.7609 7.17969 15.6409Z"/>
<path d="M6.95156 6.94961C6.65156 9.30961 6.65156 11.6896 6.95156 14.0596C9.31156 14.3596 11.6916 14.3596 14.0616 14.0596C14.3616 11.6996 14.3616 9.31961 14.0616 6.94961C11.6916 6.64961 9.31156 6.64961 6.95156 6.94961Z"/>
</svg>
