<svg width="200" height="200" viewBox="0 0 200 200" fill="none" xmlns="http://www.w3.org/2000/svg">
<path d="M81 76.25C81 84.123 74.623 90.5 66.75 90.5C58.877 90.5 52.5 84.123 52.5 76.25C52.5 68.377 58.877 62 66.75 62C74.623 62 81 68.377 81 76.25Z" fill="#5C619D"/>
<path d="M36.6641 113.722C36.6641 102.491 56.7072 96.8335 66.7474 96.8335C76.7876 96.8335 96.8307 102.491 96.8307 113.722V138H36.6641V113.722Z" fill="#5C619D"/>
<path d="M147.5 76.25C147.5 84.123 141.123 90.5 133.25 90.5C125.377 90.5 119 84.123 119 76.25C119 68.377 125.377 62 133.25 62C141.123 62 147.5 68.377 147.5 76.25Z" fill="#5C619D"/>
<path d="M109.5 71.5C109.5 76.7488 105.249 81 100 81C94.7512 81 90.5 76.7488 90.5 71.5C90.5 66.2512 94.7512 62 100 62C105.249 62 109.5 66.2512 109.5 71.5Z" fill="#5C619D"/>
<path d="M103.164 113.722C103.164 102.491 123.207 96.8335 133.247 96.8335C143.288 96.8335 163.331 102.491 163.331 113.722V138H103.164V113.722Z" fill="#5C619D"/>
<path fill-rule="evenodd" clip-rule="evenodd" d="M115.042 94.2525C114.197 94.5631 113.363 94.8931 112.546 95.2421C108.837 96.827 105.092 98.968 102.183 101.832C101.404 102.599 100.664 103.44 99.9976 104.354C99.3311 103.44 98.5916 102.599 97.8123 101.832C94.9031 98.968 91.1579 96.827 87.4494 95.2421C86.6324 94.8931 85.7986 94.5631 84.9531 94.2525C89.7747 91.7543 95.9753 90.5 99.9976 90.5C104.02 90.5 110.22 91.7543 115.042 94.2525Z" fill="#5C619D"/>
</svg>
