<svg width="200" height="200" viewBox="0 0 200 200" fill="none" xmlns="http://www.w3.org/2000/svg">
<path fill-rule="evenodd" clip-rule="evenodd" d="M144.906 68.3858C146.626 68.7021 147.764 70.3529 147.448 72.0727C142.831 97.1797 131.688 114.589 115.984 125.658C100.354 136.675 80.5519 141.167 58.999 141.167H46.1667C44.4178 141.167 43 139.749 43 138C43 136.251 44.4178 134.834 46.1667 134.834H58.999C79.745 134.834 98.119 130.501 112.335 120.481C126.478 110.513 136.853 94.6717 141.219 70.9277C141.535 69.2075 143.186 68.0694 144.906 68.3858Z" fill="#5C619D"/>
<path fill-rule="evenodd" clip-rule="evenodd" d="M146.283 65.2597C147.161 65.4776 147.904 66.0602 148.325 66.8614L156.637 82.6947C157.45 84.2432 156.854 86.1575 155.306 86.9704C153.757 87.7833 151.843 87.187 151.03 85.6385L144.374 72.9598L133.458 80.4448C132.015 81.4341 130.044 81.0664 129.055 79.624C128.066 78.1816 128.434 76.2107 129.876 75.2217L143.73 65.7217C144.476 65.21 145.406 65.0418 146.283 65.2597Z" fill="#5C619D"/>
<path d="M109.503 67.8811C109.503 66.6015 108.994 65.3741 108.089 64.4691C107.184 63.5643 105.957 63.0558 104.677 63.0558H92.6138V50.9924C92.6138 49.7126 92.1053 48.4852 91.2005 47.5803C90.2955 46.6754 89.0681 46.167 87.7885 46.167H80.5501C79.2704 46.167 78.043 46.6754 77.138 47.5803C76.2333 48.4852 75.7247 49.7126 75.7247 50.9924V63.0558H63.6613C62.3817 63.0558 61.1543 63.5643 60.2492 64.4691C59.3442 65.3741 58.8359 66.6015 58.8359 67.8811V75.1195C58.8359 76.3992 59.3442 77.6266 60.2492 78.5316C61.1543 79.4363 62.3817 79.9449 63.6613 79.9449H75.7247V92.0083C75.7247 93.2879 76.2333 94.5153 77.138 95.4204C78.043 96.3254 79.2704 96.8337 80.5501 96.8337H87.7885C89.0681 96.8337 90.2955 96.3254 91.2005 95.4204C92.1053 94.5153 92.6138 93.2879 92.6138 92.0083V79.9449H104.677C105.957 79.9449 107.184 79.4363 108.089 78.5316C108.994 77.6266 109.503 76.3992 109.503 75.1195V67.8811Z" fill="#5C619D"/>
<path fill-rule="evenodd" clip-rule="evenodd" d="M49.3333 43V150.667H157V157H46.1667C44.4178 157 43 155.582 43 153.833V43H49.3333Z" fill="#5C619D"/>
</svg>
