<svg width="200" height="200" viewBox="0 0 200 200" fill="none" xmlns="http://www.w3.org/2000/svg">
<path fill-rule="evenodd" clip-rule="evenodd" d="M147.5 65.1665C142.253 65.1665 138 69.4197 138 74.6665V80.9998H157V74.6665C157 69.4197 152.747 65.1665 147.5 65.1665ZM157 87.3332H138V139.583L147.5 153.833L157 139.583V87.3332Z" fill="#5C619D"/>
<path fill-rule="evenodd" clip-rule="evenodd" d="M43 52.5V147.497C43 152.744 47.2533 156.997 52.5 156.997H122.167C127.414 156.997 131.667 152.744 131.667 147.497V52.5C131.667 47.2533 127.414 43 122.167 43H52.5C47.2533 43 43 47.2533 43 52.5ZM87.3333 71.5C87.3333 69.7511 88.751 68.3333 90.5 68.3333H115.833C117.582 68.3333 119 69.7511 119 71.5C119 73.249 117.582 74.6667 115.833 74.6667H90.5C88.751 74.6667 87.3333 73.249 87.3333 71.5ZM90.5 81C88.751 81 87.3333 82.4177 87.3333 84.1667C87.3333 85.9156 88.751 87.3333 90.5 87.3333H115.833C117.582 87.3333 119 85.9156 119 84.1667C119 82.4177 117.582 81 115.833 81H90.5ZM87.3333 112.667C87.3333 110.918 88.751 109.5 90.5 109.5H115.833C117.582 109.5 119 110.918 119 112.667C119 114.416 117.582 115.833 115.833 115.833H90.5C88.751 115.833 87.3333 114.416 87.3333 112.667ZM90.5 122.167C88.751 122.167 87.3333 123.584 87.3333 125.333C87.3333 127.082 88.751 128.5 90.5 128.5H115.833C117.582 128.5 119 127.082 119 125.333C119 123.584 117.582 122.167 115.833 122.167H90.5ZM62 112.667V122.167H71.5V112.667H62ZM58.8333 106.333H74.6667C76.4156 106.333 77.8333 107.751 77.8333 109.5V125.333C77.8333 127.082 76.4156 128.5 74.6667 128.5H58.8333C57.0844 128.5 55.6667 127.082 55.6667 125.333V109.5C55.6667 107.751 57.0844 106.333 58.8333 106.333ZM80.0725 73.7392C81.3091 72.5026 81.3091 70.4974 80.0725 69.2609C78.8359 68.0243 76.8308 68.0243 75.5942 69.2609L65.1667 79.6884L61.0725 75.5942C59.8359 74.3576 57.8308 74.3576 56.5942 75.5942C55.3575 76.8308 55.3575 78.8359 56.5942 80.0725L65.1667 88.645L80.0725 73.7392Z" fill="#5C619D"/>
</svg>
