<svg width="200" height="200" viewBox="0 0 200 200" fill="none" xmlns="http://www.w3.org/2000/svg">
<path fill-rule="evenodd" clip-rule="evenodd" d="M62 49.3332C62 42.3376 67.6712 36.6665 74.6667 36.6665H125.333C132.329 36.6665 138 42.3376 138 49.3332V96.8332C136.251 96.8332 134.833 98.2509 134.833 99.9998C134.833 101.749 136.251 103.167 138 103.167V150.666C138 157.662 132.329 163.333 125.333 163.333H74.6667C67.6712 163.333 62 157.662 62 150.666V103.167C63.749 103.167 65.1667 101.749 65.1667 99.9998C65.1667 98.2509 63.749 96.8332 62 96.8332V49.3332ZM71.5 103.167C73.249 103.167 74.6667 101.749 74.6667 99.9998C74.6667 98.2509 73.249 96.8332 71.5 96.8332C69.7511 96.8332 68.3333 98.2509 68.3333 99.9998C68.3333 101.749 69.7511 103.167 71.5 103.167ZM84.1667 99.9998C84.1667 101.749 82.749 103.167 81 103.167C79.2511 103.167 77.8333 101.749 77.8333 99.9998C77.8333 98.2509 79.2511 96.8332 81 96.8332C82.749 96.8332 84.1667 98.2509 84.1667 99.9998ZM90.5 103.167C92.249 103.167 93.6667 101.749 93.6667 99.9998C93.6667 98.2509 92.249 96.8332 90.5 96.8332C88.7511 96.8332 87.3333 98.2509 87.3333 99.9998C87.3333 101.749 88.7511 103.167 90.5 103.167ZM103.167 99.9998C103.167 101.749 101.749 103.167 100 103.167C98.2511 103.167 96.8333 101.749 96.8333 99.9998C96.8333 98.2509 98.2511 96.8332 100 96.8332C101.749 96.8332 103.167 98.2509 103.167 99.9998ZM109.5 103.167C111.249 103.167 112.667 101.749 112.667 99.9998C112.667 98.2509 111.249 96.8332 109.5 96.8332C107.751 96.8332 106.333 98.2509 106.333 99.9998C106.333 101.749 107.751 103.167 109.5 103.167ZM122.167 99.9998C122.167 101.749 120.749 103.167 119 103.167C117.251 103.167 115.833 101.749 115.833 99.9998C115.833 98.2509 117.251 96.8332 119 96.8332C120.749 96.8332 122.167 98.2509 122.167 99.9998ZM128.5 103.167C130.249 103.167 131.667 101.749 131.667 99.9998C131.667 98.2509 130.249 96.8332 128.5 96.8332C126.751 96.8332 125.333 98.2509 125.333 99.9998C125.333 101.749 126.751 103.167 128.5 103.167ZM93.8918 60.1448C91.4183 57.6716 87.4084 57.6716 84.9349 60.1448L75.9783 69.1014C73.5051 71.5749 73.5051 75.5848 75.9783 78.0583C78.4518 80.5315 82.4617 80.5315 84.9349 78.0583L93.8918 69.1014C96.365 66.6282 96.365 62.6183 93.8918 60.1448ZM113.435 60.1448C115.908 57.6716 119.918 57.6716 122.392 60.1448C124.865 62.6183 124.865 66.6282 122.392 69.1014L113.435 78.0583C110.962 80.5315 106.952 80.5315 104.478 78.0583C102.005 75.5848 102.005 71.5749 104.478 69.1014L113.435 60.1448ZM93.8918 123.478C91.4183 121.005 87.4084 121.005 84.9349 123.478L75.9783 132.435C73.5051 134.908 73.5051 138.918 75.9783 141.392C78.4518 143.865 82.4617 143.865 84.9349 141.392L93.8918 132.435C96.365 129.962 96.365 125.952 93.8918 123.478ZM113.435 123.478C115.908 121.005 119.918 121.005 122.392 123.478C124.865 125.952 124.865 129.962 122.392 132.435L113.435 141.392C110.962 143.865 106.952 143.865 104.478 141.392C102.005 138.918 102.005 134.908 104.478 132.435L113.435 123.478Z" fill="#5C619D"/>
</svg>
