<svg width="200" height="200" viewBox="0 0 200 200" fill="none" xmlns="http://www.w3.org/2000/svg">
<path fill-rule="evenodd" clip-rule="evenodd" d="M87.3307 36.6665C82.0839 36.6665 77.8307 40.9198 77.8307 46.1665H65.1641C59.9172 46.1665 55.6641 50.4198 55.6641 55.6665V153.833C55.6641 159.08 59.9172 163.333 65.1641 163.333H134.831C140.078 163.333 144.331 159.08 144.331 153.833V55.6665C144.331 50.4198 140.078 46.1665 134.831 46.1665H122.164C122.164 40.9198 117.911 36.6665 112.664 36.6665H87.3307ZM84.1641 46.1665C84.1641 44.4176 85.5818 42.9998 87.3307 42.9998H112.664C114.413 42.9998 115.831 44.4176 115.831 46.1665V52.4998C115.831 54.2487 114.413 55.6665 112.664 55.6665H87.3307C85.5818 55.6665 84.1641 54.2487 84.1641 52.4998V46.1665ZM84.1641 71.4998V80.9998H74.6641V87.3332H84.1641V96.8332H90.4974V87.3332H99.9974V80.9998H90.4974V71.4998H84.1641ZM77.8307 106.333C76.0818 106.333 74.6641 107.751 74.6641 109.5C74.6641 111.249 76.0818 112.667 77.8307 112.667H122.164C123.913 112.667 125.331 111.249 125.331 109.5C125.331 107.751 123.913 106.333 122.164 106.333H77.8307ZM74.6641 125.333C74.6641 123.584 76.0818 122.166 77.8307 122.166H122.164C123.913 122.166 125.331 123.584 125.331 125.333C125.331 127.082 123.913 128.5 122.164 128.5H77.8307C76.0818 128.5 74.6641 127.082 74.6641 125.333ZM77.8307 138C76.0818 138 74.6641 139.418 74.6641 141.166C74.6641 142.915 76.0818 144.333 77.8307 144.333H122.164C123.913 144.333 125.331 142.915 125.331 141.166C125.331 139.418 123.913 138 122.164 138H77.8307Z" fill="#5C619D"/>
</svg>
