<svg width="200" height="200" viewBox="0 0 200 200" fill="none" xmlns="http://www.w3.org/2000/svg">
<path fill-rule="evenodd" clip-rule="evenodd" d="M125.331 68.3333C125.331 82.3246 113.989 93.6667 99.9974 93.6667C86.0061 93.6667 74.6641 82.3246 74.6641 68.3333C74.6641 54.3421 86.0061 43 99.9974 43C113.989 43 125.331 54.3421 125.331 68.3333ZM75.3367 122.202C75.1156 122.179 74.8914 122.167 74.6641 122.167C71.1662 122.167 68.3307 125.002 68.3307 128.5C68.3307 129.176 68.4368 129.828 68.6331 130.439L75.3367 122.202ZM102.515 135.617C106.606 137.247 109.497 141.244 109.497 145.917C109.497 151.5 105.368 156.119 99.9974 156.888V157H98.4141H97.6943H84.9785H80.9974H74.6641C58.9238 157 46.1641 144.24 46.1641 128.5C46.1641 112.76 58.9238 100 74.6641 100H93.406H94.9114H98.4141H112.664H117.422H125.331C141.071 100 153.831 112.76 153.831 128.5C153.831 144.24 141.071 157 125.331 157H111.85C114.337 153.989 115.831 150.127 115.831 145.917C115.831 138.613 111.335 132.36 104.961 129.772L102.515 135.617ZM96.9438 106.333H98.4141H107.906L89.3495 150.667H74.6641C70.3938 150.667 66.4054 149.459 63.0218 147.367L93.5681 109.834L96.9438 106.333ZM131.664 128.5C131.664 131.998 128.829 134.833 125.331 134.833V122.167C128.829 122.167 131.664 125.002 131.664 128.5Z" fill="#5C619D"/>
</svg>
