<svg width="200" height="200" viewBox="0 0 200 200" fill="none" xmlns="http://www.w3.org/2000/svg">
<path fill-rule="evenodd" clip-rule="evenodd" d="M143.187 112.069C142.419 112.481 141.559 112.695 140.686 112.692H134.559L134.069 138H129.968C122.051 138 114.439 134.76 108.811 128.959C103.18 123.154 100 115.262 100 107.014V68.3333H130.636C130.911 69.3964 131.107 70.4715 131.103 71.2052L131.715 81.234C131.715 81.234 140.352 94.0128 145.481 105.396C145.836 106.187 145.986 107.054 145.917 107.917C145.848 108.78 145.562 109.612 145.085 110.337C144.608 111.063 143.956 111.658 143.187 112.069ZM127.866 62H134.9C140.793 62 146.424 64.414 150.561 68.6779C154.694 72.9383 157 78.6972 157 84.6825V144.333H133.946L134.069 138H150.667V84.6825C150.667 80.316 148.983 76.1471 146.015 73.0878C143.05 70.0319 139.05 68.3333 134.9 68.3333H130.636C130.356 67.2453 129.993 66.1696 129.681 65.4852C129.113 64.2651 128.509 63.1042 127.866 62ZM127.866 62H93.6669V62.3189H51.2197C61.4058 47.7779 79.8323 40.0683 99.8225 44.0364C113.135 46.6823 122.061 52.0226 127.866 62ZM47.5217 68.6522H93.6669V85.1978H43.1182C43.6048 79.1988 45.1361 73.6378 47.5217 68.6522ZM43 91.5311H93.6669V107.014C93.6669 116.881 97.4688 126.363 104.265 133.368C108.419 137.65 113.485 140.792 119.001 142.59V144.333H111.197V157H58.7021V124.248C53.6957 119.819 49.7008 114.382 46.9846 108.3C44.6165 102.996 43.2679 97.3096 43 91.5311Z" fill="#5C619D"/>
</svg>
