<svg width="156" height="156" viewBox="0 0 156 156" fill="none" xmlns="http://www.w3.org/2000/svg">
<g opacity="0.25">
<rect width="156" height="156" rx="78" fill="white"/>
<path d="M77.9987 28.8328C50.9079 28.8328 28.832 50.9086 28.832 77.9994C28.832 105.09 50.9079 127.166 77.9987 127.166C105.09 127.166 127.165 105.09 127.165 77.9994C127.165 50.9086 105.09 28.8328 77.9987 28.8328ZM74.3112 58.3328C74.3112 56.3169 75.9829 54.6453 77.9987 54.6453C80.0145 54.6453 81.6862 56.3169 81.6862 58.3328V82.9161C81.6862 84.9319 80.0145 86.6036 77.9987 86.6036C75.9829 86.6036 74.3112 84.9319 74.3112 82.9161V58.3328ZM82.522 99.5344C82.2762 100.174 81.932 100.665 81.4895 101.157C80.9979 101.599 80.457 101.944 79.867 102.189C79.277 102.435 78.6379 102.583 77.9987 102.583C77.3595 102.583 76.7204 102.435 76.1304 102.189C75.5404 101.944 74.9995 101.599 74.5079 101.157C74.0654 100.665 73.7212 100.174 73.4754 99.5344C73.2295 98.9444 73.082 98.3053 73.082 97.6661C73.082 97.0269 73.2295 96.3878 73.4754 95.7978C73.7212 95.2078 74.0654 94.6669 74.5079 94.1753C74.9995 93.7328 75.5404 93.3886 76.1304 93.1428C77.3104 92.6511 78.687 92.6511 79.867 93.1428C80.457 93.3886 80.9979 93.7328 81.4895 94.1753C81.932 94.6669 82.2762 95.2078 82.522 95.7978C82.7679 96.3878 82.9154 97.0269 82.9154 97.6661C82.9154 98.3053 82.7679 98.9444 82.522 99.5344Z" fill="#5C619D"/>
</g>
</svg>
