<svg width="156" height="156" viewBox="0 0 156 156" fill="none" xmlns="http://www.w3.org/2000/svg">
<g opacity="0.25">
<rect width="156" height="156" rx="78" fill="white"/>
<path d="M101.653 35.9758V28.2083C101.653 26.1668 99.9601 24.4739 97.9186 24.4739C95.8772 24.4739 94.1842 26.1668 94.1842 28.2083V35.677H61.8197V28.2083C61.8197 26.1668 60.1267 24.4739 58.0853 24.4739C56.0438 24.4739 54.3509 26.1668 54.3509 28.2083V35.9758C40.9072 37.2205 34.3845 45.237 33.3886 57.1372C33.289 58.5812 34.484 59.7762 35.8782 59.7762H120.126C121.57 59.7762 122.765 58.5314 122.615 57.1372C121.619 45.237 115.097 37.2205 101.653 35.9758Z" fill="#5C619D"/>
<path d="M117.833 67.2437H38.1667C35.4281 67.2437 33.1875 69.4843 33.1875 72.2228V102.894C33.1875 117.832 40.6562 127.79 58.0833 127.79H97.9167C115.344 127.79 122.812 117.832 122.812 102.894V72.2228C122.812 69.4843 120.572 67.2437 117.833 67.2437ZM64.1081 108.919C63.8592 109.118 63.6102 109.367 63.3613 109.517C63.0625 109.716 62.7638 109.865 62.465 109.965C62.1663 110.114 61.8675 110.214 61.5687 110.264C61.2202 110.313 60.9215 110.363 60.5729 110.363C59.9256 110.363 59.2783 110.214 58.6808 109.965C58.0335 109.716 57.5356 109.367 57.0377 108.919C56.1415 107.973 55.5938 106.679 55.5938 105.384C55.5938 104.089 56.1415 102.795 57.0377 101.849C57.5356 101.401 58.0335 101.052 58.6808 100.803C59.5771 100.405 60.5729 100.305 61.5687 100.504C61.8675 100.554 62.1663 100.654 62.465 100.803C62.7638 100.903 63.0625 101.052 63.3613 101.251C63.6102 101.451 63.8592 101.65 64.1081 101.849C65.0044 102.795 65.5521 104.089 65.5521 105.384C65.5521 106.679 65.0044 107.973 64.1081 108.919ZM64.1081 91.4922C63.1621 92.3884 61.8675 92.9362 60.5729 92.9362C59.2783 92.9362 57.9837 92.3884 57.0377 91.4922C56.1415 90.5462 55.5938 89.2516 55.5938 87.957C55.5938 86.6624 56.1415 85.3678 57.0377 84.4218C58.4319 83.0276 60.6227 82.5795 62.465 83.3762C63.1123 83.6251 63.66 83.9737 64.1081 84.4218C65.0044 85.3678 65.5521 86.6624 65.5521 87.957C65.5521 89.2516 65.0044 90.5462 64.1081 91.4922ZM81.5352 108.919C80.5892 109.816 79.2946 110.363 78 110.363C76.7054 110.363 75.4108 109.816 74.4648 108.919C73.5685 107.973 73.0208 106.679 73.0208 105.384C73.0208 104.089 73.5685 102.795 74.4648 101.849C76.3071 100.007 79.6929 100.007 81.5352 101.849C82.4315 102.795 82.9792 104.089 82.9792 105.384C82.9792 106.679 82.4315 107.973 81.5352 108.919ZM81.5352 91.4922C81.2862 91.6914 81.0373 91.8905 80.7883 92.0897C80.4896 92.2889 80.1908 92.4382 79.8921 92.5378C79.5933 92.6872 79.2946 92.7868 78.9958 92.8366C78.6473 92.8864 78.3485 92.9362 78 92.9362C76.7054 92.9362 75.4108 92.3884 74.4648 91.4922C73.5685 90.5462 73.0208 89.2516 73.0208 87.957C73.0208 86.6624 73.5685 85.3678 74.4648 84.4218C74.9129 83.9737 75.4606 83.6251 76.1079 83.3762C77.9502 82.5795 80.141 83.0276 81.5352 84.4218C82.4315 85.3678 82.9792 86.6624 82.9792 87.957C82.9792 89.2516 82.4315 90.5462 81.5352 91.4922ZM98.9623 108.919C98.0162 109.816 96.7217 110.363 95.4271 110.363C94.1325 110.363 92.8379 109.816 91.8919 108.919C90.9956 107.973 90.4479 106.679 90.4479 105.384C90.4479 104.089 90.9956 102.795 91.8919 101.849C93.7342 100.007 97.12 100.007 98.9623 101.849C99.8585 102.795 100.406 104.089 100.406 105.384C100.406 106.679 99.8585 107.973 98.9623 108.919ZM98.9623 91.4922C98.7133 91.6914 98.4644 91.8905 98.2154 92.0897C97.9167 92.2889 97.6179 92.4382 97.3192 92.5378C97.0204 92.6872 96.7217 92.7868 96.4229 92.8366C96.0744 92.8864 95.7258 92.9362 95.4271 92.9362C94.1325 92.9362 92.8379 92.3884 91.8919 91.4922C90.9956 90.5462 90.4479 89.2516 90.4479 87.957C90.4479 86.6624 90.9956 85.3678 91.8919 84.4218C92.3898 83.9737 92.8877 83.6251 93.535 83.3762C94.4312 82.9778 95.4271 82.8782 96.4229 83.0774C96.7217 83.1272 97.0204 83.2268 97.3192 83.3762C97.6179 83.4757 97.9167 83.6251 98.2154 83.8243C98.4644 84.0234 98.7133 84.2226 98.9623 84.4218C99.8585 85.3678 100.406 86.6624 100.406 87.957C100.406 89.2516 99.8585 90.5462 98.9623 91.4922Z" fill="#5C619D"/>
</g>
</svg>
