<svg width="200" height="200" viewBox="0 0 200 200" fill="none" xmlns="http://www.w3.org/2000/svg">
<path fill-rule="evenodd" clip-rule="evenodd" d="M108.02 43.8684C105.013 43.0215 101.013 42.9974 97.0187 42.9974C92.0015 42.9974 88.8785 44.2981 86.8522 46.0374C84.7926 47.8054 83.5034 50.3378 82.757 53.4502C82.0072 56.5776 81.858 60.0746 81.9223 63.5022C81.9331 64.0633 81.9492 64.6175 81.9685 65.1641H141.169C142.918 65.1641 144.355 66.5881 144.156 68.3257C142.123 86.0821 123.131 99.9974 100.003 99.9974C76.8743 99.9974 57.8825 86.0821 55.8495 68.3257C55.6505 66.5881 57.0871 65.1641 58.836 65.1641H75.6314C75.6143 64.6583 75.6 64.1431 75.5902 63.6213C75.5221 60.0027 75.6621 55.8775 76.5982 51.9734C77.538 48.0543 79.3316 44.1463 82.7273 41.2317C86.1561 38.2883 90.8608 36.6641 97.0187 36.6641H97.2477C100.958 36.6636 105.798 36.663 109.737 37.7723C111.787 38.3499 113.892 39.3031 115.503 40.9701C117.194 42.7201 118.105 45.0139 118.105 47.7474C118.105 49.4963 116.687 50.9141 114.938 50.9141C113.189 50.9141 111.772 49.4963 111.772 47.7474C111.772 46.5226 111.409 45.8477 110.949 45.3712C110.408 44.8115 109.482 44.2804 108.02 43.8684ZM74.669 156.997V163.331H125.336V156.997H74.669Z" fill="#5C619D"/>
<path fill-rule="evenodd" clip-rule="evenodd" d="M119.115 85.3022C123.606 88.3944 125.335 92.8838 125.335 97.789C125.335 102.681 123.618 107.235 119.157 110.416C116.031 112.645 111.779 114.033 106.335 114.611V108.236C110.691 107.701 113.599 106.601 115.481 105.259C117.947 103.5 119.001 101.072 119.001 97.789C119.001 94.5187 117.959 92.1957 115.523 90.5189C112.846 88.6756 108.08 87.3304 100.001 87.3304V80.9971C108.548 80.9971 114.865 82.3768 119.115 85.3022ZM93.668 108.661V115.002C90.6045 115.119 87.9107 115.406 85.7329 116.108C84.0267 116.658 82.9099 117.385 82.2065 118.259C81.533 119.096 81.0013 120.361 81.0013 122.467C81.0013 124.584 81.5346 125.857 82.21 126.699C82.9143 127.577 84.0315 128.307 85.7358 128.858C89.2828 130.004 94.2 130.047 99.8553 130.048L99.9161 130.043C100.059 130.032 100.254 130.019 100.496 130.008C100.977 129.987 101.646 129.977 102.443 130.014C104.018 130.087 106.191 130.351 108.42 131.156C110.661 131.965 113.067 133.363 114.906 135.763C116.768 138.192 117.855 141.394 117.855 145.448C117.855 149.497 116.769 152.677 114.863 155.053C112.98 157.401 110.524 158.679 108.263 159.364C107.61 159.561 106.963 159.713 106.335 159.828V153.329C106.365 153.321 106.396 153.311 106.427 153.302C107.838 152.875 109.053 152.175 109.923 151.09C110.771 150.033 111.521 148.327 111.521 145.448C111.521 142.572 110.772 140.78 109.88 139.616C108.965 138.423 107.7 137.629 106.269 137.113C104.827 136.592 103.328 136.395 102.149 136.34C101.569 136.313 101.091 136.322 100.769 136.336C100.609 136.342 100.489 136.351 100.416 136.356L100.345 136.362L100.341 136.363L100.337 136.363L100.176 136.381H99.6628C94.3792 136.382 88.4237 136.383 83.7877 134.884C81.336 134.092 78.9895 132.806 77.2694 130.661C75.5204 128.481 74.668 125.723 74.668 122.467C74.668 119.217 75.5217 116.464 77.2725 114.289C78.9936 112.15 81.3405 110.869 83.7908 110.08C86.7228 109.135 90.1834 108.788 93.668 108.661Z" fill="#5C619D"/>
<path fill-rule="evenodd" clip-rule="evenodd" d="M97.1982 137.996V158.58H103.532V137.996H97.1982ZM97.1982 125.33H103.532V87.7942H97.1982V125.33Z" fill="#5C619D"/>
</svg>
