<svg width="200" height="200" viewBox="0 0 200 200" fill="none" xmlns="http://www.w3.org/2000/svg">
<path fill-rule="evenodd" clip-rule="evenodd" d="M45.4427 64.641C44.0079 66.0759 44.0079 68.4021 45.4427 69.837C46.8775 71.2719 49.2038 71.2719 50.6386 69.837L53.2382 67.2374L66.2263 80.2256L55.8345 90.6177C54.3997 92.0526 54.3997 94.3792 55.8345 95.8137C57.2694 97.2487 59.5956 97.2487 61.0302 95.8137L66.225 90.619L75.6077 100.002H50.3842C48.3846 100.002 46.467 100.804 45.053 102.234C43.6391 103.662 42.8448 105.601 42.8448 107.621V119.048C42.8255 127.923 45.8049 136.537 51.2899 143.468C56.775 150.398 64.4367 155.227 73.0074 157.157C81.5791 155.228 89.242 150.399 94.728 143.469C98.5926 138.587 101.213 132.869 102.419 126.813L110.392 134.787C115.718 140.113 123.502 141.485 130.094 138.902L133.773 142.581C135.696 144.505 138.422 145.139 140.873 144.483L149.361 152.971C150.796 154.406 153.122 154.406 154.557 152.971C155.992 151.537 155.992 149.21 154.557 147.775L146.068 139.286C146.722 136.835 146.087 134.112 144.165 132.189L140.486 128.51C141.132 126.862 141.531 125.139 141.682 123.399C141.796 122.087 141.77 120.765 141.603 119.459C141.106 115.564 139.362 111.798 136.371 108.806L92.2046 64.6388L97.4019 59.4418C98.8365 58.0069 98.8365 55.6803 97.4019 54.2456C95.967 52.8107 93.6408 52.8108 92.2058 54.2456L81.8141 64.6375L68.8259 51.6493L71.4223 49.0529C72.8569 47.6181 72.8569 45.2917 71.4223 43.8569C69.9874 42.422 67.6612 42.422 66.2263 43.8569L45.4427 64.641ZM108.086 123.5L125.085 106.501L87.7141 69.1296L70.7155 86.1285L84.5886 100.002H95.6358C97.6353 100.002 99.5528 100.804 100.967 102.234C102.381 103.662 103.175 105.601 103.175 107.621V118.588L108.086 123.5ZM77.3236 69.1283L64.3354 56.1398L57.7286 62.7469L70.7168 75.7351L77.3236 69.1283ZM137.058 134.063C136.837 134.309 136.608 134.55 136.371 134.787C136.134 135.023 135.893 135.252 135.647 135.474L138.263 138.09C138.653 138.48 139.285 138.48 139.674 138.09C140.064 137.701 140.064 137.069 139.674 136.679L137.058 134.063ZM130.281 111.697L131.881 113.297C133.803 115.22 134.939 117.632 135.286 120.133C135.411 121.033 135.435 121.945 135.355 122.849C135.256 123.988 134.994 125.116 134.571 126.194L127.779 132.987C123.465 134.68 118.369 133.783 114.882 130.296L113.282 128.696L130.281 111.697ZM77.7729 115.878C77.7729 114.124 76.3513 112.703 74.5976 112.703C72.8439 112.703 71.4223 114.124 71.4223 115.878V122.229H65.0717C63.318 122.229 61.8965 123.65 61.8965 125.404C61.8965 127.158 63.318 128.579 65.0717 128.579H71.4223V134.93C71.4223 136.684 72.8439 138.105 74.5976 138.105C76.3513 138.105 77.7729 136.684 77.7729 134.93V128.579H84.1235C85.8772 128.579 87.2987 127.158 87.2987 125.404C87.2987 123.65 85.8772 122.229 84.1235 122.229H77.7729V115.878Z" fill="#5C619D"/>
</svg>
