<?xml version="1.0" encoding="UTF-8"?>
<svg id="_Слой_1" data-name="Слой 1" xmlns="http://www.w3.org/2000/svg" xmlns:xlink="http://www.w3.org/1999/xlink" viewBox="0 0 200 200">
  <defs>
    <linearGradient id="_Безымянный_градиент_60" data-name="Безымянный градиент 60" x1="122.81" y1="69.95" x2="71.3" y2="124.49" gradientUnits="userSpaceOnUse">
      <stop offset=".16" stop-color="#606bad"/>
      <stop offset=".19" stop-color="#636dae"/>
      <stop offset=".4" stop-color="#757bb7"/>
      <stop offset=".62" stop-color="#7f84bd"/>
      <stop offset=".89" stop-color="#8387bf"/>
    </linearGradient>
    <linearGradient id="_Безымянный_градиент_44" data-name="Безымянный градиент 44" x1="106.25" y1="149.41" x2="13.81" y2="58.03" gradientUnits="userSpaceOnUse">
      <stop offset="0" stop-color="#e6e6ff"/>
      <stop offset=".4" stop-color="#e4e4fd"/>
      <stop offset=".55" stop-color="#ddddf9"/>
      <stop offset=".67" stop-color="#d0d2f2"/>
      <stop offset=".76" stop-color="#bfc2e7"/>
      <stop offset=".84" stop-color="#a9aed9"/>
      <stop offset=".91" stop-color="#8d94c8"/>
      <stop offset=".98" stop-color="#6c76b4"/>
      <stop offset="1" stop-color="#606bad"/>
    </linearGradient>
    <linearGradient id="_Безымянный_градиент_47" data-name="Безымянный градиент 47" x1="33.55" y1="137.06" x2="81.77" y2="137.06" gradientUnits="userSpaceOnUse">
      <stop offset="0" stop-color="#8387bf"/>
      <stop offset=".55" stop-color="#7179b6"/>
      <stop offset="1" stop-color="#606bad"/>
    </linearGradient>
  </defs>
  <path d="M130.79,96.86c0,9.15-3.76,17.42-9.86,23.35-.26-2.04-1.21-3.99-2.84-5.45l-32.31-29.15-16.71,15.85c-.83.77-1.75,1.34-2.74,1.66-2.84,1.05-6.16.38-8.36-1.98-1.44-1.53-2.17-3.48-2.17-5.42,0-2.07.83-4.15,2.46-5.68l15.92-15.06.32-.32,1.05-1.02,1.56-1.47c5.68-4.91,13.08-7.85,21.15-7.85,17.96,0,32.53,14.58,32.53,32.53Z" fill="url(#_Безымянный_градиент_60)"/>
  <path d="M118.73,127.16c-2.3,2.55-5.74,3.41-8.84,2.55,1.12,2.87.64,6.22-1.56,8.68-2.93,3.25-7.81,3.64-11.23,1.05,1.82,3.09,1.53,7.14-1.02,9.98-2.49,2.74-6.38,3.48-9.63,2.11.48,2.33-.13,4.88-1.85,6.79l-.29.29c-2.46,2.78-6.47,3.38-9.6,1.66-.22-.1-.41-.22-.64-.38,1.69-.57,3.38-1.66,4.75-3.19,3.29-3.6,3.86-8.48,1.53-11.29-.19-.19-.35-.38-.57-.57-.1-.1-.13-.13-.34-.26-.05-.05-.08-.06-.08-.06-1.72-1.31-4.08-1.5-6.38-.8.51-1.44.7-2.87.61-4.15-.19-1.75-.89-3.25-2.14-4.34-1.21-1.08-2.81-1.59-4.59-1.59-1.66,0-3.41.48-5.1,1.37.54-2.26.38-4.5-.41-6.25-.54-1.21-1.37-2.2-2.49-2.93-.51-.32-1.02-.54-1.56-.7-1.95-.64-4.18-.32-6.25.7.77-1.91,1.02-3.89.8-5.61-.22-2.3-1.28-4.31-3.09-5.42-1.21-.77-2.55-1.08-4.02-1.02-3.16.13-6.63,2.23-8.93,5.74-.92,1.37-1.53,2.84-1.88,4.27l-.7-.64-5.07-4.56c-.51-.61-1.02-1.18-1.47-1.79-.29-.41-.61-.8-.89-1.24-.03-.03-.06-.1-.1-.13-3.57-5.23-5.65-11.55-5.65-18.37,0-18.05,14.64-32.69,32.69-32.69,8.87,0,16.91,3.51,22.77,9.25-.35.35-.7.7-1.02,1.05l-.32.32-15.92,15.06c-1.63,1.53-2.46,3.6-2.46,5.68,0,1.95.73,3.89,2.17,5.42,2.2,2.36,5.52,3.03,8.36,1.98.99-.32,1.91-.89,2.74-1.66l16.71-15.85,32.31,29.15c1.63,1.47,2.58,3.41,2.84,5.45.29,2.42-.41,4.98-2.2,6.95Z" fill="url(#_Безымянный_градиент_44)"/>
  <path d="M86.68,152.48c-.21,0-.42-.07-.61-.2l-5.2-3.9c-.45-.34-.54-.97-.2-1.42.34-.45.98-.53,1.42-.2l5.21,3.9c.45.34.54.97.2,1.42-.2.26-.5.4-.81.4Z" fill="#4a5399"/>
  <path d="M98.35,141.26c-.24,0-.47-.08-.66-.25l-23.94-20.9c-.42-.37-.46-1.01-.1-1.43.37-.42,1.01-.46,1.43-.1l23.94,20.9c.42.37.47,1.01.1,1.43-.2.23-.48.35-.76.35Z" fill="#4a5399"/>
  <path d="M109.89,130.72c-.24,0-.47-.08-.66-.25l-24.46-21.38c-.42-.37-.47-1.01-.1-1.43.38-.42,1.01-.46,1.43-.1l24.46,21.38c.42.37.47,1.01.1,1.43-.2.23-.48.35-.76.35Z" fill="#4a5399"/>
  <path d="M80.35,145.4c-.19-.19-.35-.38-.57-.57-.07-.08-.04-.04-.43-.32-1.72-1.31-4.05-1.51-6.38-.78.52-1.44.73-2.88.61-4.17-.19-1.73-.87-3.24-2.12-4.33-1.22-1.09-2.82-1.59-4.59-1.59h-.03c-1.65,0-3.41.48-5.09,1.38.53-2.26.37-4.49-.43-6.26-.53-1.2-1.35-2.2-2.47-2.92-.5-.32-1.04-.56-1.57-.69-1.94-.64-4.17-.35-6.27.69.77-1.91,1.04-3.88.82-5.63-.24-2.28-1.3-4.28-3.11-5.42-1.2-.77-2.55-1.09-4.01-1.01-3.16.13-6.64,2.23-8.95,5.74-1.27,1.94-1.99,4.04-2.18,6.03-.32,3.21.74,6.11,3.11,7.62,1.75,1.12,3.9,1.3,6.06.66.58-.16,1.17-.4,1.75-.72-.24.58-.42,1.2-.56,1.78-.93,3.82.05,7.54,2.87,9.35,2.17,1.37,4.93,1.32,7.55.1,0,.03-.02.06-.02.09-.57,2.79.05,5.42,1.95,7.09,1.87,1.65,4.61,1.97,7.38,1.17.54-.15,1.08-.36,1.62-.6-.15.58-.24,1.17-.27,1.73-.05,1.98.62,3.79,2.02,5.06,1.45,1.3,3.42,1.73,5.49,1.41,2.18-.35,4.47-1.6,6.28-3.57,3.26-3.6,3.85-8.47,1.51-11.29Z" fill="url(#_Безымянный_градиент_47)"/>
</svg>