<svg width="200" height="200" viewBox="0 0 200 200" fill="none" xmlns="http://www.w3.org/2000/svg">
<path fill-rule="evenodd" clip-rule="evenodd" d="M85.0837 69.418C85.6388 69.1101 86.274 68.976 86.9061 69.0331L129.802 72.9184C131.186 73.0438 132.327 74.0576 132.614 75.4178L133.269 78.5161L136.367 77.8616C144.923 76.0544 153.324 81.5252 155.131 90.0809L157.749 102.474C159.556 111.03 154.085 119.431 145.53 121.238L137.919 122.845C135.57 128.923 131.152 134.171 125.164 137.493L103.864 149.315C103.309 149.623 102.674 149.757 102.042 149.7L77.7801 147.502C70.9604 146.885 64.7973 143.872 60.1912 139.264L52.5805 140.871C44.0248 142.679 35.624 137.208 33.8168 128.652L31.199 116.259C29.3918 107.703 34.8625 99.3024 43.4182 97.4952L46.5165 96.8407L45.8621 93.7424C45.5747 92.3823 46.2081 90.9937 47.4236 90.3191L85.0837 69.418ZM52.4664 125.009C53.1275 128.138 54.2905 131.064 55.8643 133.705L51.2716 134.675C46.1382 135.759 41.0977 132.477 40.0134 127.343L37.3956 114.95C36.3112 109.816 39.5937 104.776 44.7271 103.692L47.8254 103.037L52.4664 125.009ZM139.628 116.011L144.221 115.041C149.354 113.957 152.637 108.917 151.552 103.783L148.934 91.3898C147.85 86.2562 142.81 82.9739 137.676 84.0582L134.578 84.7127L139.219 106.684C139.88 109.814 139.999 112.96 139.628 116.011ZM92.3366 83.9257L102.808 133.498L96.6112 134.807L86.14 85.2346L92.3366 83.9257ZM123.668 109.673C124.39 113.095 122.202 116.456 118.78 117.179C115.357 117.901 111.997 115.713 111.274 112.291C110.551 108.868 112.74 105.508 116.162 104.785C119.584 104.062 122.945 106.251 123.668 109.673Z" fill="#5C619D"/>
</svg>
