<svg width="200" height="200" viewBox="0 0 200 200" fill="none" xmlns="http://www.w3.org/2000/svg">
<path fill-rule="evenodd" clip-rule="evenodd" d="M53.0588 50.918C47.5035 50.918 43 55.4751 43 61.0966V122.168C43 127.789 47.5035 132.347 53.0588 132.347H86.5879V139.132H73.1761V145.918H126.823V139.132H113.412V132.347H146.941C152.496 132.347 157 127.789 157 122.168V61.0966C157 55.4751 152.496 50.918 146.941 50.918H53.0588ZM93.2939 139.132V132.347H106.706V139.132H93.2939ZM66.471 64.4897H73.1771V71.2752H79.8837V78.0611H73.1771V84.8466H66.471V78.0611H59.7659V71.2752H66.471V64.4897ZM59.764 98.4183C59.764 96.5443 61.2653 95.0252 63.1172 95.0252H76.529C78.3805 95.0252 79.8819 96.5443 79.8819 98.4183V111.99C79.8819 113.863 78.3805 115.382 76.529 115.382H63.1172C61.2653 115.382 59.764 113.863 59.764 111.99V98.4183ZM89.9408 67.8824C89.9408 66.0087 91.4418 64.4897 93.2936 64.4897H106.705C108.557 64.4897 110.058 66.0087 110.058 67.8824V81.4538C110.058 83.3275 108.557 84.8466 106.705 84.8466H93.2936C91.4418 84.8466 89.9408 83.3275 89.9408 81.4538V67.8824ZM89.9401 98.4183C89.9401 96.5443 91.4414 95.0252 93.2933 95.0252H106.705C108.557 95.0252 110.058 96.5443 110.058 98.4183V111.99C110.058 113.863 108.557 115.382 106.705 115.382H93.2933C91.4414 115.382 89.9401 113.863 89.9401 111.99V98.4183ZM120.117 67.8824C120.117 66.0087 121.618 64.4897 123.47 64.4897H136.882C138.733 64.4897 140.235 66.0087 140.235 67.8824V81.4538C140.235 83.3275 138.733 84.8466 136.882 84.8466H123.47C121.618 84.8466 120.117 83.3275 120.117 81.4538V67.8824Z" fill="#5C619D"/>
</svg>
