<svg xmlns="http://www.w3.org/2000/svg" viewBox="0 0 283.46 283.46"><defs><filter id="drop-shadow-2" width="185.25" height="96.45" x="34.73" y="91.37" filterUnits="userSpaceOnUse"><feOffset dx="2.83" dy="2.83"/><feGaussianBlur result="blur" stdDeviation="2.83"/><feFlood flood-color="#101433" flood-opacity=".25"/><feComposite in2="blur" operator="in"/><feComposite in="SourceGraphic"/></filter><style>.cls-4{fill:#decdab}.cls-5{fill:#fafafa}</style></defs><g style="isolation:isolate"><g id="_Слой_1" data-name="Слой 1"><circle cx="142.11" cy="141.86" r="139.01" style="fill:#223056;mix-blend-mode:multiply;opacity:.95"/><path d="M88.5 235.18q-1.485 0-2.64-.81c-.78-.54-1.07-1.42-.88-2.64.09-.85.42-1.55.99-2.12.56-.56 1.17-.85 1.83-.85.47 0 .86.12 1.16.35.31.24.49.51.56.81q.105.465.42.81c.21.24.5.35.88.35 1.36 0 2.74-1.46 4.12-4.37a50 50 0 0 0 3.31-9.16c.82-3.2 1.44-6.18 1.87-8.95.14-1.03.17-1.81.07-2.33q-.135-.78-.99-1.2c-1.17-.52-1.76-1.08-1.76-1.69 0-.8.74-1.39 2.22-1.76s4.22-.68 8.21-.92c1.27-.09 2.68-.14 4.23-.14s3.09.02 4.62.07 2.46.07 2.78.07q1.62-.075 2.19.21c.38.19.54.47.49.85q-.135.705-1.41 2.04c-.85.89-1.36 1.95-1.55 3.17l-3.1 21.85c-.09.66-.01 1.23.25 1.73.26.49.67.74 1.23.74.47 0 1.05-.33 1.73-.99q1.02-.99 1.38-.99c.47 0 .66.24.56.71q-.36 1.905-2.01 3.42c-1.11 1.01-2.32 1.52-3.63 1.52-1.79 0-3.02-.59-3.7-1.76s-.88-2.68-.6-4.51l3.31-22.49c.19-1.27-.06-2.13-.74-2.57-.68-.45-2.08-.6-4.19-.46-1.46.09-2.43.17-2.93.21-.49.05-1.06.18-1.69.39s-1.06.49-1.27.85c-.21.35-.39.88-.53 1.59-.09.42-.38 1.77-.85 4.05s-.82 3.94-1.06 4.97c-.24 1.04-.63 2.61-1.2 4.72-.56 2.11-1.11 3.81-1.62 5.08a37 37 0 0 1-1.97 4.05c-.8 1.43-1.65 2.62-2.54 3.56-1.69 1.69-3.55 2.54-5.57 2.54ZM157.02 225.53q.57-.57 1.2-.63.63-.075.78.39c.09.31 0 .72-.28 1.23-1.18 2.02-3.18 3.97-6.03 5.85q-4.26 2.82-9.27 2.82c-3.67 0-6.85-1.26-9.55-3.77q-4.05-3.765-4.05-10.68c0-3.05.76-6.13 2.29-9.23s3.88-5.8 7.05-8.11c3.17-2.3 6.76-3.45 10.75-3.45 2.91 0 5.31.71 7.19 2.12s2.82 3.38 2.82 5.92c0 4.09-2.16 7.41-6.49 9.98-4.32 2.56-10.29 4.41-17.91 5.53.52 2.26 1.63 4.11 3.35 5.57 1.71 1.46 3.77 2.18 6.17 2.18 3.9 0 7.9-1.9 11.98-5.71Zm-9.16-22.7c-3.24 0-6.12 1.56-8.63 4.69s-3.77 6.99-3.77 11.6c0 1.22.75 1.72 2.26 1.48 5.36-.85 9.47-2.3 12.34-4.37s4.3-4.51 4.3-7.33q0-2.745-1.8-4.41c-1.2-1.1-2.76-1.66-4.69-1.66ZM226.53 229.33c.47 0 .66.24.56.71q-.36 1.905-2.01 3.42c-1.1 1.01-2.32 1.52-3.63 1.52-1.69 0-2.82-.54-3.38-1.62s-.8-2.61-.71-4.58l.92-17.06c.09-2.26-.33-4.1-1.27-5.53s-2.42-2.15-4.44-2.15c-3.15 0-6.1 2.07-8.85 6.2-2.75 4.14-4.55 8.77-5.39 13.89l-1.48 8.95c-.14.71-.52 1.13-1.13 1.27l-2.47.78c-.47.14-.82.09-1.06-.14-.24-.24-.33-.61-.28-1.13l2.89-19.6c1.03-6.81-.71-10.22-5.22-10.22-3.52 0-6.72 2.06-9.59 6.17q-4.305 6.165-5.64 13.92l-1.48 9.02c-.05.71-.42 1.15-1.13 1.34l-2.47.71c-.47.14-.82.09-1.06-.14-.24-.24-.33-.59-.28-1.06l3.74-25.66c.09-.8.04-1.47-.18-2.01-.21-.54-.47-.9-.78-1.09s-.6-.41-.88-.67q-.42-.39-.42-.81c0-.42.18-.76.53-1.02s1.12-.67 2.29-1.23c.28-.09.49-.19.63-.28 1.46-.66 2.56-.99 3.31-.99q1.41 0 1.2 1.41l-1.41 10.08c1.74-3.1 3.99-5.79 6.77-8.07 2.77-2.28 5.62-3.42 8.53-3.42 3.2 0 5.54.96 7.05 2.89 1.5 1.93 2.07 4.72 1.69 8.39 1.83-3.38 4.08-6.11 6.73-8.18s5.49-3.1 8.49-3.1c2.68 0 4.71.93 6.1 2.78 1.39 1.86 1.99 4.64 1.8 8.35l-.85 17.48v.92c0 .14.04.38.11.7.07.33.19.55.35.67s.39.18.67.18c.47 0 1.06-.33 1.76-.99.71-.66 1.15-.99 1.34-.99ZM82.68 85.48h-5.56c-1.09 0-1.87-.08-2.32-.23-.46-.15-.67-.43-.62-.82.04-.35.24-.65.59-.92.35-.26.74-.47 1.18-.62s.88-.47 1.34-.95.8-1.09 1.01-1.83c.3-.74.48-1.38.52-1.9l4.32-31.29c.09-.87.13-1.51.13-1.9-.09-.91-.38-1.62-.88-2.13-.5-.5-.96-.88-1.37-1.15-.42-.26-.58-.61-.49-1.05 0-.7 1.05-1.05 3.14-1.05h5.56c1.09 0 1.87.08 2.32.23.46.15.66.42.62.82-.05.44-.34.79-.88 1.05q-.825.39-1.83 1.11-1.02.72-1.41 2.16c-.31.79-.46 1.42-.46 1.9l-1.38 9.82c-.18 1.27-.07 2.05.33 2.36.7.52 3.58.81 8.64.85h4.65c6.89 0 10.87-.18 11.91-.52.83-.26 1.33-.89 1.51-1.9.04-.17.09-.44.13-.79l1.31-9.82c.09-.87.13-1.51.13-1.9-.04-.74-.23-1.35-.56-1.83s-.67-.8-1.01-.95c-.35-.15-.65-.36-.88-.62-.24-.26-.34-.57-.29-.92.04-.7 1.09-1.05 3.14-1.05h5.63q2.94 0 2.94 1.05c-.09.44-.4.79-.95 1.05q-.825.39-1.8 1.11t-1.38 2.16c-.31.74-.48 1.38-.52 1.9l-4.32 31.29c-.09.87-.13 1.51-.13 1.9.04.74.23 1.35.56 1.83s.66.8 1.01.95.64.36.88.62.34.57.29.92c-.04.7-1.09 1.05-3.14 1.05h-5.63c-1.96 0-2.95-.35-2.95-1.05.04-.35.25-.65.62-.92.37-.26.76-.47 1.18-.62s.85-.47 1.31-.95.8-1.09 1.01-1.83c.31-.74.48-1.38.52-1.9l1.7-12.76c.22-1.31.13-2.11-.26-2.42-.65-.48-3.43-.74-8.31-.78h-4.06c-7.37 0-11.63.18-12.76.52-.87.26-1.4.87-1.57 1.83-.04.18-.09.46-.13.85L83.19 78.2c-.09.87-.13 1.51-.13 1.9.09.92.38 1.63.88 2.13s.96.88 1.38 1.15c.41.26.6.61.56 1.05-.05.7-1.11 1.05-3.21 1.05ZM159 80.7c.39 0 .55.22.46.65-.17 1.18-.78 2.24-1.8 3.17-1.03.94-2.17 1.41-3.44 1.41q-2.295 0-3.21-1.77c-.915-1.77-.7-3.62-.26-7.33a21.2 21.2 0 0 1-5.63 6.61c-2.31 1.79-4.95 2.68-7.92 2.68s-5.46-.99-7.49-2.98c-2.03-1.98-3.04-4.83-3.04-8.54 0-5.63 1.59-10.57 4.78-14.83s7.16-6.38 11.91-6.38c.96 0 2.36.23 4.19.69s2.97.69 3.4.69q1.245 0 2.55-.69t1.83-.69c.52 0 .86.2 1.01.59s.18 1.09.1 2.09l-1.37 24.15c-.09 1.53.3 2.29 1.18 2.29.39 0 .89-.31 1.51-.92.61-.61 1.02-.92 1.24-.92Zm-7.59-13.88.13-1.9c.17-2.79-.58-5.02-2.26-6.68s-3.74-2.49-6.19-2.49-4.53.92-6.38 2.75a16.5 16.5 0 0 0-4.06 6.38c-.85 2.42-1.25 4.81-1.21 7.17q0 5.625 2.46 7.89c1.64 1.51 3.5 2.26 5.6 2.26 2.92 0 5.56-1.46 7.92-4.39 2.36-2.92 3.69-6.59 3.99-11ZM169.31 86.13c-.92 0-1.73-.25-2.45-.75s-.99-1.32-.82-2.45c.09-.79.39-1.44.92-1.96.52-.52 1.09-.79 1.7-.79q.66 0 1.08.33c.28.22.46.47.52.75.07.28.2.54.39.75.2.22.47.33.82.33 1.27 0 2.53-1.37 3.8-4.12a49 49 0 0 0 3.04-8.77q1.14-4.65 1.8-9.03c.13-.87-.17-1.51-.92-1.9-.09-.04-.23-.11-.42-.2-.2-.09-.35-.15-.46-.2s-.22-.11-.33-.2-.19-.21-.23-.36-.04-.32 0-.49c.09-.7.63-1.27 1.64-1.7 2.09-.92 3.97-1.38 5.63-1.38.48 0 .78.22.91.65.39 2.09 1.03 5.85 1.9 11.26s1.59 9.56 2.16 12.44l12.57-22.39c.52-.83 1.02-1.33 1.51-1.51.92-.26 1.68-.42 2.29-.46.39-.04.67.05.82.29s.21.73.16 1.47l-2.03 24.48c-.09.61-.01 1.15.23 1.6.24.46.62.69 1.15.69.44 0 .97-.31 1.6-.92s1.06-.92 1.28-.92c.44 0 .61.22.52.65-.22 1.18-.84 2.24-1.87 3.17-1.03.94-2.15 1.41-3.37 1.41q-4.38 0-3.99-5.76l1.31-18.65-11.32 20.16c-.57.96-1.22 1.48-1.96 1.57-.7.22-1.3.28-1.8.2-.5-.09-.8-.46-.88-1.11-.52-2.71-1.21-6.51-2.06-11.42s-1.41-8.06-1.67-9.46c-.04.17-.24 1.12-.59 2.85-.35 1.72-.63 3.04-.85 3.96s-.58 2.27-1.08 4.06-.99 3.27-1.47 4.45-1.08 2.42-1.8 3.73-1.5 2.4-2.32 3.27c-1.66 1.57-3.34 2.36-5.04 2.36Z" class="cls-4"/><g style="filter:url(#drop-shadow-2)"><path d="M62.49 97.18 51.9 171.03c-.34 2.41-.24 4.44.32 6.07q.84 2.46 2.13 3.42c.86.65 1.66 1.31 2.39 2s1.1 1.34 1.1 1.94q0 2.07-5.55 2.07H40.15c-3.62 0-5.42-.69-5.42-2.07 0-.69.36-1.38 1.1-2.07.73-.69 1.57-1.36 2.52-2 .95-.65 1.89-1.78 2.84-3.42.95-1.63 1.59-3.62 1.94-5.94l8.39-58.23q.135-2.19.06-3.81c-.04-1.07-.45-2-1.23-2.78-.77-.77-1.98-1.33-3.62-1.68q-2.58-.645-3.42-1.23c-.56-.39-.8-.92-.71-1.61.08-.43.28-.77.58-1.03q.45-.39 2.52-1.29c1.38-.6 3.44-1.38 6.2-2.32 4.56-1.38 7.36-2.11 8.39-2.2 1.55-.17 2.28.6 2.2 2.32ZM106.91 187.82c-10.42 0-18.21-3.79-23.37-11.36-5.17-7.57-6.89-17.6-5.17-30.08 2.24-15.24 7.38-27.63 15.43-37.19 8.05-9.55 17.06-14.33 27.05-14.33 8.78 0 14.85 2.63 18.21 7.87.69 1.21.6 2.2-.26 2.97s-1.85.82-2.97.13c-4.48-2.84-9.64-4.26-15.5-4.26-7.4 0-13.67 3.34-18.79 10.01s-8.41 15.3-9.88 25.89c2.58-4.04 6.22-7.38 10.91-10.01s9.36-3.94 14.01-3.94c8 0 14.25 3.06 18.72 9.17s6.11 13.56 4.91 22.34c-1.38 9.47-5.04 17.3-10.98 23.5s-13.39 9.3-22.34 9.3Zm.25-5.68c5.77.26 10.59-1.55 14.46-5.42s6.46-8.95 7.75-15.24c1.46-7.83.69-14.7-2.32-20.6-3.01-5.89-7.79-8.93-14.33-9.1-5.6-.26-10.44 1.42-14.53 5.03-4.09 3.62-6.74 8.44-7.94 14.46q-2.19 12.135 2.13 21.3c2.88 6.11 7.81 9.3 14.78 9.56ZM177.92 187.82c-8.09 0-15.02-1.92-20.79-5.75s-9.51-8.5-11.23-14.01c-.43-1.46 0-2.5 1.29-3.1s2.28-.26 2.97 1.03c5.77 9.55 14.55 14.33 26.34 14.33 6.8 0 12.29-1.89 16.46-5.68s6.65-8.43 7.42-13.94c1.21-8.52-1.23-14.96-7.29-19.3-6.07-4.35-15.73-7.21-28.99-8.59-1.55-.17-1.94-1.08-1.16-2.71l14.33-32.02c.77-1.38 1.68-2.02 2.71-1.94 9.56.6 19.02.6 28.41 0 2.5-.17 4.67-1.01 6.52-2.52 1.85-1.5 3.08-2.26 3.68-2.26 1.29 0 1.68 1.03 1.16 3.1-.6 2.84-1.68 5.38-3.23 7.62q-1.545 2.19-5.94 2.58c-10.16.86-20.79.9-31.89.13l-8.78 20.66c14.63 1.98 25.48 5.88 32.54 11.68 7.06 5.81 9.94 13.54 8.65 23.18-1.03 7.49-4.35 13.94-9.94 19.37-5.6 5.42-13.34 8.13-23.24 8.13Z" class="cls-5"/></g></g></g></svg>
